<?xml version="1.0" encoding="UTF-8"?>
<!-- Generated by Pixelmator Pro 3.2.3 -->
<svg width="34" height="707" viewBox="0 0 34 707" xmlns="http://www.w3.org/2000/svg" xmlns:xlink="http://www.w3.org/1999/xlink">
    <path id="Rectangle-copy" fill="#000000" fill-rule="evenodd" stroke="none" d="M 0 707 L 34 707 L 34 657 L 0 657 Z"/>
    <path id="Rectangle" fill="#000000" fill-rule="evenodd" stroke="none" d="M 0 50 L 34 50 L 34 0 L 0 0 Z"/>
    <path id="Path" fill="none" stroke="#0000ff" stroke-width="2" stroke-linecap="round" stroke-linejoin="round" d="M 26.892925 367.960602 L 26.88912 367.964417 L 26.598112 368.168518 L 26.590557 368.172272 L 26.2693 368.323486 L 26.261745 368.32724 L 25.917795 368.417938 L 25.914019 368.421753 L 25.558737 368.451965 L 25.551182 368.451965 L 25.475603 368.451965 L 21.680937 368.451965 L 16.956528 363.72757 L 16.858255 363.629272 L 16.858255 363.224884 L 16.858255 343.416412 L 21.582666 338.691986 L 21.680937 338.593719 L 21.756544 338.593719 L 25.551182 338.593719 L 25.906464 338.623932 L 25.914019 338.623932 L 26.254162 338.718414 L 26.261745 338.718414 L 26.583002 338.869629 L 26.590557 338.873383 L 26.881565 339.077454 L 26.88912 339.081268 L 27.138577 339.330688 L 27.142353 339.338257 L 27.346451 339.629272 L 27.350229 339.633057 L 27.501413 339.954346 L 27.50519 339.961914 L 27.595907 340.305817 L 27.599684 340.313354 L 27.629932 340.664856 L 27.629932 340.672424 L 27.629932 341.186432 L 27.629932 366.37323 L 27.599684 366.728516 L 27.599684 366.736084 L 27.50519 367.076233 L 27.50519 367.083771 L 27.354006 367.40506 L 27.350229 367.412628 L 27.146132 367.703644 L 27.142353 367.711182 Z M 0.606305 1.605347 L 0.606305 1.270874 L 32.089775 1.270874 L 32.732288 1.270874 L 32.732288 15.360962 L 32.732288 705.77478 L 1.248818 705.77478 L 0.606305 705.77478 L 0.606305 689.375488 L 0.606305 689.042847 L 0.719686 689.042847 L 6.275596 689.042847 L 6.275596 688.706482 L 6.275596 672.269348 L 6.162215 672.269348 L 0.606305 672.269348 L 0.606305 659.520935 L 0.606305 34.776367 L 0.719686 34.776367 L 6.275596 34.776367 L 6.275596 34.440002 L 6.275596 18.002808 L 6.162215 18.002808 L 0.606305 18.002808 Z"/>
</svg>
