<?xml version="1.0" encoding="UTF-8"?>
<svg id="_x34_00x200" xmlns="http://www.w3.org/2000/svg" version="1.1" xmlns:xlink="http://www.w3.org/1999/xlink" viewBox="0 0 1128.189 561.26">
  <!-- Generator: Adobe Illustrator 29.2.1, SVG Export Plug-In . SVG Version: 2.1.0 Build 116)  -->
  <defs>
    <style>
      .st0 {
        stroke: red;
      }

      .st0, .st1 {
        fill: none;
        stroke-miterlimit: 10;
        stroke-width: .283px;
      }

      .st2 {
        fill-rule: evenodd;
      }

      .st1 {
        stroke: blue;
      }
    </style>
  </defs>
  <g id="top_and_bottom_panel.svg">
    <path d="M31.493,64.021l-6.978-.592s9.414-1.593,3.488-9.511l5.795,3.916-2.305,6.187ZM36.387,52.935l-6.577-2.405s9.504.938,5.865-8.259l4.562,5.301-3.85,5.362ZM43.82,43.716l-5.737-4.015s8.942,3.351,7.792-6.473l3.045,6.297-5.101,4.191ZM53.576,36.611l-4.486-5.377s7.752,5.573,9.216-4.21l1.291,6.877-6.02,2.71ZM64.691,32.282l-2.95-6.349s6.056,7.379,9.987-1.698l-.523,6.977-6.514,1.069ZM76.628,30.961l-1.208-6.897s3.939,8.699,10.087.949l-2.31,6.603-6.569-.654ZM88.507,32.779l.622-6.974s1.551,9.42,9.497,3.529l-3.944,5.779-6.175-2.333ZM99.738,37.752l2.446-6.56s-1.001,9.494,8.224,5.916l-5.334,4.529-5.336-3.886ZM108.905,45.156l4.035-5.724s-3.381,8.929,6.447,7.812l-6.307,3.025-4.175-5.114ZM115.952,54.759l5.369-4.494s-5.56,7.758,4.225,9.207l-6.873,1.302-2.72-6.014ZM120.296,65.851l6.342-2.964s-7.366,6.07,1.717,9.982l-6.975-.509-1.084-6.51ZM121.639,77.833l6.897-1.215s-8.693,3.947-.936,10.088l-6.605-2.304.644-6.569ZM119.831,89.726l6.975.619s-9.419,1.554-3.523,9.496l-5.781-3.937,2.329-6.178ZM114.946,100.82l6.576,2.404s-9.501-.94-5.866,8.26l-4.56-5.304,3.849-5.36ZM107.435,110.183l5.737,4.015s-8.939-3.35-7.791,6.474l-3.045-6.298,5.099-4.19ZM97.824,117.272l4.519,5.349s-7.784-5.524-9.186,4.266l-1.334-6.866,6-2.749ZM86.721,121.669l3.004,6.327s-6.116-7.331-9.975,1.776l.467-6.979,6.503-1.123ZM74.638,123.076l1.252,6.889s-3.996-8.669-10.093-.881l2.269-6.618,6.572.609ZM62.631,121.139l-.572,6.978s-1.616-9.408-9.522-3.462l3.901-5.805,6.192,2.288ZM51.84,116.423l-2.363,6.592s.876-9.505-8.3-5.81l5.275-4.596,5.388,3.815ZM42.3,108.906l-3.999,5.747s3.326-8.948-6.495-7.776l6.291-3.06,4.203,5.089ZM35.429,99.172l-5.349,4.516s5.527-7.782-4.264-9.189l6.868-1.329,2.746,6.002ZM30.932,87.809l-6.349,2.953s7.378-6.058-1.699-9.987l6.976.521,1.072,6.513ZM29.554,75.872l-6.895,1.212s8.692-3.947.939-10.086l6.605,2.304-.649,6.57ZM62.633,59.867l2.505,2.618,3.577-.58-1.716,3.191,1.656,3.223-3.566-.646-2.553,2.571-.488-3.591-3.234-1.634,3.264-1.573.554-3.581Z"/>
    <path d="M49.336,81.802l-5.623,1.769-1.619-5.145,17.432-5.485,1.619,5.145-5.623,1.769,4.698,14.93-6.185,1.946-4.698-14.93ZM62.983,71.854l6.186-1.946,6.317,20.075-6.186,1.946-6.316-20.075ZM73.414,68.571l6.185-1.946,4.697,14.929,8.885-2.795,1.619,5.145-15.07,4.742-6.316-20.075ZM93.701,67.842l-5.623,1.769-1.619-5.145,17.432-5.485,1.619,5.145-5.623,1.769,4.698,14.93-6.186,1.946-4.698-14.93Z"/>
    <path class="st0" d="M16.08,131.783c0,2.656,2.153,4.808,4.808,4.808h109.643c2.656,0,4.808-2.153,4.808-4.808V22.14c0-2.656-2.153-4.808-4.808-4.808H20.888c-2.656,0-4.808,2.153-4.808,4.808v109.643Z"/>
    <path class="st2" d="M126.034,19.664h3.661c1.235,0,2.162.331,2.78.994s.927,1.635.927,2.915v1.559c0,1.281-.309,2.252-.927,2.915s-1.544.994-2.78.994h-1.175v6.441h-2.486v-15.819ZM129.695,26.783c.407,0,.712-.113.915-.339s.305-.61.305-1.153v-1.876c0-.542-.102-.927-.305-1.153-.203-.226-.508-.339-.915-.339h-1.175v4.859h1.175Z"/>
    <path class="st1" d="M92.956,129.869l.687.186.633.293.575.4.496.498.4.571.293.631.184.68.058.699-.058.708-.058.208-.122.455-.297.639-.4.571-.496.498-.575.402-.633.295-.687.182-.689.062-.687-.062-.691-.182-.631-.295-.573-.402-.492-.494-.408-.58-.293-.633-.06-.216-.12-.445-.064-.721.062-.676.186-.691.289-.625.408-.58.492-.494.569-.398.21-.1.424-.195.691-.186.687-.062.689.062ZM34.417,28.359l.92.248.855.398.772.539.68.68.539.77.13.28.267.577.25.918.081.945-.081.945-.25.918-.396.856-.539.77-.68.68-.768.535-.284.135-.575.267-.92.248-.943.083-.945-.083-.918-.248-.856-.398-.778-.543-.665-.667-.55-.785-.394-.851-.25-.918-.081-.945.081-.945.25-.918.394-.851.55-.785.665-.667.778-.543.28-.13.577-.269.918-.248.945-.083.943.083ZM34.417,113.26l.92.25.855.396.772.539.68.68.539.77.396.856.25.92.081.943-.081.945-.25.918-.396.856-.539.77-.68.68-.772.541-.855.396-.302.081-.618.167-.943.083-.945-.083-.918-.248-.856-.396-.778-.545-.665-.667-.55-.785-.394-.851-.25-.918-.081-.945.081-.943.25-.92.394-.851.55-.785.665-.667.778-.541.856-.398.918-.25.945-.081.943.081ZM119.604,113.26l.918.25.856.396.77.539.68.68.535.766.135.285.269.578.246.917.083.943-.083.945-.248.918-.398.856-.539.77-.676.676-.779.547-.274.128-.577.267-.918.248-.945.083-.945-.083-.918-.248-.851-.394-.779-.547-.676-.676-.535-.766-.135-.285-.269-.578-.246-.915-.083-.945.083-.943.248-.92.398-.856.539-.77.68-.68.248-.173.522-.366.856-.396.918-.25.945-.081.945.081ZM119.604,28.359l.918.248.856.398.77.539.68.68.535.766.135.285.269.578.246.915.083.945-.083.945-.248.918-.398.856-.539.77-.68.68-.77.539-.856.398-.918.248-.945.083-.945-.083-.918-.248-.276-.128-.58-.27-.77-.539-.68-.68-.535-.766-.135-.285-.269-.578-.246-.915-.083-.945.083-.945.248-.918.398-.856.539-.77.68-.68.77-.539.28-.13.577-.269.918-.248.945-.083.945.083ZM119.878,3.366l4.354.864,4.172,1.416,3.987,1.968,3.67,2.453,3.328,2.917,1.948,2.22.969,1.108,2.451,3.666,1.97,3.991,1.414,4.166.866,4.359.291,4.429v78.767l-.096,1.482-.195,2.945-.864,4.354-1.416,4.173-1.968,3.986-.81,1.213-1.643,2.457-2.917,3.328-3.328,2.917-3.67,2.453-1.328.657-2.66,1.311-4.172,1.416-4.354.866-4.429.289H36.682l-4.427-.289-4.354-.866-4.173-1.416-3.986-1.968-3.67-2.453-3.328-2.917-2.917-3.328-2.453-3.67-.657-1.328-1.311-2.658-1.416-4.173-.866-4.354-.289-4.427V36.924l.289-4.429.868-4.359,1.414-4.166,1.97-3.991,2.451-3.666,2.917-3.328,3.328-2.917,3.67-2.453,1.328-.657,2.658-1.311,4.173-1.416,4.354-.864,4.427-.291h78.767l4.429.291Z"/>
    <path class="st0" d="M78.106,118.185c0,1.261,1.023,2.284,2.284,2.284h4.808c1.261,0,2.284-1.023,2.284-2.284v-4.448c0-1.261-1.023-2.284-2.284-2.284h-4.808c-1.261,0-2.284,1.023-2.284,2.284v4.448Z"/>
    <path class="st0" d="M87.482,115.064c18.273-5.279,30.854-22.485,29.169-41.711-1.927-21.992-21.788-38.299-44.362-36.422-22.574,1.877-39.311,21.228-37.384,43.22,1.894,21.614,21.112,37.723,43.201,36.49"/>
    <path class="st2" d="M81.185,118.185v-4.302h1.828c.46,0,.794.039,1.002.116s.375.215.5.412.188.424.188.678c0,.323-.095.589-.285.8s-.473.343-.851.398c.188.11.343.23.465.361s.287.364.494.698l.525.839h-1.039l-.628-.936c-.223-.335-.376-.545-.458-.632s-.169-.147-.261-.179-.238-.048-.437-.048h-.176v1.796h-.869ZM82.053,115.702h.643c.417,0,.677-.018.781-.053s.185-.096.244-.182.088-.194.088-.323c0-.145-.039-.262-.116-.351s-.186-.145-.327-.169c-.07-.01-.282-.015-.634-.015h-.678v1.092Z"/>
    <path d="M258.295,63.085v2.143h-2.143v-2.143h2.143ZM258.295,65.228v2.143h-2.143v-2.143h2.143ZM258.295,67.371v2.143h-2.143v-2.143h2.143ZM258.295,71.657v2.143h-2.143v-2.143h2.143ZM258.295,75.943v2.143h-2.143v-2.143h2.143ZM258.295,78.086v2.143h-2.143v-2.143h2.143ZM258.295,80.229v2.143h-2.143v-2.143h2.143ZM258.295,84.515v2.143h-2.143v-2.143h2.143ZM258.295,88.801v2.143h-2.143v-2.143h2.143ZM256.152,63.085v2.143h-2.143v-2.143h2.143ZM256.152,65.228v2.143h-2.143v-2.143h2.143ZM256.152,67.371v2.143h-2.143v-2.143h2.143ZM256.152,71.657v2.143h-2.143v-2.143h2.143ZM256.152,82.372v2.143h-2.143v-2.143h2.143ZM256.152,86.658v2.143h-2.143v-2.143h2.143ZM256.152,88.801v2.143h-2.143v-2.143h2.143ZM254.009,63.085v2.143h-2.143v-2.143h2.143ZM254.009,65.228v2.143h-2.143v-2.143h2.143ZM254.009,71.657v2.143h-2.143v-2.143h2.143ZM254.009,78.086v2.143h-2.143v-2.143h2.143ZM254.009,80.229v2.143h-2.143v-2.143h2.143ZM254.009,84.515v2.143h-2.143v-2.143h2.143Z"/>
    <path d="M251.866,65.228v2.143h-2.143v-2.143h2.143ZM251.866,71.657v2.143h-2.143v-2.143h2.143ZM251.866,82.372v2.143h-2.143v-2.143h2.143ZM249.723,63.085v2.143h-2.143v-2.143h2.143ZM249.723,75.943v2.143h-2.143v-2.143h2.143ZM249.723,80.229v2.143h-2.143v-2.143h2.143ZM249.723,82.372v2.143h-2.143v-2.143h2.143ZM249.723,84.515v2.143h-2.143v-2.143h2.143Z"/>
    <path d="M249.723,86.658v2.143h-2.143v-2.143h2.143ZM247.58,65.228v2.143h-2.143v-2.143h2.143ZM247.58,67.371v2.143h-2.143v-2.143h2.143ZM247.58,69.514v2.143h-2.143v-2.143h2.143Z"/>
    <path d="M247.58,71.657v2.143h-2.143v-2.143h2.143ZM247.58,80.229v2.143h-2.143v-2.143h2.143ZM247.58,84.515v2.143h-2.143v-2.143h2.143ZM247.58,88.801v2.143h-2.143v-2.143h2.143ZM245.437,63.085v2.143h-2.143v-2.143h2.143ZM245.437,67.371v2.143h-2.143v-2.143h2.143ZM245.437,71.657v2.143h-2.143v-2.143h2.143ZM245.437,75.943v2.143h-2.143v-2.143h2.143ZM245.437,80.229v2.143h-2.143v-2.143h2.143ZM245.437,84.515v2.143h-2.143v-2.143h2.143ZM245.437,88.801v2.143h-2.143v-2.143h2.143ZM243.294,67.371v2.143h-2.143v-2.143h2.143ZM243.294,69.514v2.143h-2.143v-2.143h2.143ZM243.294,73.8v2.143h-2.143v-2.143h2.143ZM243.294,86.658v2.143h-2.143v-2.143h2.143ZM241.151,45.941v2.143h-2.143v-2.143h2.143ZM241.151,52.37v2.143h-2.143v-2.143h2.143ZM241.151,54.513v2.143h-2.143v-2.143h2.143ZM241.151,56.656v2.143h-2.143v-2.143h2.143ZM241.151,58.799v2.143h-2.143v-2.143h2.143Z"/>
    <path d="M241.151,60.942v2.143h-2.143v-2.143h2.143ZM241.151,63.085v2.143h-2.143v-2.143h2.143ZM241.151,73.8v2.143h-2.143v-2.143h2.143ZM241.151,78.086v2.143h-2.143v-2.143h2.143ZM241.151,82.372v2.143h-2.143v-2.143h2.143ZM241.151,86.658v2.143h-2.143v-2.143h2.143ZM241.151,90.944v2.143h-2.143v-2.143h2.143ZM241.151,97.373v2.143h-2.143v-2.143h2.143ZM241.151,101.659v2.143h-2.143v-2.143h2.143ZM241.151,103.802v2.143h-2.143v-2.143h2.143ZM241.151,105.945v2.143h-2.143v-2.143h2.143ZM239.008,45.941v2.143h-2.143v-2.143h2.143ZM239.008,48.084v2.143h-2.143v-2.143h2.143ZM239.008,52.37v2.143h-2.143v-2.143h2.143Z"/>
    <path d="M239.008,63.085v2.143h-2.143v-2.143h2.143ZM239.008,69.514v2.143h-2.143v-2.143h2.143ZM239.008,73.8v2.143h-2.143v-2.143h2.143ZM239.008,78.086v2.143h-2.143v-2.143h2.143ZM239.008,82.372v2.143h-2.143v-2.143h2.143ZM239.008,84.515v2.143h-2.143v-2.143h2.143Z"/>
    <path d="M239.008,86.658v2.143h-2.143v-2.143h2.143ZM239.008,95.23v2.143h-2.143v-2.143h2.143ZM239.008,97.373v2.143h-2.143v-2.143h2.143ZM239.008,101.659v2.143h-2.143v-2.143h2.143ZM239.008,103.802v2.143h-2.143v-2.143h2.143ZM236.865,45.941v2.143h-2.143v-2.143h2.143ZM236.865,52.37v2.143h-2.143v-2.143h2.143ZM236.865,56.656v2.143h-2.143v-2.143h2.143ZM236.865,58.799v2.143h-2.143v-2.143h2.143Z"/>
    <path d="M236.865,60.942v2.143h-2.143v-2.143h2.143ZM236.865,63.085v2.143h-2.143v-2.143h2.143ZM236.865,67.371v2.143h-2.143v-2.143h2.143ZM236.865,73.8v2.143h-2.143v-2.143h2.143ZM236.865,78.086v2.143h-2.143v-2.143h2.143ZM236.865,80.229v2.143h-2.143v-2.143h2.143ZM236.865,88.801v2.143h-2.143v-2.143h2.143ZM236.865,90.944v2.143h-2.143v-2.143h2.143Z"/>
    <path d="M236.865,93.087v2.143h-2.143v-2.143h2.143Z"/>
    <path d="M236.865,95.23v2.143h-2.143v-2.143h2.143ZM236.865,97.373v2.143h-2.143v-2.143h2.143ZM236.865,101.659v2.143h-2.143v-2.143h2.143ZM234.722,48.084v2.143h-2.143v-2.143h2.143ZM234.722,50.227v2.143h-2.143v-2.143h2.143ZM234.722,52.37v2.143h-2.143v-2.143h2.143ZM234.722,67.371v2.143h-2.143v-2.143h2.143ZM234.722,69.514v2.143h-2.143v-2.143h2.143ZM234.722,73.8v2.143h-2.143v-2.143h2.143ZM234.722,80.229v2.143h-2.143v-2.143h2.143ZM234.722,82.372v2.143h-2.143v-2.143h2.143ZM234.722,88.801v2.143h-2.143v-2.143h2.143ZM234.722,93.087v2.143h-2.143v-2.143h2.143ZM234.722,97.373v2.143h-2.143v-2.143h2.143ZM234.722,99.516v2.143h-2.143v-2.143h2.143ZM234.722,105.945v2.143h-2.143v-2.143h2.143ZM232.579,56.656v2.143h-2.143v-2.143h2.143ZM232.579,58.799v2.143h-2.143v-2.143h2.143Z"/>
    <path d="M232.579,60.942v2.143h-2.143v-2.143h2.143ZM232.579,63.085v2.143h-2.143v-2.143h2.143ZM232.579,71.657v2.143h-2.143v-2.143h2.143Z"/>
    <path d="M232.579,73.8v2.143h-2.143v-2.143h2.143ZM232.579,78.086v2.143h-2.143v-2.143h2.143ZM232.579,80.229v2.143h-2.143v-2.143h2.143ZM232.579,86.658v2.143h-2.143v-2.143h2.143ZM232.579,93.087v2.143h-2.143v-2.143h2.143ZM232.579,105.945v2.143h-2.143v-2.143h2.143ZM230.436,48.084v2.143h-2.143v-2.143h2.143ZM230.436,50.227v2.143h-2.143v-2.143h2.143ZM230.436,63.085v2.143h-2.143v-2.143h2.143ZM230.436,69.514v2.143h-2.143v-2.143h2.143ZM230.436,73.8v2.143h-2.143v-2.143h2.143ZM230.436,75.943v2.143h-2.143v-2.143h2.143ZM230.436,78.086v2.143h-2.143v-2.143h2.143ZM230.436,80.229v2.143h-2.143v-2.143h2.143ZM230.436,82.372v2.143h-2.143v-2.143h2.143ZM230.436,84.515v2.143h-2.143v-2.143h2.143ZM230.436,90.944v2.143h-2.143v-2.143h2.143Z"/>
    <path d="M230.436,93.087v2.143h-2.143v-2.143h2.143Z"/>
    <path d="M230.436,95.23v2.143h-2.143v-2.143h2.143ZM230.436,97.373v2.143h-2.143v-2.143h2.143ZM230.436,99.516v2.143h-2.143v-2.143h2.143ZM230.436,101.659v2.143h-2.143v-2.143h2.143ZM230.436,103.802v2.143h-2.143v-2.143h2.143ZM230.436,105.945v2.143h-2.143v-2.143h2.143ZM228.293,52.37v2.143h-2.143v-2.143h2.143ZM228.293,58.799v2.143h-2.143v-2.143h2.143ZM228.293,63.085v2.143h-2.143v-2.143h2.143ZM228.293,71.657v2.143h-2.143v-2.143h2.143Z"/>
    <path d="M228.293,73.8v2.143h-2.143v-2.143h2.143ZM228.293,78.086v2.143h-2.143v-2.143h2.143ZM228.293,86.658v2.143h-2.143v-2.143h2.143ZM228.293,88.801v2.143h-2.143v-2.143h2.143ZM228.293,90.944v2.143h-2.143v-2.143h2.143ZM228.293,97.373v2.143h-2.143v-2.143h2.143ZM228.293,101.659v2.143h-2.143v-2.143h2.143ZM228.293,105.945v2.143h-2.143v-2.143h2.143ZM226.15,48.084v2.143h-2.143v-2.143h2.143ZM226.15,50.227v2.143h-2.143v-2.143h2.143ZM226.15,54.513v2.143h-2.143v-2.143h2.143ZM226.15,60.942v2.143h-2.143v-2.143h2.143ZM226.15,63.085v2.143h-2.143v-2.143h2.143ZM226.15,71.657v2.143h-2.143v-2.143h2.143ZM226.15,78.086v2.143h-2.143v-2.143h2.143ZM226.15,90.944v2.143h-2.143v-2.143h2.143Z"/>
    <path d="M226.15,93.087v2.143h-2.143v-2.143h2.143Z"/>
    <path d="M226.15,95.23v2.143h-2.143v-2.143h2.143ZM226.15,101.659v2.143h-2.143v-2.143h2.143ZM226.15,105.945v2.143h-2.143v-2.143h2.143ZM224.007,48.084v2.143h-2.143v-2.143h2.143ZM224.007,50.227v2.143h-2.143v-2.143h2.143ZM224.007,54.513v2.143h-2.143v-2.143h2.143ZM224.007,56.656v2.143h-2.143v-2.143h2.143ZM224.007,58.799v2.143h-2.143v-2.143h2.143ZM224.007,67.371v2.143h-2.143v-2.143h2.143ZM224.007,75.943v2.143h-2.143v-2.143h2.143ZM224.007,84.515v2.143h-2.143v-2.143h2.143ZM224.007,88.801v2.143h-2.143v-2.143h2.143ZM224.007,95.23v2.143h-2.143v-2.143h2.143ZM224.007,99.516v2.143h-2.143v-2.143h2.143ZM221.865,45.941v2.143h-2.143v-2.143h2.143ZM221.865,48.084v2.143h-2.143v-2.143h2.143ZM221.865,56.656v2.143h-2.143v-2.143h2.143ZM221.865,65.228v2.143h-2.143v-2.143h2.143ZM221.865,73.8v2.143h-2.143v-2.143h2.143ZM221.865,75.943v2.143h-2.143v-2.143h2.143ZM221.865,78.086v2.143h-2.143v-2.143h2.143ZM221.865,80.229v2.143h-2.143v-2.143h2.143ZM221.865,84.515v2.143h-2.143v-2.143h2.143Z"/>
    <path d="M221.865,86.658v2.143h-2.143v-2.143h2.143ZM221.865,88.801v2.143h-2.143v-2.143h2.143ZM221.865,97.373v2.143h-2.143v-2.143h2.143ZM221.865,101.659v2.143h-2.143v-2.143h2.143ZM221.865,103.802v2.143h-2.143v-2.143h2.143ZM219.722,45.941v2.143h-2.143v-2.143h2.143ZM219.722,48.084v2.143h-2.143v-2.143h2.143ZM219.722,58.799v2.143h-2.143v-2.143h2.143ZM219.722,78.086v2.143h-2.143v-2.143h2.143Z"/>
    <path d="M219.722,86.658v2.143h-2.143v-2.143h2.143ZM219.722,93.087v2.143h-2.143v-2.143h2.143ZM219.722,97.373v2.143h-2.143v-2.143h2.143ZM219.722,99.516v2.143h-2.143v-2.143h2.143ZM219.722,105.945v2.143h-2.143v-2.143h2.143ZM217.579,45.941v2.143h-2.143v-2.143h2.143ZM217.579,48.084v2.143h-2.143v-2.143h2.143ZM217.579,52.37v2.143h-2.143v-2.143h2.143ZM217.579,54.513v2.143h-2.143v-2.143h2.143ZM217.579,56.656v2.143h-2.143v-2.143h2.143ZM217.579,60.942v2.143h-2.143v-2.143h2.143ZM217.579,65.228v2.143h-2.143v-2.143h2.143ZM217.579,75.943v2.143h-2.143v-2.143h2.143ZM217.579,78.086v2.143h-2.143v-2.143h2.143ZM217.579,86.658v2.143h-2.143v-2.143h2.143ZM217.579,99.516v2.143h-2.143v-2.143h2.143ZM217.579,101.659v2.143h-2.143v-2.143h2.143ZM215.436,45.941v2.143h-2.143v-2.143h2.143ZM215.436,48.084v2.143h-2.143v-2.143h2.143ZM215.436,50.227v2.143h-2.143v-2.143h2.143ZM215.436,52.37v2.143h-2.143v-2.143h2.143ZM215.436,54.513v2.143h-2.143v-2.143h2.143ZM215.436,58.799v2.143h-2.143v-2.143h2.143ZM215.436,63.085v2.143h-2.143v-2.143h2.143ZM215.436,65.228v2.143h-2.143v-2.143h2.143ZM215.436,71.657v2.143h-2.143v-2.143h2.143Z"/>
    <path d="M215.436,73.8v2.143h-2.143v-2.143h2.143ZM215.436,75.943v2.143h-2.143v-2.143h2.143ZM215.436,78.086v2.143h-2.143v-2.143h2.143ZM215.436,82.372v2.143h-2.143v-2.143h2.143ZM215.436,88.801v2.143h-2.143v-2.143h2.143ZM215.436,90.944v2.143h-2.143v-2.143h2.143Z"/>
    <path d="M215.436,93.087v2.143h-2.143v-2.143h2.143Z"/>
    <path d="M215.436,95.23v2.143h-2.143v-2.143h2.143ZM215.436,97.373v2.143h-2.143v-2.143h2.143ZM215.436,99.516v2.143h-2.143v-2.143h2.143ZM215.436,101.659v2.143h-2.143v-2.143h2.143ZM215.436,103.802v2.143h-2.143v-2.143h2.143ZM213.293,63.085v2.143h-2.143v-2.143h2.143ZM213.293,67.371v2.143h-2.143v-2.143h2.143ZM213.293,69.514v2.143h-2.143v-2.143h2.143ZM213.293,75.943v2.143h-2.143v-2.143h2.143ZM213.293,78.086v2.143h-2.143v-2.143h2.143ZM213.293,88.801v2.143h-2.143v-2.143h2.143Z"/>
    <path d="M213.293,97.373v2.143h-2.143v-2.143h2.143ZM213.293,99.516v2.143h-2.143v-2.143h2.143ZM211.15,63.085v2.143h-2.143v-2.143h2.143ZM211.15,65.228v2.143h-2.143v-2.143h2.143ZM211.15,69.514v2.143h-2.143v-2.143h2.143Z"/>
    <path d="M211.15,71.657v2.143h-2.143v-2.143h2.143ZM211.15,75.943v2.143h-2.143v-2.143h2.143ZM211.15,78.086v2.143h-2.143v-2.143h2.143ZM211.15,80.229v2.143h-2.143v-2.143h2.143ZM211.15,82.372v2.143h-2.143v-2.143h2.143ZM211.15,84.515v2.143h-2.143v-2.143h2.143Z"/>
    <path d="M211.15,86.658v2.143h-2.143v-2.143h2.143ZM211.15,88.801v2.143h-2.143v-2.143h2.143ZM211.15,93.087v2.143h-2.143v-2.143h2.143ZM211.15,97.373v2.143h-2.143v-2.143h2.143ZM211.15,99.516v2.143h-2.143v-2.143h2.143ZM209.007,63.085v2.143h-2.143v-2.143h2.143ZM209.007,71.657v2.143h-2.143v-2.143h2.143ZM209.007,75.943v2.143h-2.143v-2.143h2.143ZM209.007,82.372v2.143h-2.143v-2.143h2.143ZM209.007,84.515v2.143h-2.143v-2.143h2.143Z"/>
    <path d="M209.007,86.658v2.143h-2.143v-2.143h2.143ZM209.007,88.801v2.143h-2.143v-2.143h2.143ZM209.007,97.373v2.143h-2.143v-2.143h2.143ZM209.007,105.945v2.143h-2.143v-2.143h2.143ZM206.864,63.085v2.143h-2.143v-2.143h2.143ZM206.864,65.228v2.143h-2.143v-2.143h2.143ZM206.864,67.371v2.143h-2.143v-2.143h2.143ZM206.864,73.8v2.143h-2.143v-2.143h2.143ZM206.864,75.943v2.143h-2.143v-2.143h2.143ZM206.864,78.086v2.143h-2.143v-2.143h2.143ZM206.864,80.229v2.143h-2.143v-2.143h2.143ZM206.864,86.658v2.143h-2.143v-2.143h2.143ZM206.864,88.801v2.143h-2.143v-2.143h2.143ZM206.864,90.944v2.143h-2.143v-2.143h2.143Z"/>
    <path d="M206.864,93.087v2.143h-2.143v-2.143h2.143Z"/>
    <path d="M206.864,95.23v2.143h-2.143v-2.143h2.143ZM206.864,97.373v2.143h-2.143v-2.143h2.143ZM206.864,99.516v2.143h-2.143v-2.143h2.143ZM206.864,105.945v2.143h-2.143v-2.143h2.143ZM204.721,63.085v2.143h-2.143v-2.143h2.143ZM204.721,67.371v2.143h-2.143v-2.143h2.143ZM204.721,71.657v2.143h-2.143v-2.143h2.143Z"/>
    <path d="M204.721,73.8v2.143h-2.143v-2.143h2.143ZM204.721,78.086v2.143h-2.143v-2.143h2.143ZM204.721,80.229v2.143h-2.143v-2.143h2.143ZM204.721,84.515v2.143h-2.143v-2.143h2.143ZM204.721,90.944v2.143h-2.143v-2.143h2.143ZM204.721,105.945v2.143h-2.143v-2.143h2.143ZM202.578,69.514v2.143h-2.143v-2.143h2.143Z"/>
    <path d="M202.578,71.657v2.143h-2.143v-2.143h2.143Z"/>
    <path d="M202.578,73.8v2.143h-2.143v-2.143h2.143ZM202.578,78.086v2.143h-2.143v-2.143h2.143ZM202.578,84.515v2.143h-2.143v-2.143h2.143ZM202.578,88.801v2.143h-2.143v-2.143h2.143ZM202.578,95.23v2.143h-2.143v-2.143h2.143ZM202.578,97.373v2.143h-2.143v-2.143h2.143ZM202.578,101.659v2.143h-2.143v-2.143h2.143ZM202.578,103.802v2.143h-2.143v-2.143h2.143ZM202.578,105.945v2.143h-2.143v-2.143h2.143ZM200.435,65.228v2.143h-2.143v-2.143h2.143ZM200.435,67.371v2.143h-2.143v-2.143h2.143ZM200.435,69.514v2.143h-2.143v-2.143h2.143Z"/>
    <path d="M200.435,71.657v2.143h-2.143v-2.143h2.143Z"/>
    <path d="M200.435,73.8v2.143h-2.143v-2.143h2.143ZM200.435,78.086v2.143h-2.143v-2.143h2.143ZM200.435,93.087v2.143h-2.143v-2.143h2.143ZM200.435,97.373v2.143h-2.143v-2.143h2.143ZM200.435,99.516v2.143h-2.143v-2.143h2.143ZM200.435,101.659v2.143h-2.143v-2.143h2.143ZM200.435,105.945v2.143h-2.143v-2.143h2.143ZM198.292,63.085v2.143h-2.143v-2.143h2.143ZM198.292,67.371v2.143h-2.143v-2.143h2.143ZM198.292,71.657v2.143h-2.143v-2.143h2.143ZM198.292,78.086v2.143h-2.143v-2.143h2.143ZM198.292,86.658v2.143h-2.143v-2.143h2.143ZM198.292,88.801v2.143h-2.143v-2.143h2.143ZM198.292,90.944v2.143h-2.143v-2.143h2.143Z"/>
    <path d="M198.292,93.087v2.143h-2.143v-2.143h2.143ZM198.292,97.373v2.143h-2.143v-2.143h2.143ZM198.292,99.516v2.143h-2.143v-2.143h2.143Z"/>
    <path d="M258.295,58.692v-12.751h-15.001v15.001h15.001v-2.25ZM245.544,58.692v-10.501h10.501v10.501h-10.501Z"/>
    <path d="M258.295,105.837v-12.751h-15.001v15.001h15.001v-2.25ZM245.544,105.837v-10.501h10.501v10.501h-10.501Z"/>
    <rect x="247.58" y="50.227" width="6.429" height="6.429"/>
    <rect x="247.58" y="97.373" width="6.429" height="6.429"/>
    <path d="M208.899,45.941h-12.751v15.001h15.001v-15.001h-2.25ZM208.899,58.692h-10.501v-10.501h10.501v10.501Z"/>
    <path d="M206.864,50.227v6.429h-6.429v-6.429h6.429Z"/>
    <path class="st2" d="M166.421,125.009c-.518,0-.914-.124-1.187-.373s-.409-.562-.409-.942c0-.184.031-.352.094-.503s.156-.287.279-.406h-1.488v-1.206h4.302v1.118h-.461c.194.155.325.296.393.425.092.174.138.367.138.578,0,.417-.159.739-.478.967s-.713.342-1.183.342M166.471,123.815c.252,0,.438-.049.556-.147s.178-.217.178-.358c0-.153-.06-.28-.179-.381s-.313-.153-.581-.153c-.247,0-.43.052-.549.155s-.179.235-.179.393c0,.139.057.255.172.349s.309.141.582.141M166.421,121c-.518,0-.914-.124-1.187-.373s-.409-.563-.409-.942c0-.184.031-.352.094-.503s.156-.287.279-.406h-1.488v-1.206h4.302v1.118h-.461c.194.155.325.297.393.426.092.174.138.367.138.578,0,.417-.159.739-.478.967s-.713.342-1.183.342M166.471,119.806c.252,0,.438-.049.556-.147s.178-.217.178-.358c0-.153-.06-.28-.179-.382s-.313-.153-.581-.153c-.247,0-.43.052-.549.156s-.179.235-.179.393c0,.139.057.255.172.349s.309.141.582.141M164.895,116.939v-1.121c.08-.045.141-.074.183-.088s.108-.027.198-.041c-.151-.157-.258-.312-.323-.467-.086-.211-.129-.457-.129-.736,0-.372.086-.654.258-.847s.384-.289.637-.289c.237,0,.432.069.584.208s.266.395.34.769c.09.448.153.738.189.871s.084.274.142.423c.147,0,.25-.03.308-.091s.088-.167.088-.32c0-.196-.031-.342-.094-.44-.049-.076-.141-.138-.276-.185l.12-1.141c.2.043.357.105.471.186s.214.198.298.351c.061.11.108.26.141.452s.05.399.05.622c0,.358-.02.646-.06.863s-.124.398-.251.543c-.088.102-.213.182-.374.24s-.315.088-.462.088h-1.376c-.147,0-.262.009-.345.028s-.189.059-.318.122M166.184,115.621h.191c-.059-.164-.11-.335-.155-.513-.065-.243-.128-.396-.191-.461-.065-.067-.138-.1-.22-.1-.094,0-.171.033-.231.098s-.089.162-.089.289c0,.133.032.257.097.371s.143.196.236.243.214.072.362.072M169.271,113.153l-4.446-1.08v-.605l4.446,1.074v.61ZM165.905,111.257c-.18,0-.355-.054-.525-.163s-.306-.28-.406-.513-.151-.552-.151-.955c0-.569.081-.975.243-1.216s.393-.397.693-.465l.112,1.186c-.141.049-.242.118-.302.206s-.091.205-.091.352c0,.16.034.285.103.373.051.068.115.103.191.103.086,0,.153-.045.2-.135.033-.065.074-.236.123-.514.072-.415.139-.703.201-.864s.166-.297.313-.408.314-.166.502-.166c.205,0,.383.06.531.179s.26.284.333.493.11.49.11.842c0,.372-.028.646-.085.823s-.145.325-.264.443-.281.217-.484.295l-.112-1.133c.1-.029.173-.078.22-.147.063-.094.094-.207.094-.34,0-.135-.024-.233-.072-.295s-.106-.093-.174-.093c-.076,0-.134.039-.173.117s-.074.248-.106.511c-.045.397-.108.693-.188.886s-.195.342-.343.445-.312.154-.49.154M166.157,107.606v-2.395c-.192.022-.335.073-.428.156-.135.115-.202.266-.202.452,0,.117.029.229.088.335.037.065.103.134.197.208l-.108,1.177c-.313-.18-.538-.397-.674-.652s-.204-.619-.204-1.095c0-.413.058-.738.175-.974s.301-.433.555-.588.551-.233.894-.233c.487,0,.882.156,1.183.468s.452.743.452,1.293c0,.446-.068.798-.203,1.056s-.331.455-.587.59-.59.203-1.001.203h-.135ZM166.729,106.391c.231-.023.396-.086.496-.186s.15-.233.15-.398c0-.19-.075-.341-.226-.455-.094-.072-.234-.118-.42-.138v1.177ZM164.93,103.427c-.196,0-.382-.042-.559-.125s-.32-.194-.43-.332-.189-.313-.238-.525-.073-.455-.073-.729c0-.626.094-1.056.282-1.29s.439-.351.754-.351c.039,0,.092.002.158.006l-.132,1.159c-.108.029-.182.075-.223.135-.061.088-.091.198-.091.332,0,.172.046.301.138.386s.252.128.481.128h.472c-.139-.117-.24-.235-.302-.352-.098-.184-.147-.383-.147-.596,0-.417.182-.753.546-1.01.258-.182.6-.273,1.024-.273.485,0,.855.117,1.109.352s.382.542.382.921c0,.243-.041.443-.123.6s-.218.305-.408.442h.461v1.118h-2.943l-.138.003ZM166.515,102.23c.227,0,.401-.053.521-.158s.181-.235.181-.387-.055-.274-.166-.365-.294-.137-.55-.137c-.225,0-.392.048-.501.144s-.163.222-.163.379c0,.149.056.273.169.374s.282.151.509.151M171.653,99.649c-.065-.295-.097-.571-.097-.828,0-.297.038-.517.115-.657s.192-.245.348-.312.407-.101.756-.101h1.097v-.44h.872v.44h.572l.613,1.197h-1.186v.657h-.872v-.657h-1.106c-.133,0-.221.013-.264.038-.067.039-.1.108-.1.205,0,.088.025.211.076.37l-.825.088ZM164.895,99.474v-1.121c.08-.045.141-.074.183-.088s.108-.028.198-.041c-.151-.157-.258-.312-.323-.467-.086-.211-.129-.457-.129-.736,0-.372.086-.654.258-.847s.384-.289.637-.289c.237,0,.432.07.584.208s.266.395.34.769c.09.448.153.739.189.872s.084.274.142.423c.147,0,.25-.03.308-.091s.088-.167.088-.32c0-.196-.031-.342-.094-.44-.049-.076-.141-.138-.276-.185l.12-1.141c.2.043.357.105.471.186s.214.198.298.351c.061.11.108.26.141.452s.05.399.05.622c0,.358-.02.646-.06.863s-.124.398-.251.543c-.088.102-.213.182-.374.241s-.315.088-.462.088h-1.376c-.147,0-.262.009-.345.028s-.189.059-.318.122M166.184,98.157h.191c-.059-.164-.11-.335-.155-.513-.065-.243-.128-.396-.191-.461-.065-.067-.138-.1-.22-.1-.094,0-.171.033-.231.098s-.089.162-.089.289c0,.133.032.257.097.371s.143.196.236.244.214.072.362.072M171.627,97.043v-1.121c.08-.045.141-.074.183-.088s.108-.027.198-.041c-.151-.157-.258-.312-.323-.467-.086-.211-.129-.457-.129-.737,0-.372.086-.654.258-.847s.384-.289.637-.289c.237,0,.432.069.584.208s.266.395.34.769c.09.448.153.739.189.872s.084.274.142.423c.147,0,.25-.03.308-.091s.088-.167.088-.32c0-.196-.031-.342-.094-.44-.049-.076-.141-.138-.276-.185l.12-1.141c.2.043.357.105.471.186s.214.198.298.351c.061.11.108.26.141.452s.05.399.05.622c0,.358-.02.646-.06.863s-.124.398-.251.543c-.088.102-.213.182-.374.241s-.315.088-.462.088h-1.376c-.147,0-.262.009-.345.028s-.189.059-.318.122M172.915,95.725h.191c-.059-.164-.11-.336-.155-.514-.065-.243-.128-.396-.191-.461-.065-.067-.138-.1-.22-.1-.094,0-.171.033-.231.098s-.089.162-.089.289c0,.133.032.257.097.371s.143.196.236.243.214.072.362.072M166.421,95.46c-.518,0-.914-.124-1.187-.373s-.409-.562-.409-.942c0-.184.031-.352.094-.503s.156-.287.279-.407h-1.488v-1.206h4.302v1.118h-.461c.194.155.325.296.393.425.092.174.138.367.138.578,0,.417-.159.739-.478.967s-.713.342-1.183.342M166.471,94.265c.252,0,.438-.049.556-.147s.178-.217.178-.358c0-.153-.06-.28-.179-.382s-.313-.153-.581-.153c-.247,0-.43.052-.549.156s-.179.235-.179.393c0,.139.057.255.172.349s.309.141.582.141M169.271,91.68l-4.446-1.08v-.605l4.446,1.074v.61ZM173.153,91.024c-.518,0-.914-.124-1.187-.373s-.409-.562-.409-.942c0-.184.031-.352.094-.503s.156-.287.279-.406h-1.488v-1.206h4.302v1.118h-.461c.194.155.325.296.393.425.092.174.138.367.138.578,0,.417-.159.739-.478.967s-.713.342-1.183.342M173.203,89.829c.252,0,.438-.049.556-.147s.178-.217.178-.358c0-.153-.06-.28-.179-.382s-.313-.153-.581-.153c-.247,0-.43.052-.549.156s-.179.235-.179.393c0,.139.057.255.172.349s.309.141.582.141M164.895,89.64v-1.197h1.775c.141,0,.246-.027.314-.082.108-.08.162-.18.162-.299,0-.141-.051-.254-.153-.34s-.265-.129-.49-.129h-1.608v-1.197h1.717c.137,0,.23-.008.279-.023.078-.025.141-.07.189-.132s.072-.136.072-.22c0-.137-.052-.249-.155-.337s-.274-.132-.511-.132h-1.591v-1.197h3.117v1.115h-.455c.19.16.325.322.405.486s.12.36.12.591c0,.248-.044.445-.132.59s-.219.263-.393.355c.203.188.342.359.415.513s.11.345.11.572c0,.335-.099.596-.298.784s-.509.282-.932.282h-1.958ZM173.153,87.015c-.518,0-.914-.124-1.187-.373s-.409-.562-.409-.942c0-.184.031-.352.094-.503s.156-.287.279-.406h-1.488v-1.206h4.302v1.118h-.461c.194.155.325.296.393.425.092.174.138.367.138.578,0,.417-.159.739-.478.967s-.713.342-1.183.342M173.203,85.821c.252,0,.438-.049.556-.147s.178-.217.178-.358c0-.153-.06-.28-.179-.382s-.313-.153-.581-.153c-.247,0-.43.052-.549.156s-.179.235-.179.393c0,.139.057.255.172.349s.309.141.582.141M166.462,83.768c-.479,0-.872-.159-1.178-.477s-.459-.757-.459-1.319c0-.501.127-.906.382-1.215.315-.38.728-.569,1.238-.569.475,0,.867.16,1.175.481s.462.754.462,1.3c0,.624-.181,1.096-.543,1.415-.292.256-.65.385-1.077.385M171.627,82.953v-1.121c.08-.045.141-.074.183-.088s.108-.027.198-.041c-.151-.157-.258-.312-.323-.467-.086-.211-.129-.457-.129-.736,0-.372.086-.654.258-.847s.384-.289.637-.289c.237,0,.432.07.584.208s.266.395.34.769c.09.448.153.738.189.871s.084.274.142.423c.147,0,.25-.03.308-.091s.088-.167.088-.32c0-.196-.031-.342-.094-.44-.049-.076-.141-.138-.276-.185l.12-1.142c.2.043.357.105.471.186s.214.198.298.351c.061.11.108.26.141.452s.05.399.05.622c0,.358-.02.646-.06.863s-.124.398-.251.543c-.088.102-.213.182-.374.241s-.315.088-.462.088h-1.376c-.147,0-.262.009-.345.028s-.189.059-.318.122M166.459,82.567c.27,0,.471-.056.603-.167s.198-.249.198-.414c0-.174-.067-.318-.201-.432s-.338-.17-.612-.17c-.278,0-.483.056-.616.169s-.2.254-.2.424c0,.172.065.314.197.424s.341.166.631.166M172.915,81.636h.191c-.059-.164-.11-.335-.155-.513-.065-.243-.128-.396-.191-.461-.065-.067-.138-.1-.22-.1-.094,0-.171.033-.231.098s-.089.162-.089.289c0,.133.032.257.097.371s.143.196.236.244.214.072.362.072M165.984,79.785c-.237-.063-.442-.165-.615-.308s-.308-.325-.404-.547-.144-.504-.144-.847c0-.331.031-.606.092-.826s.161-.409.299-.568.3-.283.486-.373.432-.135.74-.135c.321,0,.588.055.801.164.157.08.297.19.421.329s.217.282.277.428c.096.233.144.531.144.895,0,.509-.091.897-.273,1.164s-.448.454-.798.562l-.15-1.124c.133-.035.233-.099.301-.192s.101-.218.101-.374c0-.198-.071-.357-.213-.48s-.356-.183-.644-.183c-.256,0-.451.06-.584.182s-.2.276-.2.464c0,.157.04.288.12.395s.204.186.37.239l-.129,1.136ZM172.889,76.958v-2.395c-.192.022-.335.073-.428.156-.135.115-.202.266-.202.452,0,.117.029.229.088.335.037.065.103.134.197.208l-.108,1.177c-.313-.18-.538-.397-.674-.652s-.204-.619-.204-1.095c0-.413.058-.738.175-.974s.301-.433.555-.588.551-.233.894-.233c.487,0,.882.156,1.183.468s.452.743.452,1.293c0,.446-.068.798-.203,1.056s-.331.455-.587.59-.59.202-1.001.202h-.135ZM173.461,75.743c.231-.023.396-.086.496-.186s.15-.233.15-.397c0-.19-.075-.342-.226-.455-.094-.072-.234-.118-.42-.138v1.177ZM164.895,75.603v-1.276h1.197v1.276h-1.197ZM167.918,74.585l-.851-.37c.059-.141.088-.252.088-.335,0-.157-.065-.278-.194-.364-.182-.123-.522-.185-1.021-.185h-1.045v-1.2h3.117v1.118h-.511c.221.108.373.218.456.333s.125.256.125.424c0,.176-.055.369-.164.578M171.627,72.785v-1.2h1.714c.196,0,.334-.036.415-.109s.122-.174.122-.305c0-.145-.055-.262-.164-.352s-.306-.135-.59-.135h-1.497v-1.194h4.302v1.194h-1.585c.168.162.288.324.361.484s.109.35.109.569c0,.325-.099.58-.297.767s-.501.28-.91.28h-1.981ZM166.157,71.571v-2.395c-.192.022-.335.073-.428.155-.135.115-.202.266-.202.452,0,.117.029.229.088.335.037.065.103.134.197.208l-.108,1.177c-.313-.18-.538-.397-.674-.652s-.204-.619-.204-1.095c0-.413.058-.738.175-.974s.301-.433.555-.588.551-.233.894-.233c.487,0,.882.156,1.183.468s.452.743.452,1.293c0,.446-.068.798-.203,1.056s-.331.455-.587.59-.59.203-1.001.203h-.135ZM166.729,70.356c.231-.023.396-.085.496-.186s.15-.233.15-.398c0-.19-.075-.341-.226-.455-.094-.072-.234-.118-.42-.138v1.177ZM171.653,68.964c-.065-.295-.097-.571-.097-.828,0-.297.038-.517.115-.657s.192-.245.348-.312.407-.101.756-.101h1.097v-.44h.872v.44h.572l.613,1.197h-1.186v.657h-.872v-.657h-1.106c-.133,0-.221.013-.264.038-.067.039-.1.108-.1.205,0,.088.025.211.076.37l-.825.088ZM164.921,67.586c-.065-.295-.097-.571-.097-.827,0-.297.038-.517.115-.657s.192-.245.348-.313.408-.101.756-.101h1.097v-.44h.872v.44h.572l.613,1.197h-1.186v.657h-.872v-.657h-1.106c-.133,0-.221.013-.264.038-.067.039-.1.107-.1.205,0,.088.025.212.076.37l-.825.088ZM166.157,64.895v-2.395c-.192.022-.335.073-.428.155-.135.115-.202.266-.202.452,0,.117.029.229.088.334.037.065.103.134.197.208l-.108,1.177c-.313-.18-.538-.397-.674-.651s-.204-.619-.204-1.095c0-.413.058-.738.175-.974s.301-.433.555-.588.551-.233.894-.233c.487,0,.882.156,1.183.468s.452.743.452,1.293c0,.446-.068.798-.203,1.056s-.331.455-.587.59-.59.202-1.001.202h-.135ZM171.653,64.291c-.065-.295-.097-.571-.097-.828,0-.297.038-.517.115-.657s.192-.245.348-.312.407-.101.756-.101h1.097v-.44h.872v.44h.572l.613,1.197h-1.186v.657h-.872v-.657h-1.106c-.133,0-.221.013-.264.038-.067.039-.1.108-.1.205,0,.088.025.211.076.37l-.825.088ZM166.729,63.68c.231-.023.396-.086.496-.186s.15-.233.15-.397c0-.19-.075-.342-.226-.455-.094-.072-.234-.118-.42-.138v1.177ZM172.889,61.6v-2.395c-.192.022-.335.073-.428.155-.135.115-.202.266-.202.452,0,.117.029.229.088.335.037.065.103.134.197.208l-.108,1.177c-.313-.18-.538-.397-.674-.652s-.204-.619-.204-1.095c0-.413.058-.738.175-.974s.301-.433.555-.588.551-.233.894-.233c.487,0,.882.156,1.183.468s.452.743.452,1.293c0,.446-.068.798-.203,1.056s-.331.455-.587.59-.59.203-1.001.203h-.135ZM164.895,60.721v-1.197h1.775c.141,0,.246-.027.314-.082.108-.08.162-.18.162-.299,0-.141-.051-.254-.153-.34s-.265-.129-.49-.129h-1.608v-1.197h1.717c.137,0,.23-.008.279-.023.078-.025.141-.069.189-.132s.072-.136.072-.22c0-.137-.052-.25-.155-.338s-.274-.132-.511-.132h-1.591v-1.197h3.117v1.115h-.455c.19.16.325.322.405.486s.12.361.12.591c0,.248-.044.445-.132.59s-.219.263-.393.355c.203.188.342.359.415.514s.11.345.11.572c0,.335-.099.596-.298.783s-.509.282-.932.282h-1.958ZM173.461,60.385c.231-.023.396-.086.496-.186s.15-.233.15-.398c0-.19-.075-.341-.226-.455-.094-.072-.234-.118-.42-.138v1.177ZM172.246,57.43c-.268-.393-.451-.741-.548-1.043s-.145-.661-.145-1.076c0-.511.087-.927.261-1.249s.433-.571.778-.748.74-.266,1.186-.266c.47,0,.878.097,1.225.29s.611.477.791.851c.139.292.208.684.208,1.177,0,.475-.043.831-.129,1.067s-.22.431-.401.587-.41.273-.688.351l-.229-1.282c.162-.053.287-.142.373-.269s.129-.287.129-.483c0-.292-.101-.524-.304-.697s-.523-.26-.961-.26c-.466,0-.798.088-.998.263s-.299.419-.299.732c0,.149.022.291.065.426s.116.29.22.464h.405v-.889h.895v2.054h-1.834ZM166.462,54.849c-.479,0-.872-.159-1.178-.477s-.459-.758-.459-1.319c0-.501.127-.906.382-1.215.315-.38.728-.57,1.238-.57.475,0,.867.16,1.175.481s.462.754.462,1.3c0,.624-.181,1.096-.543,1.415-.292.256-.65.384-1.077.384M166.459,53.649c.27,0,.471-.056.603-.167s.198-.25.198-.414c0-.174-.067-.318-.201-.431s-.338-.17-.612-.17c-.278,0-.483.056-.616.169s-.2.254-.2.424c0,.172.065.313.197.424s.341.166.631.166M167.918,51.116l-.851-.37c.059-.141.088-.253.088-.335,0-.157-.065-.278-.194-.364-.182-.123-.522-.185-1.021-.185h-1.045v-1.2h3.117v1.118h-.511c.221.108.373.219.456.333s.125.256.125.424c0,.176-.055.369-.164.578M164.895,47.923v-1.118h.461c-.196-.157-.328-.299-.396-.428-.09-.172-.135-.364-.135-.575,0-.425.161-.749.484-.973s.715-.336,1.177-.336c.517,0,.912.124,1.186.371s.411.562.411.944c0,.186-.031.355-.094.506s-.157.286-.282.404h1.491v1.206h-4.302ZM166.462,46.726c.245,0,.427-.052.547-.155s.181-.235.181-.393c0-.139-.058-.255-.173-.349s-.309-.141-.581-.141c-.254,0-.441.048-.559.145s-.177.217-.177.36c0,.153.06.28.179.381s.314.153.584.153M168.012,44.404l-3.331-1.236c-.38-.141-.636-.285-.769-.431-.188-.207-.282-.523-.282-.948,0-.172.023-.438.07-.798l.833-.094c-.055.172-.082.364-.082.575,0,.141.032.255.097.342s.18.161.346.222l3.117-1.309v1.262l-2.075.643,2.075.596v1.177ZM164.895,40.36v-1.2h1.714c.196,0,.334-.036.415-.109s.122-.174.122-.305c0-.145-.055-.262-.164-.352s-.306-.135-.59-.135h-1.497v-1.195h4.302v1.195h-1.585c.168.162.288.324.361.484s.109.35.109.57c0,.325-.099.58-.297.767s-.501.28-.91.28h-1.981ZM164.921,36.539c-.065-.295-.097-.571-.097-.828,0-.297.038-.517.115-.657s.192-.245.348-.312.408-.101.756-.101h1.097v-.44h.872v.44h.572l.613,1.197h-1.186v.657h-.872v-.657h-1.106c-.133,0-.221.013-.264.038-.067.039-.1.108-.1.205,0,.088.025.211.076.37l-.825.088ZM164.895,33.634v-1.197h4.302v1.197h-4.302ZM164.895,31.633v-1.194h3.117v1.194h-3.117ZM168.384,31.633v-1.194h.813v1.194h-.813ZM164.921,29.869c-.065-.295-.097-.571-.097-.827,0-.297.038-.517.115-.657s.192-.245.348-.313.408-.101.756-.101h1.097v-.44h.872v.44h.572l.613,1.197h-1.186v.657h-.872v-.657h-1.106c-.133,0-.221.013-.264.038-.067.039-.1.107-.1.205,0,.088.025.212.076.37l-.825.088ZM284.406,110.046l-.719-.255c.09-.139.135-.268.135-.387,0-.115-.032-.213-.095-.293s-.179-.143-.345-.189-.515-.069-1.045-.069h-.963v-.825h3.117v.766h-.443c.209.131.347.249.414.354s.1.224.1.357c0,.188-.052.369-.156.543M282.812,107.391c-.038,0-.077,0-.117,0v-2.066c-.245.006-.435.072-.571.2s-.204.286-.204.475c0,.129.035.238.106.326s.184.155.34.2l-.138.822c-.301-.106-.531-.272-.688-.5s-.236-.513-.236-.856c0-.542.177-.943.531-1.203.284-.205.642-.308,1.074-.308.517,0,.921.135,1.213.405s.439.611.439,1.024c0,.464-.153.83-.459,1.098-.287.251-.717.38-1.291.385M283.2,106.571c.239-.006.42-.067.544-.185s.186-.26.186-.428c0-.18-.066-.329-.197-.446s-.309-.175-.534-.173v1.233ZM281.428,104.215c-.082-.192-.123-.409-.123-.652,0-.149.025-.283.075-.402s.114-.207.194-.263.186-.094.321-.116c.096-.018.29-.027.581-.027h1.359v-.378h.657v.378h.619l.481.828h-1.1v.563h-.657v-.563h-1.256c-.254,0-.403.005-.445.016s-.077.035-.104.073-.041.085-.041.139c0,.076.027.187.079.332l-.64.07ZM282.951,102.064c-.52,0-.925-.127-1.213-.382s-.433-.562-.433-.924c0-.172.034-.328.103-.468s.186-.287.352-.442h-1.57v-.825h4.302v.769h-.458c.157.1.284.235.382.405s.147.359.147.567c0,.362-.142.669-.426.922s-.679.378-1.186.378M282.945,101.224c.327,0,.569-.065.728-.197s.238-.293.238-.487c0-.202-.078-.369-.233-.502s-.386-.2-.691-.2c-.35,0-.609.07-.776.208s-.251.308-.251.508c0,.192.077.351.23.478s.406.191.756.191M281.375,98.413v-.816c.055-.022.136-.048.244-.079.049-.014.081-.023.097-.029-.137-.141-.24-.292-.308-.452s-.103-.332-.103-.514c0-.321.087-.574.261-.759s.394-.277.66-.277c.176,0,.333.042.471.126s.244.202.317.354.137.37.192.656c.072.385.14.653.202.801h.082c.158,0,.272-.039.339-.117s.101-.226.101-.443c0-.147-.029-.261-.087-.343s-.159-.149-.304-.2l.135-.748c.301.084.524.229.669.434s.217.511.217.916c0,.368-.043.642-.131.822s-.198.307-.332.38-.38.11-.738.11l-.963-.009c-.274,0-.476.013-.606.04s-.269.076-.418.148M282.707,97.424h.164c-.035-.106-.077-.273-.126-.502s-.097-.378-.144-.449c-.076-.108-.173-.162-.29-.162-.115,0-.215.043-.3.129s-.126.196-.126.329c0,.149.049.291.147.426.074.1.165.165.273.197.07.022.205.032.402.032M281.375,94.891v-.766h.458c-.178-.127-.311-.277-.398-.451s-.131-.348-.131-.524c0-.358.144-.665.433-.92s.691-.383,1.208-.383c.528,0,.93.124,1.205.373s.412.563.412.942c0,.348-.145.65-.434.904h1.55v.825h-4.302ZM282.921,94.069c.358,0,.616-.065.773-.194s.236-.294.236-.496c0-.196-.078-.36-.233-.492s-.388-.198-.697-.198c-.333,0-.573.046-.722.138-.215.133-.323.319-.323.558,0,.19.081.351.242.484s.403.2.724.2M280.095,92.097l-2.498-1.582h-1.805v-.866h1.811l2.492-1.576v1.018l-1.702,1.013,1.702.992v1.001ZM281.375,91.578v-.945l.977-.376v-1.72l-.977-.355v-.922l4.302,1.676v.918l-4.302,1.723ZM283.077,89.978l1.596-.593-1.596-.581v1.174ZM275.793,88.273v-1.039l.936-.628c.335-.223.545-.376.632-.458.087-.082.147-.169.179-.261s.048-.238.048-.437v-.176h-1.796v-.869h4.302v1.828c0,.46-.039.794-.116,1.002-.077.208-.215.375-.412.5-.198.125-.424.188-.678.188-.323,0-.589-.095-.8-.285-.21-.19-.343-.473-.398-.851-.11.188-.23.343-.361.465-.131.122-.364.287-.698.494l-.839.525ZM278.833,87.029c.145,0,.262-.039.351-.116.089-.077.145-.186.169-.327.01-.07.015-.282.015-.634v-.678h-1.092v.643c0,.417.018.677.053.781s.096.185.182.244c.086.059.194.088.323.088M281.375,85.4v-.825h3.117v.825h-3.117ZM284.914,85.4v-.825h.763v.825h-.763ZM284.949,83.866v-2.081h-1.018v1.796h-.728v-1.796h-1.828v-.869h4.302v2.95h-.728ZM277.903,83.666c-.354,0-.659-.044-.916-.132-.313-.108-.566-.261-.76-.461-.147-.151-.261-.354-.343-.61-.061-.192-.091-.448-.091-.769v-1.635h4.302v1.588c0,.358-.027.631-.082.819-.074.252-.207.469-.396.649-.19.18-.422.317-.697.411s-.614.141-1.017.141M277.941,82.768c.333,0,.588-.029.766-.088.178-.059.317-.141.417-.247s.167-.24.203-.402c.027-.121.041-.359.041-.713v-.39h-2.85v.649c0,.243.014.418.041.525.035.141.095.258.179.351.084.093.223.169.415.227.193.059.455.088.788.088M281.375,80.059v-.825h3.117v.825h-3.117ZM284.914,80.059v-.825h.763v.825h-.763ZM285.677,78.85l-4.302-1.045v-.922l3.216-.857-3.216-.854v-.942l4.302-1.027v.889l-2.955.648,2.955.787v1.033l-3.005.754,3.005.66v.875ZM278.772,77.788c-.264,0-.486-.048-.666-.144-.18-.096-.321-.218-.424-.365s-.171-.298-.204-.451c-.041-.207-.062-.508-.062-.901v-.566h-1.623v-.869h4.302v1.394c0,.528-.022.873-.065,1.033-.065.247-.205.453-.421.619-.216.166-.496.249-.838.249M278.76,76.893c.157,0,.286-.046.387-.138.102-.092.165-.208.191-.349.02-.104.029-.312.029-.625v-.42h-1.221v.475c0,.342.022.571.067.687.045.115.115.206.211.271.096.066.207.098.335.098M275.793,73.755v-3.272h4.302v3.19h-.728v-2.321h-.954v2.16h-.725v-2.16h-1.171v2.403h-.725ZM282.942,71.299c-.472,0-.862-.152-1.172-.456s-.465-.687-.465-1.149c0-.286.065-.558.194-.817s.318-.456.568-.591.553-.202.911-.202c.274,0,.539.067.795.202s.452.326.587.574.203.524.203.829c0,.472-.153.858-.459,1.159s-.693.452-1.161.452M282.939,70.451c.305,0,.54-.073.704-.219s.247-.326.247-.541-.082-.396-.247-.543-.401-.22-.71-.22-.546.073-.71.22-.247.328-.247.543.082.396.247.541.403.219.716.219M275.793,69.746v-3.272h4.302v3.19h-.728v-2.321h-.954v2.16h-.725v-2.16h-1.171v2.403h-.725ZM282.431,67.689c-.372-.084-.653-.246-.842-.484s-.285-.558-.285-.96c0-.456.144-.819.432-1.09s.686-.406,1.194-.406c.515,0,.915.136,1.202.408s.43.64.43,1.103c0,.38-.082.681-.245.905s-.412.385-.747.483l-.147-.813c.162-.027.285-.09.367-.186s.123-.222.123-.377c0-.205-.071-.369-.213-.492s-.379-.183-.712-.183c-.37,0-.631.062-.783.186s-.229.291-.229.5c0,.157.045.285.134.385s.242.17.459.211l-.138.81ZM275.793,66.025v-1.124l2.019-1.183-.719-.704h-1.3v-.869h4.302v.869h-1.911l1.911,1.755v1.168l-1.676-1.62-2.626,1.708ZM281.375,64.086v-.825h3.117v.825h-3.117ZM284.914,64.086v-.825h.763v.825h-.763ZM284.354,62.554c-.264,0-.486-.048-.666-.144s-.321-.218-.424-.365-.171-.298-.204-.451c-.041-.207-.062-.508-.062-.901v-.567h-1.623v-.869h4.302v1.394c0,.528-.022.873-.065,1.033-.065.247-.205.453-.421.619s-.495.25-.838.25M284.342,61.658c.157,0,.286-.046.387-.138s.165-.208.191-.349c.02-.104.029-.312.029-.625v-.42h-1.221v.475c0,.342.022.571.067.687s.115.206.211.272.208.098.335.098M285.765,54.944c0,.385-.096.755-.289,1.109s-.469.632-.829.835-.737.304-1.13.304-.764-.099-1.12-.298-.632-.475-.831-.831-.298-.728-.298-1.12.099-.764.298-1.12.475-.632.831-.831.728-.298,1.12-.298c.393,0,.77.101,1.13.304s.636.481.829.835.289.724.289,1.109M285.325,54.947c0-.309-.077-.606-.232-.889s-.377-.507-.666-.671-.593-.245-.91-.245c-.315,0-.615.08-.901.239s-.509.382-.669.668-.241.585-.241.898c0,.315.08.615.241.899s.383.507.669.668.586.241.901.241c.317,0,.62-.082.91-.245s.512-.387.666-.672.232-.582.232-.891M282.314,53.928h2.386v.484c0,.454-.002.708-.006.763-.014.16-.045.285-.095.374s-.126.163-.229.223-.217.09-.342.09c-.172,0-.319-.056-.442-.169s-.198-.27-.227-.474c-.027.072-.057.128-.09.167s-.093.093-.183.161c-.023.018-.12.076-.291.176l-.481.282v-.599l.387-.2c.26-.135.424-.247.492-.335s.101-.2.101-.335v-.126h-.98v-.484ZM283.67,54.413v.197c0,.28.011.453.032.521s.059.121.113.16.115.059.183.059c.067,0,.126-.019.178-.057s.089-.092.112-.163.034-.244.034-.519v-.197h-.652ZM284.491,52.581h-.657v-.563h-1.256c-.254,0-.403.005-.445.016s-.077.035-.104.073-.041.085-.041.139c0,.076.026.187.079.332l-.64.07c-.082-.192-.123-.409-.123-.652,0-.149.025-.283.075-.402s.114-.207.194-.263.186-.094.321-.116c.096-.018.29-.026.581-.026h1.359v-.379h.657v.379h.619l.481.828h-1.101v.563ZM281.375,49.482h4.302v.825h-4.302v-.825ZM284.914,47.812h.763v.825h-.763v-.825ZM281.375,47.812h3.117v.825h-3.117v-.825ZM281.375,45.224h3.574v-1.277h.728v3.419h-.728v-1.274h-3.574v-.869Z"/>
    <path class="st1" d="M274.062,119.56l-.028.327-.173.639-.085.318-.278.599-.139.298-.378.54-.19.273-.466.466-.233.233-.543.378-.27.19-.6.278-.298.139-.636.173-.321.085-.656.057-.33.028-.659-.057-.327-.028-.639-.173-.318-.085-.6-.278-.298-.139-.54-.378-.273-.19-.466-.466-.233-.233-.378-.542-.19-.27-.278-.599-.139-.298-.173-.636-.085-.321-.057-.656-.028-.329.057-.659.028-.327.173-.639.085-.318.278-.599.139-.298.378-.54.19-.273.466-.466.233-.233.543-.378.27-.19.6-.278.298-.139.636-.173.321-.085.656-.057.33-.028.659.057.327.028.639.173.318.085.6.278.298.139.54.378.273.19.466.466.233.233.378.542.19.27.278.599.139.298.173.636.085.321.057.656.028.329-.057.659ZM264.083,30.065l-.19.273-.378.54-.139.298-.278.599-.085.318-.173.639-.028.327-.057.659.028.329.057.656.085.321.173.636.139.298.278.599.19.27.378.542.233.233.466.466.273.19.54.378.298.139.6.278.318.085.639.173.327.028.659.057.33-.028.656-.057.321-.085.636-.173.298-.139.6-.278.27-.19.543-.378.233-.233.466-.466.19-.273.378-.54.139-.298.278-.599.085-.318.173-.639.028-.327.057-.659-.028-.329-.057-.656-.085-.321-.173-.636-.139-.298-.278-.599-.19-.27-.378-.542-.233-.233-.466-.466-.273-.19-.54-.378-.298-.139-.6-.278-.318-.085-.639-.173-.327-.028-.659-.057-.33.028-.656.057-.321.085-.636.173-.298.139-.6.278-.27.19-.543.378-.233.233-.466.466ZM187.835,30.065l.378.542.19.27.278.599.139.298.173.636.085.321.057.656.028.329-.057.659-.028.327-.173.639-.085.318-.278.599-.139.298-.378.54-.19.273-.466.466-.233.233-.543.378-.27.19-.6.278-.298.139-.636.173-.321.085-.656.057-.33.028-.659-.057-.327-.028-.639-.173-.318-.085-.6-.278-.298-.139-.54-.378-.273-.19-.466-.466-.233-.233-.378-.542-.19-.27-.278-.599-.139-.298-.173-.636-.085-.321-.057-.656-.028-.329.057-.659.028-.327.173-.639.085-.318.278-.599.139-.298.378-.54.19-.273.466-.466.233-.233.543-.378.27-.19.6-.278.298-.139.636-.173.321-.085.656-.057.33-.028.659.057.327.028.639.173.318.085.6.278.298.139.54.378.273.19.466.466.233.233ZM316.033,97.614l.128.284.037.151.077.301.011.156.023.309-.014.156-.031.309-.043.148-.082.301-.068.139-.134.281-.088.128-.182.253-.111.111-.222.219-.128.088-.256.176-.142.065-.281.131-.151.04-.301.08-.153.014-.313.028h-14.275v14.226l-.193,2.964-.099,1.482-.58,2.916-.29,1.457-.955,2.814-.477,1.406-1.316,2.666-.659,1.332-1.651,2.47-.827,1.235-.98,1.119-1.96,2.232-1.117.98-2.236,1.959-2.472,1.653-1.236.823-2.668,1.315-1.333.659-2.816.954-1.406.477-2.918.579-1.458.29-2.966.196-1.483.097h-78.845l-2.966-.193-1.483-.099-2.918-.579-1.458-.29-2.816-.954-1.406-.477-2.668-1.315-1.333-.659-2.472-1.65-1.236-.826-1.12-.98-2.233-1.959-.98-1.116-1.96-2.235-1.654-2.47-.824-1.235-1.316-2.666-.659-1.332-.955-2.814-.477-1.406-.58-2.916-.29-1.457-.196-2.964-.097-1.482V36.911l.193-2.964.099-1.482.58-2.916.29-1.457.955-2.814.477-1.406,1.316-2.666.659-1.332,1.651-2.47.827-1.235.98-1.119,1.96-2.232,1.117-.98,2.236-1.959,2.472-1.653,1.236-.823,2.668-1.315,1.333-.659,2.816-.954,1.406-.477,2.918-.579,1.458-.29,2.966-.196,1.483-.097h78.845l2.966.193,1.483.099,2.918.579,1.458.29,2.816.954,1.406.477,2.668,1.315,1.333.659,2.472,1.65,1.236.826,1.12.98,2.233,1.959.98,1.116,1.96,2.235,1.654,2.47.824,1.235,1.316,2.666.659,1.332.955,2.814.477,1.406.58,2.916.29,1.457.196,2.964.097,1.482v14.226h19.417l.742.065.369.034.722.19.358.097.676.315.338.159.608.426.307.213.526.528.264.261.426.611.213.304.315.676.159.338.19.718.097.361.065.741.034.369v36.672l-.017.193-.031.389-.048.187-.094.375-.077.179-.156.355-.105.162-.21.327-.131.145-.261.287-.151.119-.307.241-.168.094-.341.187-.182.062-.367.131-.19.034-.384.068-.193.003-.389.003-.19-.028-.384-.06-.185-.06-.369-.119-.17-.091-.344-.179-.156-.116-.31-.233-.134-.139-.27-.281-2.085-2.573-4.171-5.151.619-.199.31-.099.577-.304.29-.15.52-.392.259-.196.446-.474.224-.239.358-.542.182-.27.264-.596.134-.295.162-.63.082-.315.054-.65.026-.324v-13.482l-.06-.676-.028-.338-.176-.653-.088-.327-.284-.616-.145-.307-.389-.554-.193-.278-.48-.48-.239-.239-.557-.389-.276-.193-.617-.287-.307-.142-.653-.176-.327-.088-.676-.06-.338-.028h-11.931v25.141h9.726l2.216,2.734,4.432,5.472.085.128.176.258.063.142ZM183.482,113.223l-.33.028-.656.057-.321.085-.636.173-.298.139-.6.278-.27.19-.543.378-.233.233-.466.466-.19.273-.378.54-.139.298-.278.599-.085.318-.173.639-.028.327-.057.659.028.329.057.656.085.321.173.636.139.298.278.599.19.27.378.542.233.233.466.466.273.19.54.378.298.139.6.278.318.085.639.173.327.028.659.057.33-.028.656-.057.321-.085.636-.173.298-.139.6-.278.27-.19.543-.378.233-.233.466-.466.19-.273.378-.54.139-.298.278-.599.085-.318.173-.639.028-.327.057-.659-.028-.329-.057-.656-.085-.321-.173-.636-.139-.298-.278-.599-.19-.27-.378-.542-.233-.233-.466-.466-.273-.19-.54-.378-.298-.139-.6-.278-.318-.085-.639-.173-.327-.028-.659-.057Z"/>
  </g>
</svg>