<?xml version="1.0" encoding="UTF-8"?>
<!-- Generated by Pixelmator Pro 3.2.3 -->
<svg width="1222" height="1222" viewBox="0 0 1222 1222" xmlns="http://www.w3.org/2000/svg" xmlns:xlink="http://www.w3.org/1999/xlink">
    <g id="g10-copy">
        <g id="g24">
            <path id="path26" fill="#000000" stroke="none" d="M 243.224442 503.410278 L 185.170486 498.487549 C 185.170486 498.487549 263.489075 485.237854 214.186951 419.365723 L 262.399841 451.944336 L 243.224442 503.410278 Z"/>
        </g>
        <g id="g28">
            <path id="path30" fill="#000000" stroke="none" d="M 283.93161 411.185852 L 229.216888 391.182007 C 229.216888 391.182007 308.277771 398.983337 278.010132 322.477295 L 315.961395 366.575073 L 283.93161 411.185852 Z"/>
        </g>
        <g id="g32">
            <path id="path34" fill="#000000" stroke="none" d="M 345.772919 334.490234 L 298.049988 301.089417 C 298.049988 301.089417 372.440552 328.968262 362.872833 247.238892 L 388.207306 299.625854 L 345.772919 334.490234 Z"/>
        </g>
        <g id="g36">
            <path id="path38" fill="#000000" stroke="none" d="M 426.926514 275.384827 L 389.606079 230.654175 C 389.606079 230.654175 454.09671 277.018677 466.271912 195.632202 L 477.008759 252.842896 L 426.926514 275.384827 Z"/>
        </g>
        <g id="g40">
            <path id="path42" fill="#000000" stroke="none" d="M 519.398804 239.372986 L 494.85498 186.557129 C 494.85498 186.557129 545.237915 247.94397 577.940613 172.434692 L 573.592041 230.47821 L 519.398804 239.372986 Z"/>
        </g>
        <g id="g44">
            <path id="path46" fill="#000000" stroke="none" d="M 618.703918 228.378967 L 608.654663 171 C 608.654663 171 641.426697 243.369751 692.570923 178.893921 L 673.355591 233.820984 L 618.703918 228.378967 Z"/>
        </g>
        <g id="g48">
            <path id="path50" fill="#000000" stroke="none" d="M 717.519714 243.507935 L 722.692627 185.489624 C 722.692627 185.489624 735.597412 263.856689 801.700928 214.844727 L 768.893127 262.918823 L 717.519714 243.507935 Z"/>
        </g>
        <g id="g52">
            <path id="path54" fill="#000000" stroke="none" d="M 810.957642 284.878723 L 831.308472 230.307007 C 831.308472 230.307007 822.981384 309.287964 899.724976 279.522888 L 855.351868 317.202881 L 810.957642 284.878723 Z"/>
        </g>
        <g id="g56">
            <path id="path58" fill="#000000" stroke="none" d="M 887.211914 346.469421 L 920.776733 298.851563 C 920.776733 298.851563 892.651855 373.134888 974.41272 363.840576 L 921.943787 389.008911 L 887.211914 346.469421 Z"/>
        </g>
        <g id="g60">
            <path id="path62" fill="#000000" stroke="none" d="M 945.839966 426.357056 L 990.501221 388.96936 C 990.501221 388.96936 944.246033 453.512634 1025.645264 465.56366 L 968.470215 476.390991 L 945.839966 426.357056 Z"/>
        </g>
        <g id="g64">
            <path id="path66" fill="#000000" stroke="none" d="M 981.974365 518.629028 L 1034.731445 493.971619 C 1034.731445 493.971619 973.449646 544.46814 1049.017822 577.015198 L 990.989075 572.784363 L 981.974365 518.629028 Z"/>
        </g>
        <g id="g68">
            <path id="path70" fill="#000000" stroke="none" d="M 993.149658 618.311768 L 1050.522339 608.201538 C 1050.522339 608.201538 978.205078 641.040894 1042.737793 692.124084 L 987.789673 672.959229 L 993.149658 618.311768 Z"/>
        </g>
        <g id="g72">
            <path id="path74" fill="#000000" stroke="none" d="M 978.111572 717.250977 L 1036.135986 722.398682 C 1036.135986 722.398682 957.777466 735.32666 1006.827271 801.394409 L 958.738464 768.643311 L 978.111572 717.250977 Z"/>
        </g>
        <g id="g76">
            <path id="path78" fill="#000000" stroke="none" d="M 937.46936 809.537598 L 992.175659 829.539429 C 992.175659 829.539429 913.137939 821.719116 943.378235 898.252441 L 905.445862 854.127441 L 937.46936 809.537598 Z"/>
        </g>
        <g id="g80">
            <path id="path82" fill="#000000" stroke="none" d="M 874.98584 887.430176 L 922.712952 920.828918 C 922.712952 920.828918 848.34552 892.958496 857.898499 974.687805 L 832.566162 922.290344 L 874.98584 887.430176 Z"/>
        </g>
        <g id="g84">
            <path id="path86" fill="#000000" stroke="none" d="M 795.034485 946.40625 L 832.632385 990.901367 C 832.632385 990.901367 767.874695 944.946899 756.21051 1026.394531 L 745.11615 969.278381 L 795.034485 946.40625 Z"/>
        </g>
        <g id="g88">
            <path id="path90" fill="#000000" stroke="none" d="M 702.664124 982.982483 L 727.657959 1035.613281 C 727.657959 1035.613281 676.778748 974.625977 644.677429 1050.387573 L 648.563416 992.327271 L 702.664124 982.982483 Z"/>
        </g>
        <g id="g92">
            <path id="path94" fill="#000000" stroke="none" d="M 602.143555 994.69043 L 612.562927 1052 C 612.562927 1052 579.319824 979.882568 528.596191 1044.673828 L 547.470886 989.620605 L 602.143555 994.69043 Z"/>
        </g>
        <g id="g96">
            <path id="path98" fill="#000000" stroke="none" d="M 502.257233 978.572937 L 497.500732 1036.626953 C 497.500732 1036.626953 484.053345 958.362915 418.290527 1007.827026 L 450.747162 959.536316 L 502.257233 978.572937 Z"/>
        </g>
        <g id="g100">
            <path id="path102" fill="#000000" stroke="none" d="M 412.489563 939.343811 L 392.834717 994.180481 C 392.834717 994.180481 400.120911 915.111206 323.789459 945.843506 L 367.670593 907.608398 L 412.489563 939.343811 Z"/>
        </g>
        <g id="g104">
            <path id="path106" fill="#000000" stroke="none" d="M 333.125244 876.808777 L 299.854797 924.61792 C 299.854797 924.61792 327.521271 850.179016 245.823502 859.931763 L 298.157867 834.475342 L 333.125244 876.808777 Z"/>
        </g>
        <g id="g108">
            <path id="path110" fill="#000000" stroke="none" d="M 275.966003 795.830383 L 231.468765 833.401001 C 231.468765 833.401001 277.448486 768.662231 195.992508 756.953857 L 253.125458 745.8974 L 275.966003 795.830383 Z"/>
        </g>
        <g id="g112">
            <path id="path114" fill="#000000" stroke="none" d="M 238.555405 701.302612 L 185.741592 725.867432 C 185.741592 725.867432 247.122177 675.471863 171.608719 642.786011 L 229.639542 647.121948 L 238.555405 701.302612 Z"/>
        </g>
        <g id="g116">
            <path id="path118" fill="#000000" stroke="none" d="M 227.08844 601.997253 L 169.728394 612.082214 C 169.728394 612.082214 242.03511 579.247131 177.538177 528.172302 L 232.486313 547.339294 L 227.08844 601.997253 Z"/>
        </g>
        <g id="g124">
            <path id="path126" fill="#000000" stroke="none" d="M 502.273224 468.852295 L 523.109802 490.635132 L 552.868591 485.811279 L 538.594788 512.35907 L 552.370178 539.169739 L 522.708191 533.799194 L 501.46994 555.186707 L 497.41156 525.316528 L 470.510498 511.726135 L 497.66391 498.640442 L 502.273224 468.852295 Z"/>
        </g>
        <g id="g128">
            <path id="path130" fill="none" stroke="#000000" stroke-width="7.814435" stroke-linecap="round" stroke-linejoin="round" d="M 951.662109 581.041931 C 967.692688 763.998169 828.452087 924.976074 640.662231 940.591553 C 452.869934 956.209473 287.641632 820.552856 271.611084 637.59668 C 255.583008 454.640442 394.821075 293.662537 582.613403 278.047058 C 770.403259 262.429138 935.631592 398.085754 951.662109 581.041931 Z"/>
        </g>
        <g id="g356">
            <path id="path358" fill="#000000" stroke="none" d="M 391.655273 651.330322 L 344.87439 666.049866 L 331.408081 623.249573 L 476.423126 577.618958 L 489.891541 620.421265 L 443.112762 635.138733 L 482.193207 759.338257 L 430.735718 775.529785 L 391.655273 651.330322 Z"/>
        </g>
        <g id="g360">
            <path id="path362" fill="#000000" stroke="none" d="M 505.189575 568.567627 L 556.647095 552.376099 L 609.195923 719.377991 L 557.736328 735.569519 L 505.189575 568.567627 Z"/>
        </g>
        <g id="g364">
            <path id="path366" fill="#000000" stroke="none" d="M 591.962891 541.264099 L 643.420349 525.072571 L 682.498718 649.269958 L 756.411987 626.015137 L 769.878296 668.817566 L 644.509644 708.265991 L 591.962891 541.264099 Z"/>
        </g>
        <g id="g368">
            <path id="path370" fill="#000000" stroke="none" d="M 760.73468 535.198181 L 713.953796 549.917725 L 700.487549 507.115356 L 845.502563 461.486816 L 858.970947 504.287109 L 812.1922 519.006653 L 851.272644 643.208252 L 799.815125 659.397644 L 760.73468 535.198181 Z"/>
        </g>
    </g>
    <path id="Rounded-Rectangle" fill="none" stroke="#000000" stroke-width="9" stroke-linecap="round" stroke-linejoin="round" d="M 115 1067.125977 C 115 1089.217407 132.908615 1107.125977 155 1107.125977 L 1067.125977 1107.125977 C 1089.217285 1107.125977 1107.125977 1089.217407 1107.125977 1067.125977 L 1107.125977 155 C 1107.125977 132.908691 1089.217285 115 1067.125977 115 L 155 115 C 132.908615 115 115 132.908691 115 155 Z"/>
    <path id="P" fill="#000000" fill-rule="evenodd" stroke="none" d="M 1029.708008 134.400024 L 1060.16394 134.400024 C 1070.441406 134.400024 1078.149292 137.157349 1083.287964 142.671997 C 1088.426636 148.186646 1090.995972 156.27063 1090.995972 166.92395 L 1090.995972 179.895996 C 1090.995972 190.549438 1088.426636 198.633301 1083.287964 204.14801 C 1078.149292 209.66272 1070.441406 212.419983 1060.16394 212.419983 L 1050.387939 212.419983 L 1050.387939 266 L 1029.708008 266 Z M 1060.16394 193.619995 C 1063.547974 193.619995 1066.085938 192.680054 1067.777954 190.800049 C 1069.469971 188.920044 1070.31604 185.723999 1070.31604 181.212036 L 1070.31604 165.608032 C 1070.31604 161.095947 1069.469971 157.900024 1067.777954 156.02002 C 1066.085938 154.140015 1063.547974 153.199951 1060.16394 153.199951 L 1050.387939 153.199951 L 1050.387939 193.619995 Z"/>
    <path id="Path" fill="none" stroke="#0000ff" stroke-width="4.441154" stroke-linecap="round" stroke-linejoin="round" d="M 442.638367 1095.263184 L 442.097992 1093.289429 L 441.745453 1089.199951 L 441.580841 1087.155273 L 441.93338 1083.09021 L 442.097992 1081.04541 L 443.155457 1077.073608 L 443.695892 1075.099121 L 445.435089 1071.38623 L 446.304688 1069.529419 L 448.631287 1066.169312 L 449.806396 1064.500488 L 452.720367 1061.610107 L 454.154053 1060.152832 L 457.514801 1057.80249 L 459.206696 1056.627808 L 462.919983 1054.912231 L 464.776428 1054.042236 L 468.724579 1052.985107 L 470.6987 1052.444336 L 474.787811 1052.092163 L 476.83255 1051.903564 L 480.898285 1052.25647 L 482.942657 1052.444336 L 486.891205 1053.502197 L 488.888611 1054.042236 L 492.601868 1055.757813 L 494.458344 1056.627808 L 497.795471 1058.978027 L 499.487701 1060.152832 L 502.378387 1063.043091 L 503.835327 1064.500488 L 506.185577 1067.861206 L 507.360382 1069.529419 L 509.076263 1073.243042 L 509.945496 1075.099121 L 511.003021 1079.071045 L 511.543793 1081.04541 L 511.896271 1085.111206 L 512.084167 1087.155273 L 511.708374 1091.244751 L 511.543793 1093.289429 L 510.486267 1097.237549 L 509.945496 1099.211304 L 508.206665 1102.924927 L 507.360382 1104.781128 L 505.010468 1108.141846 L 503.835327 1109.810791 L 500.921356 1112.724731 L 499.487701 1114.158447 L 496.126923 1116.508667 L 494.458344 1117.683472 L 490.745056 1119.422607 L 488.888611 1120.29187 L 484.917145 1121.349731 L 482.942657 1121.866821 L 478.853607 1122.242676 L 476.83255 1122.40686 L 472.743439 1122.05481 L 470.6987 1121.866821 L 466.750549 1120.80896 L 464.776428 1120.29187 L 461.063141 1118.552734 L 459.206696 1117.683472 L 455.845917 1115.333252 L 454.154053 1114.158447 L 451.263367 1111.267456 L 449.806396 1109.810791 L 447.479828 1106.473633 L 446.304688 1104.781128 L 444.56546 1101.068115 L 443.695892 1099.211304 Z M 535.796875 852.003662 L 539.368835 852.33252 L 546.27832 854.188965 L 549.756409 855.105469 L 556.242676 858.137085 L 559.48584 859.664734 L 565.361145 863.777466 L 568.298828 865.822205 L 573.375122 870.898193 L 575.913269 873.436401 L 580.026001 879.28833 L 582.070435 882.225952 L 585.10199 888.735596 L 586.629578 891.97876 L 588.48645 898.911499 L 589.403015 902.366272 L 590.037354 909.51062 L 590.342896 913.083008 L 590.342896 922.083801 L 590.342896 940.109131 L 589.708496 947.253418 L 589.403015 950.825439 L 587.546204 957.734924 L 586.629578 961.213013 L 583.598022 967.699341 L 582.070435 970.942444 L 577.957947 976.817749 L 575.913269 979.755371 L 570.836975 984.831726 L 568.298828 987.369873 L 562.423523 991.482666 L 559.48584 993.526978 L 552.999512 996.558594 L 549.756409 998.086243 L 542.823608 999.943054 L 539.368835 1000.859619 L 532.224487 1001.494019 L 528.652527 1001.7995 L 521.508118 1001.165161 L 517.936157 1000.859619 L 511.026642 999.002808 L 507.548615 998.086243 L 501.062317 995.054626 L 497.795471 993.526978 L 491.943848 989.414551 L 489.006256 987.369873 L 483.929932 982.293579 L 481.391754 979.755371 L 477.278992 973.880127 L 475.234619 970.942444 L 472.203003 964.456177 L 470.675415 961.213013 L 468.818573 954.280151 L 467.901978 950.825439 L 467.267639 943.681091 L 466.962128 940.109131 L 466.962128 931.108276 L 466.962128 913.083008 L 467.596466 905.938599 L 467.901978 902.366272 L 469.75882 895.433472 L 470.675415 891.97876 L 473.70697 885.492432 L 475.234619 882.225952 L 479.347015 876.373962 L 481.391754 873.436401 L 486.468079 868.360352 L 489.006256 865.822205 L 494.8815 861.709473 L 497.795471 859.664734 L 504.30545 856.633118 L 507.548615 855.105469 L 514.481384 853.249023 L 517.936157 852.33252 L 525.080505 851.69812 L 528.652527 851.392578 Z M 1010.190308 255.851013 L 1010.42511 258.577087 L 1009.955017 264.029175 L 1009.720154 266.731934 L 1008.286438 272.019836 L 1007.581482 274.651978 L 1005.278625 279.610657 L 1004.12677 282.078186 L 1001.00116 286.543457 L 999.426636 288.799377 L 995.572388 292.653564 L 993.645264 294.580688 L 989.156738 297.706177 L 986.924011 299.280762 L 981.965393 301.584106 L 979.497864 302.735535 L 974.233643 304.16925 L 971.57782 304.874207 L 966.148987 305.344299 L 963.422913 305.579224 L 957.970825 305.109131 L 955.268066 304.874207 L 949.980164 303.440552 L 947.348022 302.735535 L 942.389343 300.432617 L 939.921814 299.280762 L 935.456543 296.155273 L 933.200623 294.580688 L 929.346436 290.726501 L 927.419312 288.799377 L 924.293823 284.31073 L 922.719238 282.078186 L 920.415894 277.119507 L 919.264465 274.651978 L 917.83075 269.387695 L 917.125793 266.731934 L 916.655701 261.303101 L 916.420776 258.577087 L 916.890869 253.124939 L 917.125793 250.42218 L 918.559448 245.134277 L 919.264465 242.502136 L 921.567383 237.543518 L 922.719238 235.075989 L 925.844727 230.610657 L 927.419312 228.354736 L 931.273499 224.500549 L 933.200623 222.573364 L 937.68927 219.447876 L 939.921814 217.87323 L 944.880493 215.569946 L 947.348022 214.418518 L 952.612305 212.984863 L 955.268066 212.279846 L 960.696899 211.809692 L 963.422913 211.57489 L 968.875061 212.044983 L 971.57782 212.279846 L 976.865723 213.713562 L 979.497864 214.418518 L 984.456482 216.721375 L 986.924011 217.87323 L 991.389343 220.99884 L 993.645264 222.573364 L 997.499451 226.427612 L 999.426636 228.354736 L 1002.552124 232.843262 L 1004.12677 235.075989 L 1006.430054 240.034607 L 1007.581482 242.502136 L 1009.015137 247.766357 L 1009.720154 250.42218 Z M 949.980164 1006.12384 L 955.268066 1007.557129 L 957.970825 1007.792358 L 963.422913 1008.262146 L 966.148987 1008.027283 L 971.57782 1007.557129 L 974.233643 1006.852173 L 979.497864 1005.418823 L 981.965393 1004.267029 L 986.924011 1001.964111 L 989.156738 1000.389526 L 993.645264 997.263977 L 995.572388 995.336853 L 999.426636 991.482666 L 1001.00116 989.226318 L 1004.12677 984.761047 L 1005.278625 982.293579 L 1007.581482 977.334839 L 1008.286438 974.702759 L 1009.720154 969.414856 L 1009.955017 966.712463 L 1010.42511 961.259949 L 1010.190308 958.533875 L 1009.720154 953.105103 L 1009.015137 950.449646 L 1007.581482 945.185425 L 1006.430054 942.717529 L 1004.12677 937.75885 L 1002.552124 935.526245 L 999.426636 931.037598 L 997.499451 929.110535 L 993.645264 925.256348 L 991.389343 923.681702 L 986.924011 920.556152 L 984.456482 919.404663 L 979.497864 917.10144 L 976.865723 916.396423 L 971.57782 914.962769 L 968.875061 914.727905 L 963.422913 914.257751 L 960.696899 914.492981 L 955.268066 914.962769 L 952.612305 915.668091 L 947.348022 917.10144 L 944.880493 918.253235 L 939.921814 920.556152 L 937.68927 922.130737 L 933.200623 925.256348 L 931.273499 927.183472 L 927.419312 931.037598 L 925.844727 933.293945 L 922.719238 937.75885 L 921.567383 940.226746 L 919.264465 945.185425 L 918.559448 947.817505 L 917.125793 953.105103 L 916.890869 955.807861 L 916.420776 961.259949 L 916.655701 963.986389 L 917.125793 969.414856 L 917.83075 972.070618 L 919.264465 977.334839 L 920.415894 979.802368 L 922.719238 984.761047 L 924.293823 986.993713 L 927.419312 991.482666 L 929.346436 993.409729 L 933.200623 997.263977 L 935.456543 998.838196 L 939.921814 1001.964111 L 942.389343 1003.115601 L 947.348022 1005.418823 Z M 288.612122 925.256348 L 292.466309 929.110535 L 294.393433 931.037598 L 297.518982 935.526245 L 299.093567 937.75885 L 301.396851 942.717529 L 302.548309 945.185425 L 303.981995 950.449646 L 304.686981 953.105103 L 305.157104 958.533875 L 305.391998 961.259949 L 304.921875 966.712463 L 304.686981 969.414856 L 303.253326 974.702759 L 302.548309 977.334839 L 300.245422 982.293579 L 299.093567 984.761047 L 295.968048 989.226318 L 294.393433 991.482666 L 290.539215 995.336853 L 288.612122 997.263977 L 284.123535 1000.389526 L 281.8909 1001.964111 L 276.93219 1004.267029 L 274.464661 1005.418823 L 269.200439 1006.852173 L 266.544678 1007.557129 L 261.115875 1008.027283 L 258.389801 1008.262146 L 252.937653 1007.792358 L 250.234909 1007.557129 L 244.947006 1006.12384 L 242.314896 1005.418823 L 237.356201 1003.115601 L 234.888672 1001.964111 L 230.423431 998.838196 L 228.16748 997.263977 L 224.313263 993.409729 L 222.386139 991.482666 L 219.260605 986.993713 L 217.685989 984.761047 L 215.382736 979.802368 L 214.231247 977.334839 L 212.797577 972.070618 L 212.09259 969.414856 L 211.622452 963.986389 L 211.387589 961.259949 L 211.857712 955.807861 L 212.09259 953.105103 L 213.52626 947.817505 L 214.231247 945.185425 L 216.53418 940.226746 L 217.685989 937.75885 L 220.811554 933.293945 L 222.386139 931.037598 L 226.240372 927.183472 L 228.16748 925.256348 L 232.656052 922.130737 L 234.888672 920.556152 L 239.847366 918.253235 L 242.314896 917.10144 L 247.579117 915.668091 L 250.234909 914.962769 L 255.663727 914.492981 L 258.389801 914.257751 L 263.841919 914.727905 L 266.544678 914.962769 L 271.83255 916.396423 L 274.464661 917.10144 L 279.42337 919.404663 L 281.8909 920.556152 L 286.356171 923.681702 Z M 281.8909 299.280762 L 284.123535 297.706177 L 288.612122 294.580688 L 290.539215 292.653564 L 294.393433 288.799377 L 295.968048 286.543457 L 299.093567 282.078186 L 300.245422 279.610657 L 302.548309 274.651978 L 303.253326 272.019836 L 304.686981 266.731934 L 304.921875 264.029175 L 305.391998 258.577087 L 305.157104 255.851013 L 304.686981 250.42218 L 303.981995 247.766357 L 302.548309 242.502136 L 301.396851 240.034607 L 299.093567 235.075989 L 297.518982 232.843262 L 294.393433 228.354736 L 292.466309 226.427612 L 288.612122 222.573364 L 286.356171 220.99884 L 281.8909 217.87323 L 279.42337 216.721375 L 274.464661 214.418518 L 271.83255 213.713562 L 266.544678 212.279846 L 263.841919 212.044983 L 258.389801 211.57489 L 255.663727 211.809692 L 250.234909 212.279846 L 247.579117 212.984863 L 242.314896 214.418518 L 239.847366 215.569946 L 234.888672 217.87323 L 232.656052 219.447876 L 228.16748 222.573364 L 226.240372 224.500549 L 222.386139 228.354736 L 220.811554 230.610657 L 217.685989 235.075989 L 216.53418 237.543518 L 214.231247 242.502136 L 213.52626 245.134277 L 212.09259 250.42218 L 211.857712 253.124939 L 211.387589 258.577087 L 211.622452 261.303101 L 212.09259 266.731934 L 212.797577 269.387695 L 214.231247 274.651978 L 215.382736 277.119507 L 217.685989 282.078186 L 219.260605 284.31073 L 222.386139 288.799377 L 224.313263 290.726501 L 228.16748 294.580688 L 230.423431 296.155273 L 234.888672 299.280762 L 237.356201 300.432617 L 242.314896 302.735535 L 244.947006 303.440552 L 250.234909 304.874207 L 252.937653 305.109131 L 258.389801 305.579224 L 261.115875 305.344299 L 266.544678 304.874207 L 269.200439 304.16925 L 274.464661 302.735535 L 276.93219 301.584106 Z M 3.614223 949.439087 L 2.815264 937.171448 L 2.815264 719.786255 L 2.815264 285.015808 L 4.413183 260.48053 L 5.235803 248.213196 L 10.030267 224.077393 L 12.427139 212.021301 L 20.323475 188.731812 L 24.271641 177.098877 L 35.152954 155.031006 L 40.605083 144.009155 L 54.259079 123.563354 L 61.097908 113.340454 L 69.205818 104.080688 L 85.421638 85.608887 L 94.6577 77.500977 L 113.153122 61.285156 L 133.598984 47.607422 L 143.821899 40.792358 L 165.889328 29.911377 L 176.911575 24.458984 L 200.201096 16.5625 L 211.83403 12.61438 L 235.969849 7.820313 L 248.025925 5.423096 L 272.560883 3.801514 L 284.828552 3.002441 L 502.213745 3.002441 L 936.984192 3.002441 L 961.51947 4.600464 L 973.786804 5.423096 L 997.922607 10.217529 L 1009.978699 12.61438 L 1033.268188 20.510742 L 1044.901123 24.458984 L 1066.968994 35.34021 L 1077.990845 40.792358 L 1098.436646 54.446289 L 1108.659546 61.285156 L 1117.919312 69.393066 L 1136.391113 85.608887 L 1144.499023 94.844971 L 1160.714844 113.340454 L 1174.392578 133.786255 L 1181.207642 144.009155 L 1192.088623 166.07666 L 1197.541016 177.098877 L 1205.4375 200.388306 L 1209.38562 212.021301 L 1214.179688 236.157104 L 1216.576904 248.213196 L 1218.198486 272.748108 L 1218.997559 285.015808 L 1218.997559 502.401001 L 1218.997559 937.171448 L 1217.399536 961.706787 L 1216.576904 973.97406 L 1211.782471 998.109863 L 1209.38562 1010.165955 L 1201.489258 1033.455566 L 1197.541016 1045.088867 L 1186.65979 1067.15625 L 1181.207642 1078.178101 L 1167.553711 1098.623901 L 1160.714844 1108.846924 L 1152.606934 1118.106567 L 1136.391113 1136.578003 L 1127.155029 1144.685913 L 1108.659546 1160.901733 L 1088.213745 1174.579346 L 1077.990845 1181.394897 L 1055.92334 1192.276245 L 1044.901123 1197.728394 L 1021.611694 1205.624756 L 1009.978699 1209.572876 L 985.842896 1214.36731 L 973.786804 1216.76416 L 949.251892 1218.385742 L 936.984192 1219.184692 L 719.598999 1219.184692 L 284.828552 1219.184692 L 260.293243 1217.586792 L 248.025925 1216.76416 L 223.890121 1211.969727 L 211.83403 1209.572876 L 188.544495 1201.676514 L 176.911575 1197.728394 L 154.843781 1186.847046 L 143.821899 1181.394897 L 123.376045 1167.740967 L 113.153122 1160.901733 L 103.893402 1152.793823 L 85.421638 1136.578003 L 77.313728 1127.342651 L 61.097908 1108.846924 L 47.420246 1088.401001 L 40.605083 1078.178101 L 29.724133 1056.110718 L 24.271641 1045.088867 L 16.375305 1021.798889 L 12.427139 1010.165955 L 7.633038 986.030151 L 5.235803 973.97406 Z"/>
</svg>
