<?xml version="1.0" standalone="no"?>
<!DOCTYPE svg PUBLIC "-//W3C//DTD SVG 1.1//EN"
"http://www.w3.org/Graphics/SVG/1.1/DTD/svg11.dtd">
<svg width="58.6221mm" height="64.9559mm" viewBox="-209.301 210.407 58.6221 64.9559" xmlns="http://www.w3.org/2000/svg" version = "1.1">
<title>Tilt-Pico-Case-v2-4-cut-parts-white.123dx</title>
<desc> made with 123D Design </desc>
<path d="M -153.392 242.036 L -153.362 243.881 L -153.343 245.161 L -153.352 247.007 L -153.369 248.288 L -153.416 250.131 L -153.468 251.407 L -153.554 253.243 L -153.641 254.509 L -153.801 256.777 L -153.922 258.028 L -154.142 260.271 L -154.199 260.895 L -154.264 261.431 L -154.468 262.458 L -154.604 262.98 L -154.941 263.971 L -155.146 264.471 L -155.609 265.409 L -155.88 265.876 L -156.461 266.746 L -156.792 267.173 L -157.482 267.96 L -157.868 268.337 L -158.655 269.027 L -159.088 269.35 L -159.958 269.931 L -160.431 270.193 L -161.369 270.655 L -161.873 270.851 L -162.864 271.187 L -163.389 271.313 L -164.415 271.517 L -164.953 271.57 L -165.741 271.635 L -167.29 271.79 L -168.523 271.907 L -170.34 272.053 L -171.588 272.137 L -173.418 272.245 L -174.675 272.295 L -176.514 272.364 L -178.36 272.394 L -179.621 272.41 L -181.467 272.401 L -182.728 272.383 L -184.571 272.336 L -185.827 272.284 L -187.664 272.198 L -188.91 272.112 L -191.178 271.952 L -192.41 271.833 L -194.618 271.618 L -194.636 271.617 L -195.185 271.564 L -195.699 271.496 L -196.726 271.291 L -197.244 271.152 L -198.235 270.815 L -198.73 270.607 L -199.668 270.144 L -200.131 269.872 L -201.001 269.291 L -201.423 268.959 L -202.21 268.269 L -202.584 267.883 L -203.274 267.097 L -203.593 266.665 L -204.174 265.795 L -204.432 265.324 L -204.895 264.385 L -205.087 263.884 L -205.424 262.893 L -205.548 262.371 L -205.752 261.344 L -205.805 260.81 L -205.869 260.016 L -206.043 258.224 L -206.16 256.998 L -206.298 255.19 L -206.382 253.951 L -206.483 252.13 L -206.533 250.882 L -206.597 249.053 L -206.613 247.8 L -206.636 244.898 L -206.619 243.646 L -206.546 240.748 L -206.495 239.5 L -206.326 236.623 L -206.242 235.384 L -206.089 233.693 L -205.861 231.317 L -205.802 230.655 L -205.746 230.154 L -205.542 229.128 L -205.424 228.638 L -205.087 227.647 L -204.908 227.176 L -204.445 226.237 L -204.208 225.792 L -203.627 224.922 L -203.336 224.51 L -202.646 223.724 L -202.306 223.352 L -201.519 222.662 L -201.134 222.336 L -200.264 221.754 L -199.842 221.479 L -198.903 221.017 L -198.449 220.797 L -197.458 220.461 L -196.98 220.3 L -196.486 220.2 L -195.46 219.996 L -194.957 219.959 L -193.988 219.891 L -194.024 219.891 L -194.042 219.891 L -194.083 219.892 L -194.166 219.892 L -194.208 219.893 L -194.291 219.894 L -194.375 219.896 L -194.416 219.897 L -193.108 219.77 L -191.651 219.627 L -190.736 219.555 L -188.865 219.412 L -188.865 218.407 L -188.865 216.359 L -188.834 216.012 L -188.819 215.838 L -188.729 215.501 L -188.684 215.333 L -188.536 215.017 L -188.463 214.859 L -188.263 214.574 L -188.163 214.431 L -187.916 214.184 L -187.793 214.061 L -187.507 213.861 L -187.365 213.761 L -187.049 213.614 L -186.891 213.54 L -186.554 213.45 L -186.385 213.405 L -186.038 213.374 L -185.865 213.359 L -181.955 213.359 L -174.135 213.359 L -173.788 213.39 L -173.614 213.405 L -173.278 213.495 L -173.109 213.54 L -172.793 213.687 L -172.635 213.761 L -172.35 213.961 L -172.207 214.061 L -171.96 214.308 L -171.837 214.431 L -171.637 214.716 L -171.537 214.859 L -171.39 215.175 L -171.316 215.333 L -171.226 215.67 L -171.181 215.838 L -171.15 216.186 L -171.135 216.359 L -171.135 218.417 L -171.135 219.426 L -169.871 219.524 L -168.46 219.634 L -167.589 219.72 L -165.81 219.895 L -164.976 219.961 L -164.445 220.01 L -163.419 220.214 L -162.9 220.334 L -161.909 220.67 L -161.41 220.858 L -160.471 221.32 L -160.002 221.573 L -159.132 222.154 L -158.7 222.466 L -157.913 223.156 L -157.527 223.523 L -156.837 224.31 L -156.502 224.725 L -155.921 225.595 L -155.645 226.051 L -155.182 226.99 L -154.969 227.478 L -154.633 228.469 L -154.487 228.981 L -154.282 230.008 L -154.206 230.535 L -154.161 230.956 L -153.979 232.757 L -153.856 234.007 L -153.71 235.824 L -153.621 237.09 L -153.514 238.92 L -153.46 240.196 z  M -174.773 219.391 L -174.773 219.724 L -174.773 219.891 L -178.291 219.891 L -185.327 219.891 L -185.327 219.558 L -185.327 219.391 L -184.727 219.391 L -184.427 219.391 L -184.427 217.699 L -184.427 216.854 L -184.417 216.738 L -184.412 216.68 L -184.397 216.624 L -184.367 216.512 L -184.342 216.459 L -184.293 216.354 L -184.26 216.306 L -184.193 216.211 L -184.152 216.17 L -184.07 216.088 L -184.022 216.054 L -183.927 215.988 L -183.875 215.963 L -183.769 215.914 L -183.713 215.899 L -183.601 215.869 L -183.543 215.864 L -183.427 215.854 L -178.858 215.854 L -176.573 215.854 L -176.515 215.859 L -176.399 215.869 L -176.343 215.884 L -176.231 215.914 L -176.178 215.938 L -176.073 215.988 L -176.025 216.021 L -175.93 216.088 L -175.889 216.129 L -175.807 216.211 L -175.773 216.258 L -175.707 216.354 L -175.682 216.406 L -175.633 216.512 L -175.618 216.568 L -175.588 216.68 L -175.583 216.738 L -175.573 216.854 L -175.573 218.545 L -175.573 219.391 L -175.039 219.391 z  M -196.189 259.249 L -196.013 259.125 L -195.925 259.064 L -195.73 258.973 L -195.633 258.927 L -195.425 258.872 L -195.321 258.844 L -195.107 258.825 L -195 258.816 L -194.786 258.835 L -194.679 258.844 L -194.471 258.9 L -194.367 258.927 L -194.172 259.018 L -194.075 259.064 L -193.899 259.187 L -193.811 259.249 L -193.659 259.401 L -193.583 259.477 L -193.46 259.653 L -193.398 259.741 L -193.307 259.936 L -193.262 260.033 L -193.206 260.241 L -193.178 260.345 L -193.159 260.559 L -193.15 260.666 L -193.169 260.88 L -193.178 260.987 L -193.234 261.195 L -193.262 261.299 L -193.352 261.493 L -193.398 261.591 L -193.521 261.767 L -193.583 261.855 L -193.735 262.007 L -193.811 262.083 L -193.987 262.206 L -194.075 262.268 L -194.27 262.359 L -194.367 262.404 L -194.575 262.46 L -194.679 262.488 L -194.893 262.506 L -195 262.516 L -195.214 262.497 L -195.321 262.488 L -195.529 262.432 L -195.633 262.404 L -195.828 262.313 L -195.925 262.268 L -196.101 262.145 L -196.189 262.083 L -196.341 261.931 L -196.417 261.855 L -196.54 261.679 L -196.602 261.591 L -196.693 261.396 L -196.738 261.299 L -196.794 261.091 L -196.822 260.987 L -196.841 260.773 L -196.85 260.666 L -196.831 260.452 L -196.822 260.345 L -196.766 260.137 L -196.738 260.033 L -196.648 259.838 L -196.602 259.741 L -196.479 259.565 L -196.417 259.477 L -196.265 259.325 z  M -193.307 230.036 L -193.262 230.133 L -193.206 230.341 L -193.178 230.445 L -193.159 230.659 L -193.15 230.766 L -193.169 230.98 L -193.178 231.087 L -193.234 231.295 L -193.262 231.399 L -193.352 231.593 L -193.398 231.691 L -193.521 231.867 L -193.583 231.955 L -193.735 232.107 L -193.811 232.183 L -193.987 232.306 L -194.075 232.368 L -194.27 232.459 L -194.367 232.504 L -194.575 232.56 L -194.679 232.588 L -194.893 232.606 L -195 232.616 L -195.214 232.597 L -195.321 232.588 L -195.529 232.532 L -195.633 232.504 L -195.828 232.413 L -195.925 232.368 L -196.101 232.245 L -196.189 232.183 L -196.341 232.031 L -196.417 231.955 L -196.54 231.779 L -196.602 231.691 L -196.693 231.496 L -196.738 231.399 L -196.794 231.191 L -196.822 231.087 L -196.841 230.873 L -196.85 230.766 L -196.831 230.552 L -196.822 230.445 L -196.766 230.237 L -196.738 230.133 L -196.648 229.938 L -196.602 229.841 L -196.479 229.665 L -196.417 229.577 L -196.265 229.425 L -196.189 229.349 L -196.013 229.225 L -195.925 229.164 L -195.73 229.073 L -195.633 229.027 L -195.425 228.972 L -195.321 228.944 L -195.107 228.925 L -195 228.916 L -194.786 228.935 L -194.679 228.944 L -194.471 229 L -194.367 229.027 L -194.172 229.118 L -194.075 229.164 L -193.899 229.287 L -193.811 229.349 L -193.659 229.501 L -193.583 229.577 L -193.46 229.753 L -193.398 229.841 z  M -165.321 228.944 L -165.107 228.925 L -165 228.916 L -164.786 228.935 L -164.679 228.944 L -164.471 229 L -164.367 229.027 L -164.172 229.118 L -164.075 229.164 L -163.899 229.287 L -163.811 229.349 L -163.659 229.501 L -163.583 229.577 L -163.46 229.753 L -163.398 229.841 L -163.307 230.036 L -163.262 230.133 L -163.206 230.341 L -163.178 230.445 L -163.159 230.659 L -163.15 230.766 L -163.169 230.98 L -163.178 231.087 L -163.234 231.295 L -163.262 231.399 L -163.352 231.593 L -163.398 231.691 L -163.521 231.867 L -163.583 231.955 L -163.735 232.107 L -163.811 232.183 L -163.987 232.306 L -164.075 232.368 L -164.27 232.459 L -164.367 232.504 L -164.575 232.56 L -164.679 232.588 L -164.893 232.606 L -165 232.616 L -165.214 232.597 L -165.321 232.588 L -165.529 232.532 L -165.633 232.504 L -165.828 232.413 L -165.925 232.368 L -166.101 232.245 L -166.189 232.183 L -166.341 232.031 L -166.417 231.955 L -166.54 231.779 L -166.602 231.691 L -166.693 231.496 L -166.738 231.399 L -166.794 231.191 L -166.822 231.087 L -166.841 230.873 L -166.85 230.766 L -166.831 230.552 L -166.822 230.445 L -166.766 230.237 L -166.738 230.133 L -166.648 229.938 L -166.602 229.841 L -166.479 229.665 L -166.417 229.577 L -166.265 229.425 L -166.189 229.349 L -166.013 229.225 L -165.925 229.164 L -165.73 229.073 L -165.633 229.027 L -165.425 228.972 z  M -164.367 258.927 L -164.172 259.018 L -164.075 259.064 L -163.899 259.187 L -163.811 259.249 L -163.659 259.401 L -163.583 259.477 L -163.46 259.653 L -163.398 259.741 L -163.307 259.936 L -163.262 260.033 L -163.206 260.241 L -163.178 260.345 L -163.159 260.559 L -163.15 260.666 L -163.169 260.88 L -163.178 260.987 L -163.234 261.195 L -163.262 261.299 L -163.352 261.493 L -163.398 261.591 L -163.521 261.767 L -163.583 261.855 L -163.735 262.007 L -163.811 262.083 L -163.987 262.206 L -164.075 262.268 L -164.27 262.359 L -164.367 262.404 L -164.575 262.46 L -164.679 262.488 L -164.893 262.506 L -165 262.516 L -165.214 262.497 L -165.321 262.488 L -165.529 262.432 L -165.633 262.404 L -165.828 262.313 L -165.925 262.268 L -166.101 262.145 L -166.189 262.083 L -166.341 261.931 L -166.417 261.855 L -166.54 261.679 L -166.602 261.591 L -166.693 261.396 L -166.738 261.299 L -166.794 261.091 L -166.822 260.987 L -166.841 260.773 L -166.85 260.666 L -166.831 260.452 L -166.822 260.345 L -166.766 260.137 L -166.738 260.033 L -166.648 259.838 L -166.602 259.741 L -166.479 259.565 L -166.417 259.477 L -166.265 259.325 L -166.189 259.249 L -166.013 259.125 L -165.925 259.064 L -165.73 258.973 L -165.633 258.927 L -165.425 258.872 L -165.321 258.844 L -165.107 258.825 L -165 258.816 L -164.786 258.835 L -164.679 258.844 L -164.471 258.9 z  " fill= "none" stroke="rgb(0,0,255)" stroke-width="0.05mm" />
</svg>
