<?xml version="1.0" standalone="no"?>
<!DOCTYPE svg PUBLIC "-//W3C//DTD SVG 1.1//EN"
"http://www.w3.org/Graphics/SVG/1.1/DTD/svg11.dtd">
<svg width="56.925mm" height="66.9237mm" viewBox="-208.462 141.993 56.925 66.9237" xmlns="http://www.w3.org/2000/svg" version = "1.1">
<title>Tilt-Pico-Case-v2-2-cut-parts-white.123dx</title>
<desc> made with 123D Design </desc>
<path d="M -164.768 163.02 L -164.653 163.03 L -164.428 163.091 L -164.316 163.121 L -164.105 163.219 L -164 163.268 L -163.81 163.401 L -163.714 163.468 L -163.55 163.632 L -163.468 163.714 L -163.335 163.905 L -163.268 164 L -163.17 164.211 L -163.121 164.316 L -163.06 164.54 L -163.03 164.653 L -163.01 164.884 L -163 165 L -163.02 165.232 L -163.03 165.347 L -163.091 165.572 L -163.121 165.684 L -163.219 165.895 L -163.268 166 L -163.401 166.19 L -163.468 166.286 L -163.632 166.45 L -163.714 166.532 L -163.905 166.665 L -164 166.732 L -164.211 166.83 L -164.316 166.879 L -164.54 166.94 L -164.653 166.97 L -164.884 166.99 L -165 167 L -165.232 166.98 L -165.347 166.97 L -165.572 166.909 L -165.684 166.879 L -165.895 166.781 L -166 166.732 L -166.19 166.599 L -166.286 166.532 L -166.45 166.368 L -166.532 166.286 L -166.665 166.095 L -166.732 166 L -166.83 165.789 L -166.879 165.684 L -166.94 165.46 L -166.97 165.347 L -166.99 165.116 L -167 165 L -166.98 164.768 L -166.97 164.653 L -166.909 164.428 L -166.879 164.316 L -166.781 164.105 L -166.732 164 L -166.599 163.81 L -166.532 163.714 L -166.368 163.55 L -166.286 163.468 L -166.095 163.335 L -166 163.268 L -165.789 163.17 L -165.684 163.121 L -165.46 163.06 L -165.347 163.03 L -165.116 163.01 L -165 163 z  M -196.286 166.532 L -196.19 166.599 L -196 166.732 L -195.895 166.781 L -195.684 166.879 L -195.572 166.909 L -195.347 166.97 L -195.232 166.98 L -195 167 L -194.884 166.99 L -194.653 166.97 L -194.54 166.94 L -194.316 166.879 L -194.211 166.83 L -194 166.732 L -193.905 166.665 L -193.714 166.532 L -193.632 166.45 L -193.468 166.286 L -193.401 166.19 L -193.268 166 L -193.219 165.895 L -193.121 165.684 L -193.091 165.572 L -193.03 165.347 L -193.02 165.232 L -193 165 L -193.01 164.884 L -193.03 164.653 L -193.06 164.54 L -193.121 164.316 L -193.17 164.211 L -193.268 164 L -193.335 163.905 L -193.468 163.714 L -193.55 163.632 L -193.714 163.468 L -193.81 163.401 L -194 163.268 L -194.105 163.219 L -194.316 163.121 L -194.428 163.091 L -194.653 163.03 L -194.768 163.02 L -195 163 L -195.116 163.01 L -195.347 163.03 L -195.46 163.06 L -195.684 163.121 L -195.789 163.17 L -196 163.268 L -196.095 163.335 L -196.286 163.468 L -196.368 163.55 L -196.532 163.714 L -196.599 163.81 L -196.732 164 L -196.781 164.105 L -196.879 164.316 L -196.909 164.428 L -196.97 164.653 L -196.98 164.768 L -197 165 L -196.99 165.116 L -196.97 165.347 L -196.94 165.46 L -196.879 165.684 L -196.83 165.789 L -196.732 166 L -196.665 166.095 L -196.532 166.286 L -196.45 166.368 z  M -196.286 193.368 L -196.095 193.235 L -196 193.168 L -195.789 193.07 L -195.684 193.021 L -195.46 192.96 L -195.347 192.93 L -195.116 192.91 L -195 192.9 L -194.768 192.92 L -194.653 192.93 L -194.428 192.991 L -194.316 193.021 L -194.105 193.119 L -194 193.168 L -193.81 193.301 L -193.714 193.368 L -193.55 193.532 L -193.468 193.614 L -193.335 193.805 L -193.268 193.9 L -193.17 194.111 L -193.121 194.216 L -193.06 194.44 L -193.03 194.553 L -193.01 194.784 L -193 194.9 L -193.02 195.132 L -193.03 195.247 L -193.091 195.472 L -193.121 195.584 L -193.219 195.795 L -193.268 195.9 L -193.401 196.09 L -193.468 196.186 L -193.632 196.35 L -193.714 196.432 L -193.905 196.565 L -194 196.632 L -194.211 196.73 L -194.316 196.779 L -194.54 196.84 L -194.653 196.87 L -194.884 196.89 L -195 196.9 L -195.232 196.88 L -195.347 196.87 L -195.572 196.809 L -195.684 196.779 L -195.895 196.681 L -196 196.632 L -196.19 196.499 L -196.286 196.432 L -196.45 196.268 L -196.532 196.186 L -196.665 195.995 L -196.732 195.9 L -196.83 195.689 L -196.879 195.584 L -196.94 195.36 L -196.97 195.247 L -196.99 195.016 L -197 194.9 L -196.98 194.668 L -196.97 194.553 L -196.909 194.328 L -196.879 194.216 L -196.781 194.005 L -196.732 193.9 L -196.599 193.71 L -196.532 193.614 L -196.368 193.45 z  M -172.497 148.248 L -172.397 148.203 L -172.344 148.19 L -172.238 148.163 L -172.183 148.159 L -172.074 148.151 L -172.019 148.156 L -171.91 148.167 L -171.858 148.182 L -171.752 148.211 L -171.703 148.235 L -171.604 148.282 L -171.559 148.313 L -171.47 148.377 L -171.431 148.416 L -171.354 148.494 L -171.323 148.539 L -171.261 148.629 L -171.238 148.679 L -171.192 148.778 L -171.178 148.831 L -171.15 148.937 L -171.145 148.991 L -171.135 149.101 L -171.135 150.775 L -171.135 154.125 L -169.465 154.125 L -166.125 154.125 L -165.081 154.193 L -164.559 154.228 L -163.532 154.432 L -163.019 154.534 L -162.028 154.87 L -161.533 155.038 L -160.594 155.501 L -160.125 155.733 L -159.255 156.314 L -158.82 156.605 L -158.426 156.95 L -157.64 157.64 L -157.295 158.033 L -156.605 158.82 L -156.023 159.69 L -155.733 160.125 L -155.27 161.064 L -155.038 161.533 L -154.702 162.524 L -154.534 163.019 L -154.33 164.046 L -154.228 164.559 L -154.159 165.603 L -154.125 166.125 L -154.125 175.375 L -154.125 193.875 L -154.193 194.919 L -154.228 195.441 L -154.432 196.468 L -154.534 196.981 L -154.87 197.972 L -155.038 198.467 L -155.501 199.406 L -155.733 199.875 L -156.314 200.745 L -156.605 201.18 L -156.95 201.574 L -157.64 202.36 L -158.033 202.705 L -158.82 203.395 L -159.69 203.977 L -160.125 204.267 L -161.064 204.73 L -161.533 204.962 L -162.524 205.298 L -163.019 205.466 L -164.046 205.67 L -164.559 205.772 L -165.603 205.841 L -166.125 205.875 L -175.375 205.875 L -193.875 205.875 L -194.919 205.807 L -195.441 205.772 L -196.468 205.568 L -196.981 205.466 L -197.972 205.13 L -198.467 204.962 L -199.406 204.499 L -199.875 204.267 L -200.745 203.686 L -201.18 203.395 L -201.574 203.05 L -202.36 202.36 L -202.705 201.967 L -203.395 201.18 L -203.977 200.31 L -204.267 199.875 L -204.73 198.936 L -204.962 198.467 L -205.298 197.476 L -205.466 196.981 L -205.67 195.954 L -205.772 195.441 L -205.841 194.397 L -205.875 193.875 L -205.875 184.625 L -205.875 166.125 L -205.807 165.081 L -205.772 164.559 L -205.568 163.532 L -205.466 163.019 L -205.13 162.028 L -204.962 161.533 L -204.499 160.594 L -204.267 160.125 L -203.686 159.255 L -203.395 158.82 L -203.05 158.426 L -202.36 157.64 L -201.967 157.295 L -201.18 156.605 L -200.31 156.023 L -199.875 155.733 L -198.936 155.27 L -198.467 155.038 L -197.476 154.702 L -196.981 154.534 L -195.954 154.33 L -195.441 154.228 L -194.397 154.159 L -193.875 154.125 L -190.535 154.125 L -188.865 154.125 L -188.865 151.847 L -188.865 147.291 L -188.842 147.03 L -188.83 146.9 L -188.763 146.646 L -188.729 146.52 L -188.618 146.282 L -188.562 146.163 L -188.412 145.949 L -188.337 145.841 L -188.151 145.656 L -188.059 145.563 L -187.844 145.413 L -187.737 145.338 L -187.499 145.227 L -187.38 145.171 L -187.127 145.104 L -187 145.07 L -186.739 145.047 L -186.609 145.035 L -182.304 145.035 L -173.694 145.035 L -173.626 145.041 L -173.489 145.052 L -173.423 145.069 L -173.291 145.102 L -173.228 145.129 L -173.103 145.184 L -173.046 145.221 L -172.931 145.295 L -172.88 145.341 L -172.779 145.433 L -172.737 145.486 L -172.652 145.594 L -172.619 145.653 L -172.553 145.773 L -172.531 145.837 L -172.485 145.966 L -172.473 146.033 L -172.449 146.168 L -172.448 146.236 L -172.447 146.373 L -172.457 146.44 L -172.478 146.575 L -172.499 146.64 L -172.541 146.77 L -172.573 146.83 L -172.636 146.951 L -172.677 147.006 L -172.759 147.115 L -172.808 147.162 L -172.907 147.257 L -173.813 147.991 L -175.627 149.459 L -175.697 149.241 L -175.732 149.132 L -175.839 148.929 L -175.892 148.827 L -176.03 148.644 L -176.099 148.553 L -176.266 148.396 L -176.35 148.317 L -176.541 148.191 L -176.636 148.127 L -176.846 148.034 L -176.95 147.987 L -177.172 147.93 L -177.283 147.901 L -177.512 147.882 L -177.626 147.873 L -179.209 147.873 L -182.374 147.873 L -182.612 147.894 L -182.731 147.904 L -182.961 147.966 L -183.076 147.997 L -183.293 148.097 L -183.401 148.148 L -183.596 148.285 L -183.694 148.353 L -183.863 148.522 L -183.947 148.606 L -184.084 148.802 L -184.152 148.899 L -184.253 149.116 L -184.303 149.224 L -184.365 149.454 L -184.396 149.569 L -184.417 149.807 L -184.427 149.926 L -184.427 151.326 L -184.427 154.125 L -181.476 154.125 L -175.573 154.125 L -175.573 152.984 L -175.573 150.702 L -174.61 149.922 L -172.683 148.362 L -172.638 148.332 L -172.547 148.27 z  M -167 194.9 L -166.99 195.016 L -166.97 195.247 L -166.94 195.36 L -166.879 195.584 L -166.83 195.689 L -166.732 195.9 L -166.665 195.995 L -166.532 196.186 L -166.45 196.268 L -166.286 196.432 L -166.19 196.499 L -166 196.632 L -165.895 196.681 L -165.684 196.779 L -165.572 196.809 L -165.347 196.87 L -165.232 196.88 L -165 196.9 L -164.884 196.89 L -164.653 196.87 L -164.54 196.84 L -164.316 196.779 L -164.211 196.73 L -164 196.632 L -163.905 196.565 L -163.714 196.432 L -163.632 196.35 L -163.468 196.186 L -163.401 196.09 L -163.268 195.9 L -163.219 195.795 L -163.121 195.584 L -163.091 195.472 L -163.03 195.247 L -163.02 195.132 L -163 194.9 L -163.01 194.784 L -163.03 194.553 L -163.06 194.44 L -163.121 194.216 L -163.17 194.111 L -163.268 193.9 L -163.335 193.805 L -163.468 193.614 L -163.55 193.532 L -163.714 193.368 L -163.81 193.301 L -164 193.168 L -164.105 193.119 L -164.316 193.021 L -164.428 192.991 L -164.653 192.93 L -164.768 192.92 L -165 192.9 L -165.116 192.91 L -165.347 192.93 L -165.46 192.96 L -165.684 193.021 L -165.789 193.07 L -166 193.168 L -166.095 193.235 L -166.286 193.368 L -166.368 193.45 L -166.532 193.614 L -166.599 193.71 L -166.732 193.9 L -166.781 194.005 L -166.879 194.216 L -166.909 194.328 L -166.97 194.553 L -166.98 194.668 z  " fill= "none" stroke="rgb(0,0,255)" stroke-width="0.05mm" />
</svg>
