<?xml version="1.0" standalone="no"?>
<!DOCTYPE svg PUBLIC "-//W3C//DTD SVG 1.1//EN"
"http://www.w3.org/Graphics/SVG/1.1/DTD/svg11.dtd">
<svg width="9.35mm" height="207.46mm" viewBox="-118.775 89.07 9.35 207.46" xmlns="http://www.w3.org/2000/svg" version = "1.1">
<title>Tilt-Pico-Case-v2-4-cut-parts-silver.123dx</title>
<desc> made with 123D Design </desc>
<path d="M -111.2 189.4 L -111.2 196.2 L -111.208 196.296 L -111.233 196.388 L -111.274 196.475 L -111.329 196.554 L -111.396 196.621 L -111.475 196.676 L -111.562 196.717 L -111.654 196.742 L -111.75 196.75 L -112.774 196.75 L -114.05 195.474 L -114.05 190.126 L -112.774 188.85 L -111.75 188.85 L -111.654 188.858 L -111.562 188.883 L -111.475 188.924 L -111.396 188.979 L -111.329 189.047 L -111.274 189.125 L -111.233 189.212 L -111.208 189.305 z  M -118.35 278.135 L -118.35 107.465 L -116.65 107.465 L -116.65 103.727 L -118.35 103.727 L -118.35 98.5 L -109.85 98.5 L -109.85 103.727 L -111.55 103.727 L -111.55 107.465 L -109.85 107.465 L -109.85 278.135 L -111.55 278.135 L -111.55 281.873 L -109.85 281.873 L -109.85 287.1 L -118.35 287.1 L -118.35 281.873 L -116.65 281.873 L -116.65 278.135 z  " fill= "none" stroke="rgb(0,0,255)" stroke-width="0.05mm" />
</svg>
