<?xml version="1.0" standalone="no"?>
<!DOCTYPE svg PUBLIC "-//W3C//DTD SVG 1.1//EN"
"http://www.w3.org/Graphics/SVG/1.1/DTD/svg11.dtd">
<svg width="9.35mm" height="205.04mm" viewBox="-118.775 90.28 9.35 205.04" xmlns="http://www.w3.org/2000/svg" version = "1.1">
<title>Tilt-Pico-Case-v2-2-cut-parts-silver.123dx</title>
<desc> made with 123D Design </desc>
<path d="M -111.395 196.62 L -111.396 196.621 L -111.473 196.675 L -111.475 196.676 L -111.56 196.716 L -111.562 196.717 L -111.653 196.741 L -111.654 196.742 L -111.748 196.75 L -111.75 196.75 L -111.77 196.75 L -112.774 196.75 L -114.024 195.5 L -114.05 195.474 L -114.05 195.367 L -114.05 190.126 L -112.8 188.876 L -112.774 188.85 L -112.754 188.85 L -111.75 188.85 L -111.656 188.858 L -111.654 188.858 L -111.564 188.883 L -111.562 188.883 L -111.477 188.923 L -111.475 188.924 L -111.398 188.978 L -111.396 188.979 L -111.33 189.045 L -111.329 189.047 L -111.275 189.124 L -111.274 189.125 L -111.234 189.21 L -111.233 189.212 L -111.209 189.303 L -111.208 189.305 L -111.2 189.398 L -111.2 189.4 L -111.2 189.536 L -111.2 196.2 L -111.208 196.294 L -111.208 196.296 L -111.233 196.386 L -111.233 196.388 L -111.273 196.473 L -111.274 196.475 L -111.328 196.552 L -111.329 196.554 z  M -118.35 99.6885 L -118.35 99.6 L -110.02 99.6 L -109.85 99.6 L -109.85 103.328 L -109.85 286 L -118.18 286 L -118.35 286 L -118.35 281.661 L -118.35 281.573 L -118.32 281.573 L -116.85 281.573 L -116.85 281.484 L -116.85 277.135 L -116.88 277.135 L -118.35 277.135 L -118.35 273.762 L -118.35 108.465 L -118.32 108.465 L -116.85 108.465 L -116.85 108.376 L -116.85 104.027 L -116.88 104.027 L -118.35 104.027 z  " fill= "none" stroke="rgb(0,0,255)" stroke-width="0.05mm" />
</svg>
