<?xml version="1.0" standalone="no"?>
<!DOCTYPE svg PUBLIC "-//W3C//DTD SVG 1.1//EN"
"http://www.w3.org/Graphics/SVG/1.1/DTD/svg11.dtd">
<svg width="58.6221mm" height="64.956mm" viewBox="-209.301 147.907 58.6221 64.956" xmlns="http://www.w3.org/2000/svg" version = "1.1">
<title>Tilt-Pico-Case-v2-4-cut-parts-white.123dx</title>
<desc> made with 123D Design </desc>
<path d="M -195.828 199.813 L -195.633 199.904 L -195.529 199.932 L -195.321 199.988 L -195.214 199.997 L -195 200.016 L -194.893 200.006 L -194.679 199.988 L -194.575 199.96 L -194.367 199.904 L -194.27 199.859 L -194.075 199.768 L -193.987 199.706 L -193.811 199.583 L -193.735 199.507 L -193.583 199.355 L -193.521 199.267 L -193.398 199.091 L -193.352 198.993 L -193.262 198.799 L -193.234 198.695 L -193.178 198.487 L -193.169 198.38 L -193.15 198.166 L -193.159 198.059 L -193.178 197.845 L -193.206 197.741 L -193.262 197.533 L -193.307 197.436 L -193.398 197.241 L -193.46 197.153 L -193.583 196.977 L -193.659 196.901 L -193.811 196.749 L -193.899 196.687 L -194.075 196.564 L -194.172 196.518 L -194.367 196.427 L -194.471 196.4 L -194.679 196.344 L -194.786 196.335 L -195 196.316 L -195.107 196.325 L -195.321 196.344 L -195.425 196.372 L -195.633 196.427 L -195.73 196.473 L -195.925 196.564 L -196.013 196.625 L -196.189 196.749 L -196.265 196.825 L -196.417 196.977 L -196.479 197.065 L -196.602 197.241 L -196.648 197.338 L -196.738 197.533 L -196.766 197.637 L -196.822 197.845 L -196.831 197.952 L -196.85 198.166 L -196.841 198.273 L -196.822 198.487 L -196.794 198.591 L -196.738 198.799 L -196.693 198.896 L -196.602 199.091 L -196.54 199.179 L -196.417 199.355 L -196.341 199.431 L -196.189 199.583 L -196.101 199.645 L -195.925 199.768 z  M -196.417 169.455 L -196.54 169.279 L -196.602 169.191 L -196.693 168.996 L -196.738 168.899 L -196.794 168.691 L -196.822 168.587 L -196.841 168.373 L -196.85 168.266 L -196.831 168.052 L -196.822 167.945 L -196.766 167.737 L -196.738 167.633 L -196.648 167.438 L -196.602 167.341 L -196.479 167.165 L -196.417 167.077 L -196.265 166.925 L -196.189 166.849 L -196.013 166.725 L -195.925 166.664 L -195.73 166.573 L -195.633 166.527 L -195.425 166.472 L -195.321 166.444 L -195.107 166.425 L -195 166.416 L -194.786 166.435 L -194.679 166.444 L -194.471 166.5 L -194.367 166.527 L -194.172 166.618 L -194.075 166.664 L -193.899 166.787 L -193.811 166.849 L -193.659 167.001 L -193.583 167.077 L -193.46 167.253 L -193.398 167.341 L -193.307 167.536 L -193.262 167.633 L -193.206 167.841 L -193.178 167.945 L -193.159 168.159 L -193.15 168.266 L -193.169 168.48 L -193.178 168.587 L -193.234 168.795 L -193.262 168.899 L -193.352 169.093 L -193.398 169.191 L -193.521 169.367 L -193.583 169.455 L -193.735 169.607 L -193.811 169.683 L -193.987 169.806 L -194.075 169.868 L -194.27 169.959 L -194.367 170.004 L -194.575 170.06 L -194.679 170.088 L -194.893 170.106 L -195 170.116 L -195.214 170.097 L -195.321 170.088 L -195.529 170.032 L -195.633 170.004 L -195.828 169.913 L -195.925 169.868 L -196.101 169.745 L -196.189 169.683 L -196.341 169.531 z  M -164.367 170.004 L -164.27 169.959 L -164.075 169.868 L -163.987 169.806 L -163.811 169.683 L -163.735 169.607 L -163.583 169.455 L -163.521 169.367 L -163.398 169.191 L -163.352 169.093 L -163.262 168.899 L -163.234 168.795 L -163.178 168.587 L -163.169 168.48 L -163.15 168.266 L -163.159 168.159 L -163.178 167.945 L -163.206 167.841 L -163.262 167.633 L -163.307 167.536 L -163.398 167.341 L -163.46 167.253 L -163.583 167.077 L -163.659 167.001 L -163.811 166.849 L -163.899 166.787 L -164.075 166.664 L -164.172 166.618 L -164.367 166.527 L -164.471 166.5 L -164.679 166.444 L -164.786 166.435 L -165 166.416 L -165.107 166.425 L -165.321 166.444 L -165.425 166.472 L -165.633 166.527 L -165.73 166.573 L -165.925 166.664 L -166.013 166.725 L -166.189 166.849 L -166.265 166.925 L -166.417 167.077 L -166.479 167.165 L -166.602 167.341 L -166.648 167.438 L -166.738 167.633 L -166.766 167.737 L -166.822 167.945 L -166.831 168.052 L -166.85 168.266 L -166.841 168.373 L -166.822 168.587 L -166.794 168.691 L -166.738 168.899 L -166.693 168.996 L -166.602 169.191 L -166.54 169.279 L -166.417 169.455 L -166.341 169.531 L -166.189 169.683 L -166.101 169.745 L -165.925 169.868 L -165.828 169.913 L -165.633 170.004 L -165.529 170.032 L -165.321 170.088 L -165.214 170.097 L -165 170.116 L -164.893 170.106 L -164.679 170.088 L -164.575 170.06 z  M -166.841 198.273 L -166.822 198.487 L -166.794 198.591 L -166.738 198.799 L -166.693 198.896 L -166.602 199.091 L -166.54 199.179 L -166.417 199.355 L -166.341 199.431 L -166.189 199.583 L -166.101 199.645 L -165.925 199.768 L -165.828 199.813 L -165.633 199.904 L -165.529 199.932 L -165.321 199.988 L -165.214 199.997 L -165 200.016 L -164.893 200.006 L -164.679 199.988 L -164.575 199.96 L -164.367 199.904 L -164.27 199.859 L -164.075 199.768 L -163.987 199.706 L -163.811 199.583 L -163.735 199.507 L -163.583 199.355 L -163.521 199.267 L -163.398 199.091 L -163.352 198.993 L -163.262 198.799 L -163.234 198.695 L -163.178 198.487 L -163.169 198.38 L -163.15 198.166 L -163.159 198.059 L -163.178 197.845 L -163.206 197.741 L -163.262 197.533 L -163.307 197.436 L -163.398 197.241 L -163.46 197.153 L -163.583 196.977 L -163.659 196.901 L -163.811 196.749 L -163.899 196.687 L -164.075 196.564 L -164.172 196.518 L -164.367 196.427 L -164.471 196.4 L -164.679 196.344 L -164.786 196.335 L -165 196.316 L -165.107 196.325 L -165.321 196.344 L -165.425 196.372 L -165.633 196.427 L -165.73 196.473 L -165.925 196.564 L -166.013 196.625 L -166.189 196.749 L -166.265 196.825 L -166.417 196.977 L -166.479 197.065 L -166.602 197.241 L -166.648 197.338 L -166.738 197.533 L -166.766 197.637 L -166.822 197.845 L -166.831 197.952 L -166.85 198.166 z  M -185.788 202.105 L -185.705 202.098 L -185.54 202.113 L -185.458 202.12 L -185.298 202.163 L -185.218 202.184 L -185.068 202.254 L -184.993 202.289 L -184.857 202.384 L -184.789 202.431 L -184.672 202.549 L -184.614 202.607 L -184.519 202.743 L -184.471 202.811 L -184.401 202.961 L -184.366 203.036 L -184.324 203.196 L -184.302 203.276 L -184.288 203.441 L -184.28 203.523 L -184.295 203.688 L -184.302 203.771 L -184.345 203.93 L -184.366 204.01 L -184.436 204.161 L -184.471 204.236 L -184.566 204.371 L -184.614 204.439 L -184.731 204.556 L -184.789 204.615 L -184.925 204.71 L -184.993 204.757 L -185.143 204.827 L -185.218 204.862 L -185.378 204.905 L -185.458 204.926 L -185.623 204.941 L -185.705 204.948 L -185.87 204.934 L -185.953 204.926 L -186.113 204.884 L -186.193 204.862 L -186.343 204.792 L -186.418 204.757 L -186.554 204.662 L -186.621 204.615 L -186.739 204.498 L -186.797 204.439 L -186.892 204.303 L -186.94 204.236 L -187.01 204.086 L -187.045 204.01 L -187.087 203.85 L -187.109 203.771 L -187.123 203.606 L -187.13 203.523 L -187.116 203.358 L -187.109 203.276 L -187.066 203.116 L -187.045 203.036 L -186.975 202.886 L -186.94 202.811 L -186.845 202.675 L -186.797 202.607 L -186.68 202.49 L -186.621 202.431 L -186.486 202.336 L -186.418 202.289 L -186.268 202.219 L -186.193 202.184 L -186.033 202.141 L -185.953 202.12 z  M -157.482 205.46 L -157.868 205.837 L -158.655 206.527 L -159.088 206.85 L -159.958 207.431 L -160.431 207.693 L -161.369 208.155 L -161.873 208.351 L -162.864 208.687 L -163.389 208.813 L -164.415 209.017 L -164.953 209.07 L -165.741 209.135 L -167.29 209.29 L -168.523 209.407 L -170.34 209.553 L -171.588 209.637 L -173.418 209.745 L -174.675 209.795 L -176.514 209.864 L -178.36 209.894 L -179.621 209.91 L -181.467 209.901 L -182.728 209.883 L -184.571 209.836 L -185.827 209.784 L -187.664 209.698 L -188.91 209.612 L -191.178 209.452 L -192.41 209.333 L -194.618 209.118 L -194.636 209.117 L -195.185 209.064 L -195.699 208.996 L -196.726 208.791 L -197.244 208.652 L -198.235 208.315 L -198.73 208.107 L -199.668 207.644 L -200.131 207.372 L -201.001 206.791 L -201.423 206.459 L -202.21 205.769 L -202.584 205.383 L -203.274 204.597 L -203.593 204.165 L -204.174 203.295 L -204.432 202.824 L -204.895 201.885 L -205.087 201.384 L -205.424 200.393 L -205.548 199.871 L -205.752 198.844 L -205.805 198.31 L -205.869 197.516 L -206.043 195.724 L -206.16 194.498 L -206.298 192.69 L -206.382 191.451 L -206.483 189.63 L -206.533 188.382 L -206.597 186.553 L -206.613 185.3 L -206.636 182.398 L -206.619 181.146 L -206.546 178.248 L -206.495 177 L -206.326 174.123 L -206.242 172.884 L -206.089 171.193 L -205.861 168.817 L -205.802 168.155 L -205.746 167.654 L -205.542 166.628 L -205.424 166.138 L -205.087 165.147 L -204.908 164.676 L -204.445 163.737 L -204.208 163.292 L -203.627 162.422 L -203.336 162.01 L -202.646 161.224 L -202.306 160.852 L -201.519 160.162 L -201.134 159.836 L -200.264 159.254 L -199.842 158.979 L -198.903 158.517 L -198.449 158.297 L -197.458 157.961 L -196.98 157.8 L -196.486 157.7 L -195.46 157.496 L -194.957 157.459 L -193.988 157.391 L -194.024 157.391 L -194.042 157.391 L -194.083 157.392 L -194.166 157.392 L -194.208 157.393 L -194.291 157.394 L -194.375 157.396 L -194.416 157.397 L -193.108 157.27 L -191.651 157.127 L -190.736 157.055 L -188.865 156.912 L -188.865 155.907 L -188.865 153.859 L -188.834 153.512 L -188.819 153.338 L -188.729 153.001 L -188.684 152.833 L -188.536 152.517 L -188.463 152.359 L -188.263 152.074 L -188.163 151.931 L -187.916 151.684 L -187.793 151.561 L -187.507 151.361 L -187.365 151.261 L -187.049 151.114 L -186.891 151.04 L -186.554 150.95 L -186.385 150.905 L -186.038 150.874 L -185.865 150.859 L -181.955 150.859 L -174.135 150.859 L -173.788 150.89 L -173.614 150.905 L -173.278 150.995 L -173.109 151.04 L -172.793 151.187 L -172.635 151.261 L -172.35 151.461 L -172.207 151.561 L -171.96 151.808 L -171.837 151.931 L -171.637 152.216 L -171.537 152.359 L -171.39 152.675 L -171.316 152.833 L -171.226 153.17 L -171.181 153.338 L -171.15 153.686 L -171.135 153.859 L -171.135 155.917 L -171.135 156.926 L -169.871 157.024 L -168.46 157.134 L -167.589 157.22 L -165.81 157.395 L -164.976 157.461 L -164.445 157.51 L -163.419 157.714 L -162.9 157.834 L -161.909 158.17 L -161.41 158.358 L -160.471 158.82 L -160.002 159.073 L -159.132 159.654 L -158.7 159.966 L -157.913 160.656 L -157.527 161.023 L -156.837 161.81 L -156.502 162.225 L -155.921 163.095 L -155.645 163.551 L -155.182 164.49 L -154.969 164.978 L -154.633 165.969 L -154.487 166.481 L -154.282 167.508 L -154.206 168.035 L -154.161 168.456 L -153.979 170.257 L -153.856 171.507 L -153.71 173.324 L -153.621 174.59 L -153.514 176.42 L -153.46 177.696 L -153.392 179.536 L -153.362 181.381 L -153.343 182.661 L -153.352 184.507 L -153.369 185.788 L -153.416 187.631 L -153.468 188.907 L -153.554 190.743 L -153.641 192.009 L -153.801 194.277 L -153.922 195.528 L -154.142 197.771 L -154.199 198.395 L -154.264 198.931 L -154.468 199.958 L -154.604 200.48 L -154.941 201.471 L -155.146 201.971 L -155.609 202.909 L -155.88 203.376 L -156.461 204.246 L -156.792 204.673 z  M -184.427 156.891 L -184.427 155.199 L -184.427 154.354 L -184.417 154.238 L -184.412 154.18 L -184.397 154.124 L -184.367 154.012 L -184.342 153.959 L -184.293 153.854 L -184.26 153.806 L -184.193 153.711 L -184.152 153.67 L -184.07 153.588 L -184.022 153.554 L -183.927 153.488 L -183.875 153.463 L -183.769 153.414 L -183.713 153.399 L -183.601 153.369 L -183.543 153.364 L -183.427 153.354 L -178.858 153.354 L -176.573 153.354 L -176.515 153.359 L -176.399 153.369 L -176.343 153.384 L -176.231 153.414 L -176.178 153.438 L -176.073 153.488 L -176.025 153.521 L -175.93 153.588 L -175.889 153.629 L -175.807 153.711 L -175.773 153.758 L -175.707 153.854 L -175.682 153.906 L -175.633 154.012 L -175.618 154.068 L -175.588 154.18 L -175.583 154.238 L -175.573 154.354 L -175.573 156.045 L -175.573 156.891 L -175.039 156.891 L -174.773 156.891 L -174.773 157.224 L -174.773 157.391 L -178.291 157.391 L -185.327 157.391 L -185.327 157.058 L -185.327 156.891 L -184.727 156.891 z  " fill= "none" stroke="rgb(0,0,255)" stroke-width="0.05mm" />
</svg>
