<?xml version="1.0" standalone="no"?>
<!DOCTYPE svg PUBLIC "-//W3C//DTD SVG 1.1//EN"
"http://www.w3.org/Graphics/SVG/1.1/DTD/svg11.dtd">
<svg width="56.925mm" height="56.925mm" viewBox="-208.462 209.537 56.925 56.925" xmlns="http://www.w3.org/2000/svg" version = "1.1">
<title>Tilt-Pico-Case-v2-2-cut-parts-white.123dx</title>
<desc> made with 123D Design </desc>
<path d="M -187.16 258.602 L -187.183 258.518 L -187.198 258.344 L -187.205 258.257 L -187.19 258.084 L -187.183 257.997 L -187.138 257.828 L -187.115 257.744 L -187.041 257.586 L -187.004 257.507 L -186.905 257.364 L -186.855 257.293 L -186.731 257.17 L -186.67 257.108 L -186.527 257.008 L -186.455 256.958 L -186.297 256.885 L -186.218 256.848 L -186.05 256.803 L -185.966 256.78 L -185.792 256.765 L -185.705 256.757 L -185.532 256.772 L -185.445 256.78 L -185.277 256.825 L -185.192 256.848 L -185.034 256.921 L -184.955 256.958 L -184.813 257.058 L -184.741 257.108 L -184.618 257.231 L -184.556 257.293 L -184.456 257.436 L -184.406 257.507 L -184.333 257.665 L -184.296 257.744 L -184.251 257.913 L -184.228 257.997 L -184.213 258.17 L -184.205 258.257 L -184.221 258.431 L -184.228 258.518 L -184.273 258.686 L -184.296 258.77 L -184.37 258.928 L -184.406 259.007 L -184.506 259.15 L -184.556 259.221 L -184.68 259.345 L -184.741 259.406 L -184.884 259.506 L -184.955 259.556 L -185.113 259.63 L -185.192 259.667 L -185.361 259.712 L -185.445 259.734 L -185.619 259.75 L -185.705 259.757 L -185.879 259.742 L -185.966 259.734 L -186.134 259.689 L -186.218 259.667 L -186.376 259.593 L -186.455 259.556 L -186.598 259.456 L -186.67 259.406 L -186.793 259.283 L -186.855 259.221 L -186.954 259.079 L -187.004 259.007 L -187.078 258.849 L -187.115 258.77 z  M -183.196 248.251 L -183.044 248.265 L -182.75 248.344 L -182.602 248.383 L -182.326 248.512 L -182.188 248.577 L -181.938 248.752 L -181.813 248.839 L -181.597 249.055 L -181.489 249.163 L -181.314 249.412 L -181.227 249.537 L -181.098 249.814 L -181.033 249.952 L -180.954 250.247 L -180.915 250.394 L -180.888 250.698 L -180.875 250.85 L -180.875 251.233 L -180.875 252 L -180.902 252.304 L -180.915 252.456 L -180.994 252.75 L -181.033 252.898 L -181.162 253.174 L -181.227 253.312 L -181.402 253.562 L -181.489 253.687 L -181.705 253.903 L -181.813 254.011 L -182.063 254.186 L -182.188 254.273 L -182.464 254.402 L -182.602 254.467 L -182.897 254.546 L -183.044 254.585 L -183.348 254.612 L -183.5 254.625 L -183.804 254.598 L -183.956 254.585 L -184.25 254.506 L -184.398 254.467 L -184.674 254.338 L -184.813 254.273 L -185.062 254.098 L -185.187 254.011 L -185.403 253.795 L -185.511 253.687 L -185.686 253.437 L -185.773 253.312 L -185.902 253.036 L -185.967 252.898 L -186.046 252.603 L -186.085 252.456 L -186.112 252.152 L -186.125 252 L -186.125 251.617 L -186.125 250.85 L -186.098 250.546 L -186.085 250.394 L -186.006 250.099 L -185.967 249.952 L -185.838 249.676 L -185.773 249.537 L -185.598 249.288 L -185.511 249.163 L -185.295 248.947 L -185.187 248.839 L -184.937 248.664 L -184.813 248.577 L -184.536 248.448 L -184.398 248.383 L -184.103 248.304 L -183.956 248.265 L -183.652 248.238 L -183.5 248.225 z  M -163.01 222.884 L -163 223 L -163.02 223.232 L -163.03 223.347 L -163.091 223.572 L -163.121 223.684 L -163.219 223.895 L -163.268 224 L -163.401 224.19 L -163.468 224.286 L -163.632 224.45 L -163.714 224.532 L -163.905 224.665 L -164 224.732 L -164.211 224.83 L -164.316 224.879 L -164.54 224.94 L -164.653 224.97 L -164.884 224.99 L -165 225 L -165.232 224.98 L -165.347 224.97 L -165.572 224.909 L -165.684 224.879 L -165.895 224.781 L -166 224.732 L -166.19 224.599 L -166.286 224.532 L -166.45 224.368 L -166.532 224.286 L -166.665 224.095 L -166.732 224 L -166.83 223.789 L -166.879 223.684 L -166.94 223.46 L -166.97 223.347 L -166.99 223.116 L -167 223 L -166.98 222.768 L -166.97 222.653 L -166.909 222.428 L -166.879 222.316 L -166.781 222.105 L -166.732 222 L -166.599 221.81 L -166.532 221.714 L -166.368 221.55 L -166.286 221.468 L -166.095 221.335 L -166 221.268 L -165.789 221.17 L -165.684 221.121 L -165.46 221.06 L -165.347 221.03 L -165.116 221.01 L -165 221 L -164.768 221.02 L -164.653 221.03 L -164.428 221.091 L -164.316 221.121 L -164.105 221.219 L -164 221.268 L -163.81 221.401 L -163.714 221.468 L -163.55 221.632 L -163.468 221.714 L -163.335 221.905 L -163.268 222 L -163.17 222.211 L -163.121 222.316 L -163.06 222.54 L -163.03 222.653 z  M -165.572 254.809 L -165.347 254.87 L -165.232 254.88 L -165 254.9 L -164.884 254.89 L -164.653 254.87 L -164.54 254.84 L -164.316 254.779 L -164.211 254.73 L -164 254.632 L -163.905 254.565 L -163.714 254.432 L -163.632 254.35 L -163.468 254.186 L -163.401 254.09 L -163.268 253.9 L -163.219 253.795 L -163.121 253.584 L -163.091 253.472 L -163.03 253.247 L -163.02 253.132 L -163 252.9 L -163.01 252.784 L -163.03 252.553 L -163.06 252.44 L -163.121 252.216 L -163.17 252.111 L -163.268 251.9 L -163.335 251.805 L -163.468 251.614 L -163.55 251.532 L -163.714 251.368 L -163.81 251.301 L -164 251.168 L -164.105 251.119 L -164.316 251.021 L -164.428 250.991 L -164.653 250.93 L -164.768 250.92 L -165 250.9 L -165.116 250.91 L -165.347 250.93 L -165.46 250.96 L -165.684 251.021 L -165.789 251.07 L -166 251.168 L -166.095 251.235 L -166.286 251.368 L -166.368 251.45 L -166.532 251.614 L -166.599 251.71 L -166.732 251.9 L -166.781 252.005 L -166.879 252.216 L -166.909 252.328 L -166.97 252.553 L -166.98 252.668 L -167 252.9 L -166.99 253.016 L -166.97 253.247 L -166.94 253.36 L -166.879 253.584 L -166.83 253.689 L -166.732 253.9 L -166.665 253.995 L -166.532 254.186 L -166.45 254.268 L -166.286 254.432 L -166.19 254.499 L -166 254.632 L -165.895 254.681 L -165.684 254.779 z  M -193.714 251.368 L -193.55 251.532 L -193.468 251.614 L -193.335 251.805 L -193.268 251.9 L -193.17 252.111 L -193.121 252.216 L -193.06 252.44 L -193.03 252.553 L -193.01 252.784 L -193 252.9 L -193.02 253.132 L -193.03 253.247 L -193.091 253.472 L -193.121 253.584 L -193.219 253.795 L -193.268 253.9 L -193.401 254.09 L -193.468 254.186 L -193.632 254.35 L -193.714 254.432 L -193.905 254.565 L -194 254.632 L -194.211 254.73 L -194.316 254.779 L -194.54 254.84 L -194.653 254.87 L -194.884 254.89 L -195 254.9 L -195.232 254.88 L -195.347 254.87 L -195.572 254.809 L -195.684 254.779 L -195.895 254.681 L -196 254.632 L -196.19 254.499 L -196.286 254.432 L -196.45 254.268 L -196.532 254.186 L -196.665 253.995 L -196.732 253.9 L -196.83 253.689 L -196.879 253.584 L -196.94 253.36 L -196.97 253.247 L -196.99 253.016 L -197 252.9 L -196.98 252.668 L -196.97 252.553 L -196.909 252.328 L -196.879 252.216 L -196.781 252.005 L -196.732 251.9 L -196.599 251.71 L -196.532 251.614 L -196.368 251.45 L -196.286 251.368 L -196.095 251.235 L -196 251.168 L -195.789 251.07 L -195.684 251.021 L -195.46 250.96 L -195.347 250.93 L -195.116 250.91 L -195 250.9 L -194.768 250.92 L -194.653 250.93 L -194.428 250.991 L -194.316 251.021 L -194.105 251.119 L -194 251.168 L -193.81 251.301 z  M -194 224.732 L -193.905 224.665 L -193.714 224.532 L -193.632 224.45 L -193.468 224.286 L -193.401 224.19 L -193.268 224 L -193.219 223.895 L -193.121 223.684 L -193.091 223.572 L -193.03 223.347 L -193.02 223.232 L -193 223 L -193.01 222.884 L -193.03 222.653 L -193.06 222.54 L -193.121 222.316 L -193.17 222.211 L -193.268 222 L -193.335 221.905 L -193.468 221.714 L -193.55 221.632 L -193.714 221.468 L -193.81 221.401 L -194 221.268 L -194.105 221.219 L -194.316 221.121 L -194.428 221.091 L -194.653 221.03 L -194.768 221.02 L -195 221 L -195.116 221.01 L -195.347 221.03 L -195.46 221.06 L -195.684 221.121 L -195.789 221.17 L -196 221.268 L -196.095 221.335 L -196.286 221.468 L -196.368 221.55 L -196.532 221.714 L -196.599 221.81 L -196.732 222 L -196.781 222.105 L -196.879 222.316 L -196.909 222.428 L -196.97 222.653 L -196.98 222.768 L -197 223 L -196.99 223.116 L -196.97 223.347 L -196.94 223.46 L -196.879 223.684 L -196.83 223.789 L -196.732 224 L -196.665 224.095 L -196.532 224.286 L -196.45 224.368 L -196.286 224.532 L -196.19 224.599 L -196 224.732 L -195.895 224.781 L -195.684 224.879 L -195.572 224.909 L -195.347 224.97 L -195.232 224.98 L -195 225 L -194.884 224.99 L -194.653 224.97 L -194.54 224.94 L -194.316 224.879 L -194.211 224.83 z  M -205.841 252.397 L -205.875 251.875 L -205.875 242.625 L -205.875 224.125 L -205.807 223.081 L -205.772 222.559 L -205.568 221.532 L -205.466 221.019 L -205.13 220.028 L -204.962 219.533 L -204.499 218.594 L -204.267 218.125 L -203.686 217.255 L -203.395 216.82 L -203.05 216.426 L -202.36 215.64 L -201.967 215.295 L -201.18 214.605 L -200.31 214.023 L -199.875 213.733 L -198.936 213.27 L -198.467 213.038 L -197.476 212.702 L -196.981 212.534 L -195.954 212.33 L -195.441 212.228 L -194.397 212.159 L -193.875 212.125 L -184.625 212.125 L -166.125 212.125 L -165.081 212.193 L -164.559 212.228 L -163.532 212.432 L -163.019 212.534 L -162.028 212.87 L -161.533 213.038 L -160.594 213.501 L -160.125 213.733 L -159.255 214.314 L -158.82 214.605 L -158.426 214.95 L -157.64 215.64 L -157.295 216.033 L -156.605 216.82 L -156.023 217.69 L -155.733 218.125 L -155.27 219.064 L -155.038 219.533 L -154.702 220.524 L -154.534 221.019 L -154.33 222.046 L -154.228 222.559 L -154.159 223.603 L -154.125 224.125 L -154.125 233.375 L -154.125 251.875 L -154.193 252.919 L -154.228 253.441 L -154.432 254.468 L -154.534 254.981 L -154.87 255.972 L -155.038 256.467 L -155.501 257.406 L -155.733 257.875 L -156.314 258.745 L -156.605 259.18 L -156.95 259.574 L -157.64 260.36 L -158.033 260.705 L -158.82 261.395 L -159.69 261.977 L -160.125 262.267 L -161.064 262.73 L -161.533 262.962 L -162.524 263.298 L -163.019 263.466 L -164.046 263.67 L -164.559 263.772 L -165.603 263.841 L -166.125 263.875 L -175.375 263.875 L -193.875 263.875 L -194.919 263.807 L -195.441 263.772 L -196.468 263.568 L -196.981 263.466 L -197.972 263.13 L -198.467 262.962 L -199.406 262.499 L -199.875 262.267 L -200.745 261.686 L -201.18 261.395 L -201.574 261.05 L -202.36 260.36 L -202.705 259.967 L -203.395 259.18 L -203.977 258.31 L -204.267 257.875 L -204.73 256.936 L -204.962 256.467 L -205.298 255.476 L -205.466 254.981 L -205.67 253.954 L -205.772 253.441 z  " fill= "none" stroke="rgb(0,0,255)" stroke-width="0.05mm" />
</svg>
