<?xml version="1.0" standalone="no"?>
<!DOCTYPE svg PUBLIC "-//W3C//DTD SVG 1.1//EN"
"http://www.w3.org/Graphics/SVG/1.1/DTD/svg11.dtd">
<svg width="56.925mm" height="130.399mm" viewBox="-208.462 142.166 56.925 130.399" xmlns="http://www.w3.org/2000/svg" version = "1.1">
<title>Tilt-Pico-Case-v2-3-cut-parts-white.123dx</title>
<desc> made with 123D Design </desc>
<path d="M -184.213 260.934 L -184.205 261.02 L -184.221 261.194 L -184.228 261.281 L -184.273 261.449 L -184.296 261.533 L -184.37 261.691 L -184.406 261.77 L -184.506 261.913 L -184.556 261.985 L -184.68 262.108 L -184.741 262.169 L -184.884 262.269 L -184.955 262.319 L -185.113 262.393 L -185.192 262.43 L -185.361 262.475 L -185.445 262.498 L -185.619 262.513 L -185.705 262.52 L -185.879 262.505 L -185.966 262.498 L -186.134 262.452 L -186.218 262.43 L -186.376 262.356 L -186.455 262.319 L -186.598 262.219 L -186.67 262.169 L -186.793 262.046 L -186.855 261.985 L -186.954 261.842 L -187.004 261.77 L -187.078 261.612 L -187.115 261.533 L -187.16 261.365 L -187.183 261.281 L -187.198 261.107 L -187.205 261.02 L -187.19 260.847 L -187.183 260.76 L -187.138 260.592 L -187.115 260.507 L -187.041 260.349 L -187.004 260.27 L -186.905 260.128 L -186.855 260.056 L -186.731 259.933 L -186.67 259.871 L -186.527 259.771 L -186.455 259.721 L -186.297 259.648 L -186.218 259.611 L -186.05 259.566 L -185.966 259.543 L -185.792 259.528 L -185.705 259.52 L -185.532 259.536 L -185.445 259.543 L -185.277 259.588 L -185.192 259.611 L -185.034 259.685 L -184.955 259.721 L -184.813 259.821 L -184.741 259.871 L -184.618 259.995 L -184.556 260.056 L -184.456 260.199 L -184.406 260.27 L -184.333 260.428 L -184.296 260.507 L -184.251 260.676 L -184.228 260.76 z  M -188.865 150.625 L -188.865 152.958 L -188.865 154.125 L -190.535 154.125 L -193.875 154.125 L -194.397 154.159 L -195.441 154.228 L -195.954 154.33 L -196.981 154.534 L -197.476 154.702 L -198.467 155.038 L -198.936 155.27 L -199.875 155.733 L -200.31 156.023 L -201.18 156.605 L -201.967 157.295 L -202.36 157.64 L -203.05 158.426 L -203.395 158.82 L -203.686 159.255 L -204.267 160.125 L -204.499 160.594 L -204.962 161.533 L -205.13 162.028 L -205.466 163.019 L -205.568 163.532 L -205.772 164.559 L -205.807 165.081 L -205.875 166.125 L -205.875 184.625 L -205.875 193.875 L -205.841 194.397 L -205.772 195.441 L -205.67 195.954 L -205.466 196.981 L -205.298 197.476 L -204.962 198.467 L -204.73 198.936 L -204.267 199.875 L -203.977 200.31 L -203.395 201.18 L -202.705 201.967 L -202.36 202.36 L -201.574 203.05 L -201.18 203.395 L -200.745 203.686 L -199.875 204.267 L -199.406 204.499 L -198.467 204.962 L -197.972 205.13 L -196.981 205.466 L -196.468 205.568 L -195.441 205.772 L -194.919 205.807 L -193.875 205.875 L -175.375 205.875 L -166.125 205.875 L -165.603 205.841 L -164.559 205.772 L -164.046 205.67 L -163.019 205.466 L -162.524 205.298 L -161.533 204.962 L -161.064 204.73 L -160.125 204.267 L -159.69 203.977 L -158.82 203.395 L -158.033 202.705 L -157.64 202.36 L -156.95 201.574 L -156.605 201.18 L -156.314 200.745 L -155.733 199.875 L -155.501 199.406 L -155.038 198.467 L -154.87 197.972 L -154.534 196.981 L -154.432 196.468 L -154.228 195.441 L -154.193 194.919 L -154.125 193.875 L -154.125 175.375 L -154.125 166.125 L -154.159 165.603 L -154.228 164.559 L -154.33 164.046 L -154.534 163.019 L -154.702 162.524 L -155.038 161.533 L -155.27 161.064 L -155.733 160.125 L -156.023 159.69 L -156.605 158.82 L -157.295 158.033 L -157.64 157.64 L -158.426 156.95 L -158.82 156.605 L -159.255 156.314 L -160.125 155.733 L -160.594 155.501 L -161.533 155.038 L -162.028 154.87 L -163.019 154.534 L -163.532 154.432 L -164.559 154.228 L -165.081 154.193 L -166.125 154.125 L -169.465 154.125 L -171.135 154.125 L -171.135 153.114 L -171.135 151.093 L -171.166 150.746 L -171.181 150.572 L -171.226 150.404 L -171.316 150.067 L -171.39 149.909 L -171.537 149.593 L -171.637 149.451 L -171.837 149.165 L -171.96 149.042 L -172.207 148.795 L -172.35 148.695 L -172.635 148.495 L -172.793 148.422 L -173.109 148.274 L -173.278 148.229 L -173.614 148.139 L -173.788 148.124 L -174.135 148.093 L -181.979 148.093 L -185.901 148.093 L -186.214 148.118 L -186.371 148.13 L -186.676 148.204 L -186.829 148.24 L -187.119 148.36 L -187.264 148.42 L -187.531 148.584 L -187.665 148.667 L -187.904 148.87 L -188.023 148.972 L -188.227 149.211 L -188.329 149.331 L -188.493 149.598 L -188.575 149.732 L -188.695 150.022 L -188.755 150.167 L -188.791 150.32 L -188.865 150.625 z  M -188.865 211.388 L -188.865 213.721 L -188.865 214.888 L -190.535 214.888 L -193.875 214.888 L -194.397 214.922 L -195.441 214.991 L -195.954 215.093 L -196.981 215.297 L -197.476 215.465 L -198.467 215.802 L -198.936 216.033 L -199.875 216.496 L -200.31 216.787 L -201.18 217.368 L -201.967 218.058 L -202.36 218.403 L -203.05 219.19 L -203.395 219.583 L -203.686 220.018 L -204.267 220.888 L -204.499 221.357 L -204.962 222.296 L -205.13 222.791 L -205.466 223.782 L -205.568 224.296 L -205.772 225.322 L -205.807 225.844 L -205.875 226.888 L -205.875 245.388 L -205.875 254.638 L -205.841 255.16 L -205.772 256.204 L -205.67 256.718 L -205.466 257.744 L -205.298 258.239 L -204.962 259.23 L -204.73 259.7 L -204.267 260.638 L -203.977 261.073 L -203.395 261.943 L -202.705 262.73 L -202.36 263.123 L -201.574 263.813 L -201.18 264.158 L -200.745 264.449 L -199.875 265.03 L -199.406 265.262 L -198.467 265.725 L -197.972 265.893 L -196.981 266.229 L -196.468 266.331 L -195.441 266.535 L -194.919 266.57 L -193.875 266.638 L -175.375 266.638 L -166.125 266.638 L -165.603 266.604 L -164.559 266.535 L -164.046 266.433 L -163.019 266.229 L -162.524 266.061 L -161.533 265.725 L -161.064 265.493 L -160.125 265.03 L -159.69 264.74 L -158.82 264.158 L -158.033 263.468 L -157.64 263.123 L -156.95 262.337 L -156.605 261.943 L -156.314 261.508 L -155.733 260.638 L -155.501 260.169 L -155.038 259.23 L -154.87 258.735 L -154.534 257.744 L -154.432 257.231 L -154.228 256.204 L -154.193 255.682 L -154.125 254.638 L -154.125 236.138 L -154.125 226.888 L -154.159 226.366 L -154.228 225.322 L -154.33 224.809 L -154.534 223.782 L -154.702 223.287 L -155.038 222.296 L -155.27 221.827 L -155.733 220.888 L -156.023 220.453 L -156.605 219.583 L -157.295 218.796 L -157.64 218.403 L -158.426 217.713 L -158.82 217.368 L -159.255 217.077 L -160.125 216.496 L -160.594 216.264 L -161.533 215.802 L -162.028 215.633 L -163.019 215.297 L -163.532 215.195 L -164.559 214.991 L -165.081 214.957 L -166.125 214.888 L -169.465 214.888 L -171.135 214.888 L -171.135 213.878 L -171.135 211.856 L -171.166 211.509 L -171.181 211.336 L -171.226 211.167 L -171.316 210.83 L -171.39 210.672 L -171.537 210.356 L -171.637 210.214 L -171.837 209.928 L -171.96 209.805 L -172.207 209.558 L -172.35 209.458 L -172.635 209.258 L -172.793 209.185 L -173.109 209.037 L -173.278 208.992 L -173.614 208.902 L -173.788 208.887 L -174.135 208.856 L -181.979 208.856 L -185.901 208.856 L -186.214 208.881 L -186.371 208.893 L -186.676 208.967 L -186.829 209.003 L -187.119 209.124 L -187.264 209.184 L -187.531 209.348 L -187.665 209.43 L -187.904 209.634 L -188.023 209.736 L -188.227 209.974 L -188.329 210.094 L -188.493 210.361 L -188.575 210.495 L -188.695 210.785 L -188.755 210.93 L -188.791 211.083 L -188.865 211.388 z  M -196 166.732 L -195.895 166.781 L -195.684 166.879 L -195.572 166.909 L -195.347 166.97 L -195.232 166.98 L -195 167 L -194.884 166.99 L -194.653 166.97 L -194.54 166.94 L -194.316 166.879 L -194.211 166.83 L -194 166.732 L -193.905 166.665 L -193.714 166.532 L -193.632 166.45 L -193.468 166.286 L -193.401 166.19 L -193.268 166 L -193.219 165.895 L -193.121 165.684 L -193.091 165.572 L -193.03 165.347 L -193.02 165.232 L -193 165 L -193.01 164.884 L -193.03 164.653 L -193.06 164.54 L -193.121 164.316 L -193.17 164.211 L -193.268 164 L -193.335 163.905 L -193.468 163.714 L -193.55 163.632 L -193.714 163.468 L -193.81 163.401 L -194 163.268 L -194.105 163.219 L -194.316 163.121 L -194.428 163.091 L -194.653 163.03 L -194.768 163.02 L -195 163 L -195.116 163.01 L -195.347 163.03 L -195.46 163.06 L -195.684 163.121 L -195.789 163.17 L -196 163.268 L -196.095 163.335 L -196.286 163.468 L -196.368 163.55 L -196.532 163.714 L -196.599 163.81 L -196.732 164 L -196.781 164.105 L -196.879 164.316 L -196.909 164.428 L -196.97 164.653 L -196.98 164.768 L -197 165 L -196.99 165.116 L -196.97 165.347 L -196.94 165.46 L -196.879 165.684 L -196.83 165.789 L -196.732 166 L -196.665 166.095 L -196.532 166.286 L -196.45 166.368 L -196.286 166.532 L -196.19 166.599 z  M -195.895 227.544 L -195.684 227.643 L -195.572 227.673 L -195.347 227.733 L -195.232 227.743 L -195 227.763 L -194.884 227.753 L -194.653 227.733 L -194.54 227.703 L -194.316 227.643 L -194.211 227.593 L -194 227.495 L -193.905 227.429 L -193.714 227.295 L -193.632 227.213 L -193.468 227.049 L -193.401 226.954 L -193.268 226.763 L -193.219 226.658 L -193.121 226.447 L -193.091 226.335 L -193.03 226.11 L -193.02 225.995 L -193 225.763 L -193.01 225.647 L -193.03 225.416 L -193.06 225.304 L -193.121 225.079 L -193.17 224.974 L -193.268 224.763 L -193.335 224.668 L -193.468 224.478 L -193.55 224.395 L -193.714 224.231 L -193.81 224.164 L -194 224.031 L -194.105 223.982 L -194.316 223.884 L -194.428 223.854 L -194.653 223.794 L -194.768 223.783 L -195 223.763 L -195.116 223.773 L -195.347 223.794 L -195.46 223.824 L -195.684 223.884 L -195.789 223.933 L -196 224.031 L -196.095 224.098 L -196.286 224.231 L -196.368 224.313 L -196.532 224.478 L -196.599 224.573 L -196.732 224.763 L -196.781 224.868 L -196.879 225.079 L -196.909 225.191 L -196.97 225.416 L -196.98 225.532 L -197 225.763 L -196.99 225.879 L -196.97 226.11 L -196.94 226.223 L -196.879 226.447 L -196.83 226.553 L -196.732 226.763 L -196.665 226.858 L -196.532 227.049 L -196.45 227.131 L -196.286 227.295 L -196.19 227.362 L -196 227.495 z  M -165.347 223.794 L -165.116 223.773 L -165 223.763 L -164.768 223.783 L -164.653 223.794 L -164.428 223.854 L -164.316 223.884 L -164.105 223.982 L -164 224.031 L -163.81 224.164 L -163.714 224.231 L -163.55 224.395 L -163.468 224.478 L -163.335 224.668 L -163.268 224.763 L -163.17 224.974 L -163.121 225.079 L -163.06 225.304 L -163.03 225.416 L -163.01 225.647 L -163 225.763 L -163.02 225.995 L -163.03 226.11 L -163.091 226.335 L -163.121 226.447 L -163.219 226.658 L -163.268 226.763 L -163.401 226.954 L -163.468 227.049 L -163.632 227.213 L -163.714 227.295 L -163.905 227.429 L -164 227.495 L -164.211 227.593 L -164.316 227.643 L -164.54 227.703 L -164.653 227.733 L -164.884 227.753 L -165 227.763 L -165.232 227.743 L -165.347 227.733 L -165.572 227.673 L -165.684 227.643 L -165.895 227.544 L -166 227.495 L -166.19 227.362 L -166.286 227.295 L -166.45 227.131 L -166.532 227.049 L -166.665 226.858 L -166.732 226.763 L -166.83 226.553 L -166.879 226.447 L -166.94 226.223 L -166.97 226.11 L -166.99 225.879 L -167 225.763 L -166.98 225.532 L -166.97 225.416 L -166.909 225.191 L -166.879 225.079 L -166.781 224.868 L -166.732 224.763 L -166.599 224.573 L -166.532 224.478 L -166.368 224.313 L -166.286 224.231 L -166.095 224.098 L -166 224.031 L -165.789 223.933 L -165.684 223.884 L -165.46 223.824 z  M -165.116 163.01 L -165 163 L -164.768 163.02 L -164.653 163.03 L -164.428 163.091 L -164.316 163.121 L -164.105 163.219 L -164 163.268 L -163.81 163.401 L -163.714 163.468 L -163.55 163.632 L -163.468 163.714 L -163.335 163.905 L -163.268 164 L -163.17 164.211 L -163.121 164.316 L -163.06 164.54 L -163.03 164.653 L -163.01 164.884 L -163 165 L -163.02 165.232 L -163.03 165.347 L -163.091 165.572 L -163.121 165.684 L -163.219 165.895 L -163.268 166 L -163.401 166.19 L -163.468 166.286 L -163.632 166.45 L -163.714 166.532 L -163.905 166.665 L -164 166.732 L -164.211 166.83 L -164.316 166.879 L -164.54 166.94 L -164.653 166.97 L -164.884 166.99 L -165 167 L -165.232 166.98 L -165.347 166.97 L -165.572 166.909 L -165.684 166.879 L -165.895 166.781 L -166 166.732 L -166.19 166.599 L -166.286 166.532 L -166.45 166.368 L -166.532 166.286 L -166.665 166.095 L -166.732 166 L -166.83 165.789 L -166.879 165.684 L -166.94 165.46 L -166.97 165.347 L -166.99 165.116 L -167 165 L -166.98 164.768 L -166.97 164.653 L -166.909 164.428 L -166.879 164.316 L -166.781 164.105 L -166.732 164 L -166.599 163.81 L -166.532 163.714 L -166.368 163.55 L -166.286 163.468 L -166.095 163.335 L -166 163.268 L -165.789 163.17 L -165.684 163.121 L -165.46 163.06 L -165.347 163.03 z  M -193.06 194.44 L -193.03 194.553 L -193.01 194.784 L -193 194.9 L -193.02 195.132 L -193.03 195.247 L -193.091 195.472 L -193.121 195.584 L -193.219 195.795 L -193.268 195.9 L -193.401 196.09 L -193.468 196.186 L -193.632 196.35 L -193.714 196.432 L -193.905 196.565 L -194 196.632 L -194.211 196.73 L -194.316 196.779 L -194.54 196.84 L -194.653 196.87 L -194.884 196.89 L -195 196.9 L -195.232 196.88 L -195.347 196.87 L -195.572 196.809 L -195.684 196.779 L -195.895 196.681 L -196 196.632 L -196.19 196.499 L -196.286 196.432 L -196.45 196.268 L -196.532 196.186 L -196.665 195.995 L -196.732 195.9 L -196.83 195.689 L -196.879 195.584 L -196.94 195.36 L -196.97 195.247 L -196.99 195.016 L -197 194.9 L -196.98 194.668 L -196.97 194.553 L -196.909 194.328 L -196.879 194.216 L -196.781 194.005 L -196.732 193.9 L -196.599 193.71 L -196.532 193.614 L -196.368 193.45 L -196.286 193.368 L -196.095 193.235 L -196 193.168 L -195.789 193.07 L -195.684 193.021 L -195.46 192.96 L -195.347 192.93 L -195.116 192.91 L -195 192.9 L -194.768 192.92 L -194.653 192.93 L -194.428 192.991 L -194.316 193.021 L -194.105 193.119 L -194 193.168 L -193.81 193.301 L -193.714 193.368 L -193.55 193.532 L -193.468 193.614 L -193.335 193.805 L -193.268 193.9 L -193.17 194.111 L -193.121 194.216 z  M -193.06 255.204 L -193.03 255.316 L -193.01 255.547 L -193 255.663 L -193.02 255.895 L -193.03 256.01 L -193.091 256.235 L -193.121 256.347 L -193.219 256.558 L -193.268 256.663 L -193.401 256.854 L -193.468 256.949 L -193.632 257.113 L -193.714 257.195 L -193.905 257.329 L -194 257.395 L -194.211 257.493 L -194.316 257.543 L -194.54 257.603 L -194.653 257.633 L -194.884 257.653 L -195 257.663 L -195.232 257.643 L -195.347 257.633 L -195.572 257.573 L -195.684 257.543 L -195.895 257.444 L -196 257.395 L -196.19 257.262 L -196.286 257.195 L -196.45 257.031 L -196.532 256.949 L -196.665 256.758 L -196.732 256.663 L -196.83 256.453 L -196.879 256.347 L -196.94 256.123 L -196.97 256.01 L -196.99 255.779 L -197 255.663 L -196.98 255.432 L -196.97 255.316 L -196.909 255.091 L -196.879 254.979 L -196.781 254.768 L -196.732 254.663 L -196.599 254.473 L -196.532 254.378 L -196.368 254.213 L -196.286 254.131 L -196.095 253.998 L -196 253.931 L -195.789 253.833 L -195.684 253.784 L -195.46 253.724 L -195.347 253.694 L -195.116 253.673 L -195 253.663 L -194.768 253.683 L -194.653 253.694 L -194.428 253.754 L -194.316 253.784 L -194.105 253.882 L -194 253.931 L -193.81 254.064 L -193.714 254.131 L -193.55 254.295 L -193.468 254.378 L -193.335 254.568 L -193.268 254.663 L -193.17 254.874 L -193.121 254.979 z  M -163.06 194.44 L -163.03 194.553 L -163.01 194.784 L -163 194.9 L -163.02 195.132 L -163.03 195.247 L -163.091 195.472 L -163.121 195.584 L -163.219 195.795 L -163.268 195.9 L -163.401 196.09 L -163.468 196.186 L -163.632 196.35 L -163.714 196.432 L -163.905 196.565 L -164 196.632 L -164.211 196.73 L -164.316 196.779 L -164.54 196.84 L -164.653 196.87 L -164.884 196.89 L -165 196.9 L -165.232 196.88 L -165.347 196.87 L -165.572 196.809 L -165.684 196.779 L -165.895 196.681 L -166 196.632 L -166.19 196.499 L -166.286 196.432 L -166.45 196.268 L -166.532 196.186 L -166.665 195.995 L -166.732 195.9 L -166.83 195.689 L -166.879 195.584 L -166.94 195.36 L -166.97 195.247 L -166.99 195.016 L -167 194.9 L -166.98 194.668 L -166.97 194.553 L -166.909 194.328 L -166.879 194.216 L -166.781 194.005 L -166.732 193.9 L -166.599 193.71 L -166.532 193.614 L -166.368 193.45 L -166.286 193.368 L -166.095 193.235 L -166 193.168 L -165.789 193.07 L -165.684 193.021 L -165.46 192.96 L -165.347 192.93 L -165.116 192.91 L -165 192.9 L -164.768 192.92 L -164.653 192.93 L -164.428 192.991 L -164.316 193.021 L -164.105 193.119 L -164 193.168 L -163.81 193.301 L -163.714 193.368 L -163.55 193.532 L -163.468 193.614 L -163.335 193.805 L -163.268 193.9 L -163.17 194.111 L -163.121 194.216 z  M -163.06 255.204 L -163.03 255.316 L -163.01 255.547 L -163 255.663 L -163.02 255.895 L -163.03 256.01 L -163.091 256.235 L -163.121 256.347 L -163.219 256.558 L -163.268 256.663 L -163.401 256.854 L -163.468 256.949 L -163.632 257.113 L -163.714 257.195 L -163.905 257.329 L -164 257.395 L -164.211 257.493 L -164.316 257.543 L -164.54 257.603 L -164.653 257.633 L -164.884 257.653 L -165 257.663 L -165.232 257.643 L -165.347 257.633 L -165.572 257.573 L -165.684 257.543 L -165.895 257.444 L -166 257.395 L -166.19 257.262 L -166.286 257.195 L -166.45 257.031 L -166.532 256.949 L -166.665 256.758 L -166.732 256.663 L -166.83 256.453 L -166.879 256.347 L -166.94 256.123 L -166.97 256.01 L -166.99 255.779 L -167 255.663 L -166.98 255.432 L -166.97 255.316 L -166.909 255.091 L -166.879 254.979 L -166.781 254.768 L -166.732 254.663 L -166.599 254.473 L -166.532 254.378 L -166.368 254.213 L -166.286 254.131 L -166.095 253.998 L -166 253.931 L -165.789 253.833 L -165.684 253.784 L -165.46 253.724 L -165.347 253.694 L -165.116 253.673 L -165 253.663 L -164.768 253.683 L -164.653 253.694 L -164.428 253.754 L -164.316 253.784 L -164.105 253.882 L -164 253.931 L -163.81 254.064 L -163.714 254.131 L -163.55 254.295 L -163.468 254.378 L -163.335 254.568 L -163.268 254.663 L -163.17 254.874 L -163.121 254.979 z  M -185.227 154.125 L -181.742 154.125 L -174.773 154.125 L -174.773 153.958 L -174.773 153.625 L -175.039 153.625 L -175.573 153.625 L -175.573 152.946 L -175.573 151.588 L -175.583 151.472 L -175.588 151.414 L -175.618 151.302 L -175.633 151.246 L -175.682 151.14 L -175.707 151.088 L -175.773 150.993 L -175.807 150.945 L -175.889 150.863 L -175.93 150.822 L -176.025 150.755 L -176.073 150.722 L -176.178 150.673 L -176.231 150.648 L -176.343 150.618 L -176.399 150.603 L -176.515 150.593 L -176.573 150.588 L -178.858 150.588 L -183.427 150.588 L -183.543 150.598 L -183.601 150.603 L -183.713 150.633 L -183.769 150.648 L -183.875 150.697 L -183.927 150.722 L -184.022 150.788 L -184.07 150.822 L -184.152 150.904 L -184.193 150.945 L -184.26 151.04 L -184.293 151.088 L -184.342 151.193 L -184.367 151.246 L -184.397 151.358 L -184.412 151.414 L -184.422 151.53 L -184.427 151.588 L -184.427 152.267 L -184.427 153.625 L -184.694 153.625 L -185.227 153.625 L -185.227 153.792 z  M -175.039 214.388 L -174.773 214.388 L -174.773 214.722 L -174.773 214.888 L -181.742 214.888 L -185.227 214.888 L -185.227 214.555 L -185.227 214.388 L -184.694 214.388 L -184.427 214.388 L -184.427 213.03 L -184.427 212.351 L -184.422 212.293 L -184.412 212.177 L -184.397 212.121 L -184.367 212.009 L -184.342 211.956 L -184.293 211.851 L -184.26 211.803 L -184.193 211.708 L -184.152 211.667 L -184.07 211.585 L -184.022 211.552 L -183.927 211.485 L -183.875 211.46 L -183.769 211.411 L -183.713 211.396 L -183.601 211.366 L -183.543 211.361 L -183.427 211.351 L -178.858 211.351 L -176.573 211.351 L -176.515 211.356 L -176.399 211.366 L -176.343 211.381 L -176.231 211.411 L -176.178 211.436 L -176.073 211.485 L -176.025 211.518 L -175.93 211.585 L -175.889 211.626 L -175.807 211.708 L -175.773 211.756 L -175.707 211.851 L -175.682 211.904 L -175.633 212.009 L -175.618 212.065 L -175.588 212.177 L -175.583 212.235 L -175.573 212.351 L -175.573 213.709 L -175.573 214.388 z  " fill= "none" stroke="rgb(0,0,255)" stroke-width="0.05mm" />
</svg>
