<?xml version="1.0" standalone="no"?>
<!DOCTYPE svg PUBLIC "-//W3C//DTD SVG 1.1//EN"
"http://www.w3.org/Graphics/SVG/1.1/DTD/svg11.dtd">
<svg width="56.925mm" height="130.399mm" viewBox="-208.462 142.166 56.925 130.399" xmlns="http://www.w3.org/2000/svg" version = "1.1">
<title>Tilt-Pico-Case-v2-3-cut-parts-white.123dx</title>
<desc> made with 123D Design </desc>
<path d="M -196.532 256.949 L -196.287 257.194 L -196.286 257.195 L -196.002 257.394 L -196 257.395 L -195.686 257.542 L -195.684 257.543 L -195.35 257.632 L -195.347 257.633 L -195.002 257.663 L -195 257.663 L -194.655 257.633 L -194.653 257.633 L -194.318 257.543 L -194.316 257.543 L -194.002 257.396 L -194 257.395 L -193.716 257.197 L -193.714 257.195 L -193.47 256.95 L -193.468 256.949 L -193.269 256.665 L -193.268 256.663 L -193.122 256.349 L -193.121 256.347 L -193.031 256.013 L -193.03 256.01 L -193 255.665 L -193 255.663 L -193.03 255.318 L -193.03 255.316 L -193.12 254.981 L -193.121 254.979 L -193.267 254.665 L -193.268 254.663 L -193.467 254.379 L -193.468 254.378 L -193.713 254.133 L -193.714 254.131 L -193.998 253.932 L -194 253.931 L -194.314 253.785 L -194.316 253.784 L -194.65 253.694 L -194.653 253.694 L -194.998 253.663 L -195 253.663 L -195.345 253.693 L -195.347 253.694 L -195.682 253.783 L -195.684 253.784 L -195.998 253.93 L -196 253.931 L -196.284 254.13 L -196.286 254.131 L -196.53 254.376 L -196.532 254.378 L -196.731 254.661 L -196.732 254.663 L -196.878 254.977 L -196.879 254.979 L -196.969 255.314 L -196.97 255.316 L -197 255.661 L -197 255.663 L -196.97 256.008 L -196.97 256.01 L -196.88 256.345 L -196.879 256.347 L -196.733 256.661 L -196.732 256.663 L -196.533 256.947 z  M -164.653 257.633 L -164.318 257.543 L -164.316 257.543 L -164.002 257.396 L -164 257.395 L -163.716 257.197 L -163.714 257.195 L -163.47 256.95 L -163.468 256.949 L -163.269 256.665 L -163.268 256.663 L -163.122 256.349 L -163.121 256.347 L -163.031 256.013 L -163.03 256.01 L -163 255.665 L -163 255.663 L -163.03 255.318 L -163.03 255.316 L -163.12 254.981 L -163.121 254.979 L -163.267 254.665 L -163.268 254.663 L -163.467 254.379 L -163.468 254.378 L -163.713 254.133 L -163.714 254.131 L -163.998 253.932 L -164 253.931 L -164.314 253.785 L -164.316 253.784 L -164.65 253.694 L -164.653 253.694 L -164.998 253.663 L -165 253.663 L -165.345 253.693 L -165.347 253.694 L -165.682 253.783 L -165.684 253.784 L -165.998 253.93 L -166 253.931 L -166.284 254.13 L -166.286 254.131 L -166.53 254.376 L -166.532 254.378 L -166.731 254.661 L -166.732 254.663 L -166.878 254.977 L -166.879 254.979 L -166.969 255.314 L -166.97 255.316 L -167 255.661 L -167 255.663 L -166.97 256.008 L -166.97 256.01 L -166.88 256.345 L -166.879 256.347 L -166.733 256.661 L -166.732 256.663 L -166.533 256.947 L -166.532 256.949 L -166.287 257.194 L -166.286 257.195 L -166.002 257.394 L -166 257.395 L -165.686 257.542 L -165.684 257.543 L -165.35 257.632 L -165.347 257.633 L -165.002 257.663 L -165 257.663 L -164.655 257.633 z  M -196.879 195.584 L -196.733 195.898 L -196.732 195.9 L -196.533 196.184 L -196.532 196.186 L -196.287 196.43 L -196.286 196.432 L -196.002 196.631 L -196 196.632 L -195.686 196.778 L -195.684 196.779 L -195.35 196.869 L -195.347 196.87 L -195.002 196.9 L -195 196.9 L -194.655 196.87 L -194.653 196.87 L -194.318 196.78 L -194.316 196.779 L -194.002 196.633 L -194 196.632 L -193.716 196.433 L -193.714 196.432 L -193.47 196.187 L -193.468 196.186 L -193.269 195.902 L -193.268 195.9 L -193.122 195.586 L -193.121 195.584 L -193.031 195.25 L -193.03 195.247 L -193 194.902 L -193 194.9 L -193.03 194.555 L -193.03 194.553 L -193.12 194.218 L -193.121 194.216 L -193.267 193.902 L -193.268 193.9 L -193.467 193.616 L -193.468 193.614 L -193.713 193.37 L -193.714 193.368 L -193.998 193.169 L -194 193.168 L -194.314 193.022 L -194.316 193.021 L -194.65 192.931 L -194.653 192.93 L -194.998 192.9 L -195 192.9 L -195.345 192.93 L -195.347 192.93 L -195.682 193.02 L -195.684 193.021 L -195.998 193.167 L -196 193.168 L -196.284 193.367 L -196.286 193.368 L -196.53 193.613 L -196.532 193.614 L -196.731 193.898 L -196.732 193.9 L -196.878 194.214 L -196.879 194.216 L -196.969 194.55 L -196.97 194.553 L -197 194.898 L -197 194.9 L -196.97 195.245 L -196.97 195.247 L -196.88 195.582 z  M -165.347 196.87 L -165.002 196.9 L -165 196.9 L -164.655 196.87 L -164.653 196.87 L -164.318 196.78 L -164.316 196.779 L -164.002 196.633 L -164 196.632 L -163.716 196.433 L -163.714 196.432 L -163.47 196.187 L -163.468 196.186 L -163.269 195.902 L -163.268 195.9 L -163.122 195.586 L -163.121 195.584 L -163.031 195.25 L -163.03 195.247 L -163 194.902 L -163 194.9 L -163.03 194.555 L -163.03 194.553 L -163.12 194.218 L -163.121 194.216 L -163.267 193.902 L -163.268 193.9 L -163.467 193.616 L -163.468 193.614 L -163.713 193.37 L -163.714 193.368 L -163.998 193.169 L -164 193.168 L -164.314 193.022 L -164.316 193.021 L -164.65 192.931 L -164.653 192.93 L -164.998 192.9 L -165 192.9 L -165.345 192.93 L -165.347 192.93 L -165.682 193.02 L -165.684 193.021 L -165.998 193.167 L -166 193.168 L -166.284 193.367 L -166.286 193.368 L -166.53 193.613 L -166.532 193.614 L -166.731 193.898 L -166.732 193.9 L -166.878 194.214 L -166.879 194.216 L -166.969 194.55 L -166.97 194.553 L -167 194.898 L -167 194.9 L -166.97 195.245 L -166.97 195.247 L -166.88 195.582 L -166.879 195.584 L -166.733 195.898 L -166.732 195.9 L -166.533 196.184 L -166.532 196.186 L -166.287 196.43 L -166.286 196.432 L -166.002 196.631 L -166 196.632 L -165.686 196.778 L -165.684 196.779 L -165.35 196.869 z  M -188.865 150.625 L -188.864 150.622 L -188.755 150.167 L -188.576 149.735 L -188.575 149.732 L -188.331 149.333 L -188.329 149.331 L -188.025 148.975 L -188.023 148.972 L -187.668 148.669 L -187.665 148.667 L -187.266 148.422 L -187.264 148.42 L -186.832 148.241 L -186.829 148.24 L -186.374 148.131 L -186.371 148.13 L -185.905 148.094 L -185.901 148.093 L -174.214 148.093 L -174.135 148.093 L -174.132 148.094 L -173.614 148.139 L -173.611 148.14 L -173.109 148.274 L -173.106 148.276 L -172.635 148.495 L -172.632 148.497 L -172.207 148.795 L -172.204 148.798 L -171.837 149.165 L -171.835 149.168 L -171.537 149.593 L -171.536 149.596 L -171.316 150.067 L -171.315 150.071 L -171.181 150.572 L -171.136 151.09 L -171.135 151.093 L -171.135 151.114 L -171.135 154.125 L -166.158 154.125 L -166.125 154.125 L -166.115 154.126 L -164.559 154.228 L -164.548 154.23 L -163.019 154.534 L -163.009 154.537 L -161.533 155.038 L -161.523 155.043 L -160.125 155.733 L -160.116 155.739 L -158.82 156.605 L -157.648 157.633 L -157.64 157.64 L -156.612 158.812 L -156.605 158.82 L -156.599 158.829 L -155.733 160.125 L -155.728 160.134 L -155.038 161.533 L -155.035 161.543 L -154.534 163.019 L -154.532 163.029 L -154.228 164.559 L -154.227 164.569 L -154.125 166.125 L -154.125 193.69 L -154.125 193.875 L -154.126 193.885 L -154.228 195.441 L -154.23 195.452 L -154.534 196.981 L -154.537 196.991 L -155.038 198.467 L -155.043 198.477 L -155.733 199.875 L -155.739 199.884 L -156.605 201.18 L -157.633 202.352 L -157.64 202.36 L -158.812 203.388 L -158.82 203.395 L -158.829 203.401 L -160.125 204.267 L -160.134 204.272 L -161.533 204.962 L -161.543 204.965 L -163.019 205.466 L -163.029 205.468 L -164.559 205.772 L -164.569 205.773 L -166.125 205.875 L -193.69 205.875 L -193.875 205.875 L -193.885 205.874 L -195.441 205.772 L -195.452 205.77 L -196.981 205.466 L -196.991 205.463 L -198.467 204.962 L -198.477 204.957 L -199.875 204.267 L -199.884 204.261 L -201.18 203.395 L -202.352 202.367 L -202.36 202.36 L -203.388 201.188 L -203.395 201.18 L -203.401 201.171 L -204.267 199.875 L -204.272 199.866 L -204.962 198.467 L -204.965 198.457 L -205.466 196.981 L -205.468 196.971 L -205.772 195.441 L -205.773 195.431 L -205.875 193.875 L -205.875 166.31 L -205.875 166.125 L -205.874 166.115 L -205.772 164.559 L -205.77 164.548 L -205.466 163.019 L -205.463 163.009 L -204.962 161.533 L -204.957 161.523 L -204.267 160.125 L -204.261 160.116 L -203.395 158.82 L -202.367 157.648 L -202.36 157.64 L -201.188 156.612 L -201.18 156.605 L -201.171 156.599 L -199.875 155.733 L -199.866 155.728 L -198.467 155.038 L -198.457 155.035 L -196.981 154.534 L -196.971 154.532 L -195.441 154.228 L -195.431 154.227 L -193.875 154.125 L -193.842 154.125 L -188.865 154.125 L -188.865 150.648 L -188.865 150.625 z  M -188.865 211.388 L -188.864 211.385 L -188.755 210.93 L -188.576 210.498 L -188.575 210.495 L -188.331 210.096 L -188.329 210.094 L -188.025 209.738 L -188.023 209.736 L -187.668 209.432 L -187.665 209.43 L -187.266 209.185 L -187.264 209.184 L -186.832 209.005 L -186.829 209.003 L -186.374 208.894 L -186.371 208.893 L -185.905 208.857 L -185.901 208.856 L -174.214 208.856 L -174.135 208.856 L -174.132 208.857 L -173.614 208.902 L -173.611 208.903 L -173.109 209.037 L -173.106 209.039 L -172.635 209.258 L -172.632 209.26 L -172.207 209.558 L -172.204 209.561 L -171.837 209.928 L -171.835 209.931 L -171.537 210.356 L -171.536 210.36 L -171.316 210.83 L -171.315 210.834 L -171.181 211.336 L -171.136 211.853 L -171.135 211.856 L -171.135 211.877 L -171.135 214.888 L -166.158 214.888 L -166.125 214.888 L -166.115 214.889 L -164.559 214.991 L -164.548 214.993 L -163.019 215.297 L -163.009 215.3 L -161.533 215.802 L -161.523 215.806 L -160.125 216.496 L -160.116 216.502 L -158.82 217.368 L -157.648 218.396 L -157.64 218.403 L -156.612 219.575 L -156.605 219.583 L -156.599 219.592 L -155.733 220.888 L -155.728 220.898 L -155.038 222.296 L -155.035 222.306 L -154.534 223.782 L -154.532 223.793 L -154.228 225.322 L -154.227 225.332 L -154.125 226.888 L -154.125 254.453 L -154.125 254.638 L -154.126 254.649 L -154.228 256.204 L -154.23 256.215 L -154.534 257.744 L -154.537 257.754 L -155.038 259.23 L -155.043 259.24 L -155.733 260.638 L -155.739 260.647 L -156.605 261.943 L -157.633 263.116 L -157.64 263.123 L -158.812 264.151 L -158.82 264.158 L -158.829 264.164 L -160.125 265.03 L -160.134 265.035 L -161.533 265.725 L -161.543 265.728 L -163.019 266.229 L -163.029 266.231 L -164.559 266.535 L -164.569 266.536 L -166.125 266.638 L -193.69 266.638 L -193.875 266.638 L -193.885 266.637 L -195.441 266.535 L -195.452 266.533 L -196.981 266.229 L -196.991 266.226 L -198.467 265.725 L -198.477 265.72 L -199.875 265.03 L -199.884 265.025 L -201.18 264.158 L -202.352 263.13 L -202.36 263.123 L -203.388 261.951 L -203.395 261.943 L -203.401 261.935 L -204.267 260.638 L -204.272 260.629 L -204.962 259.23 L -204.965 259.22 L -205.466 257.744 L -205.468 257.734 L -205.772 256.204 L -205.773 256.194 L -205.875 254.638 L -205.875 227.073 L -205.875 226.888 L -205.874 226.878 L -205.772 225.322 L -205.77 225.312 L -205.466 223.782 L -205.463 223.772 L -204.962 222.296 L -204.957 222.287 L -204.267 220.888 L -204.261 220.879 L -203.395 219.583 L -202.367 218.411 L -202.36 218.403 L -201.188 217.375 L -201.18 217.368 L -201.171 217.362 L -199.875 216.496 L -199.866 216.491 L -198.467 215.802 L -198.457 215.798 L -196.981 215.297 L -196.971 215.295 L -195.441 214.991 L -195.431 214.99 L -193.875 214.888 L -193.842 214.888 L -188.865 214.888 L -188.865 211.411 L -188.865 211.388 z  M -166.97 165.347 L -166.88 165.682 L -166.879 165.684 L -166.733 165.998 L -166.732 166 L -166.533 166.284 L -166.532 166.286 L -166.287 166.53 L -166.286 166.532 L -166.002 166.731 L -166 166.732 L -165.686 166.878 L -165.684 166.879 L -165.35 166.969 L -165.347 166.97 L -165.002 167 L -165 167 L -164.655 166.97 L -164.653 166.97 L -164.318 166.88 L -164.316 166.879 L -164.002 166.733 L -164 166.732 L -163.716 166.533 L -163.714 166.532 L -163.47 166.287 L -163.468 166.286 L -163.269 166.002 L -163.268 166 L -163.122 165.686 L -163.121 165.684 L -163.031 165.35 L -163.03 165.347 L -163 165.002 L -163 165 L -163.03 164.655 L -163.03 164.653 L -163.12 164.318 L -163.121 164.316 L -163.267 164.002 L -163.268 164 L -163.467 163.716 L -163.468 163.714 L -163.713 163.47 L -163.714 163.468 L -163.998 163.269 L -164 163.268 L -164.314 163.122 L -164.316 163.121 L -164.65 163.031 L -164.653 163.03 L -164.998 163 L -165 163 L -165.345 163.03 L -165.347 163.03 L -165.682 163.12 L -165.684 163.121 L -165.998 163.267 L -166 163.268 L -166.284 163.467 L -166.286 163.468 L -166.53 163.713 L -166.532 163.714 L -166.731 163.998 L -166.732 164 L -166.878 164.314 L -166.879 164.316 L -166.969 164.65 L -166.97 164.653 L -167 164.998 L -167 165 L -166.97 165.345 z  M -166.97 226.11 L -166.88 226.445 L -166.879 226.447 L -166.733 226.761 L -166.732 226.763 L -166.533 227.047 L -166.532 227.049 L -166.287 227.294 L -166.286 227.295 L -166.002 227.494 L -166 227.495 L -165.686 227.642 L -165.684 227.643 L -165.35 227.732 L -165.347 227.733 L -165.002 227.763 L -165 227.763 L -164.655 227.733 L -164.653 227.733 L -164.318 227.643 L -164.316 227.643 L -164.002 227.496 L -164 227.495 L -163.716 227.297 L -163.714 227.295 L -163.47 227.05 L -163.468 227.049 L -163.269 226.765 L -163.268 226.763 L -163.122 226.449 L -163.121 226.447 L -163.031 226.113 L -163.03 226.11 L -163 225.765 L -163 225.763 L -163.03 225.418 L -163.03 225.416 L -163.12 225.081 L -163.121 225.079 L -163.267 224.765 L -163.268 224.763 L -163.467 224.479 L -163.468 224.478 L -163.713 224.233 L -163.714 224.231 L -163.998 224.032 L -164 224.031 L -164.314 223.885 L -164.316 223.884 L -164.65 223.794 L -164.653 223.794 L -164.998 223.763 L -165 223.763 L -165.345 223.793 L -165.347 223.794 L -165.682 223.883 L -165.684 223.884 L -165.998 224.03 L -166 224.031 L -166.284 224.23 L -166.286 224.231 L -166.53 224.476 L -166.532 224.478 L -166.731 224.761 L -166.732 224.763 L -166.878 225.077 L -166.879 225.079 L -166.969 225.414 L -166.97 225.416 L -167 225.761 L -167 225.763 L -166.97 226.108 z  M -185.227 214.888 L -174.842 214.888 L -174.773 214.888 L -174.773 214.392 L -174.773 214.388 L -175.567 214.388 L -175.573 214.388 L -175.573 212.364 L -175.573 212.351 L -175.573 212.35 L -175.588 212.177 L -175.588 212.176 L -175.633 212.009 L -175.634 212.008 L -175.707 211.851 L -175.707 211.85 L -175.807 211.708 L -175.807 211.707 L -175.93 211.585 L -175.931 211.584 L -176.073 211.485 L -176.074 211.484 L -176.231 211.411 L -176.232 211.411 L -176.399 211.366 L -176.4 211.366 L -176.573 211.351 L -183.382 211.351 L -183.427 211.351 L -183.428 211.351 L -183.601 211.366 L -183.602 211.366 L -183.769 211.411 L -183.77 211.412 L -183.927 211.485 L -183.928 211.486 L -184.07 211.585 L -184.071 211.586 L -184.193 211.708 L -184.194 211.709 L -184.293 211.851 L -184.294 211.852 L -184.367 212.009 L -184.367 212.01 L -184.412 212.177 L -184.412 212.178 L -184.427 212.351 L -184.427 214.375 L -184.427 214.388 L -185.222 214.388 L -185.227 214.388 L -185.227 214.885 z  M -176.573 150.588 L -176.4 150.603 L -176.399 150.603 L -176.232 150.648 L -176.231 150.648 L -176.074 150.721 L -176.073 150.722 L -175.931 150.821 L -175.93 150.822 L -175.807 150.944 L -175.807 150.945 L -175.707 151.087 L -175.707 151.088 L -175.634 151.245 L -175.633 151.246 L -175.588 151.413 L -175.588 151.414 L -175.573 151.587 L -175.573 151.588 L -175.573 151.601 L -175.573 153.625 L -175.567 153.625 L -174.773 153.625 L -174.773 153.628 L -174.773 154.125 L -174.842 154.125 L -185.227 154.125 L -185.227 154.122 L -185.227 153.625 L -185.222 153.625 L -184.427 153.625 L -184.427 153.611 L -184.427 151.588 L -184.412 151.415 L -184.412 151.414 L -184.367 151.247 L -184.367 151.246 L -184.294 151.089 L -184.293 151.088 L -184.194 150.946 L -184.193 150.945 L -184.071 150.823 L -184.07 150.822 L -183.928 150.722 L -183.927 150.722 L -183.77 150.649 L -183.769 150.648 L -183.602 150.603 L -183.601 150.603 L -183.428 150.588 L -183.427 150.588 L -183.382 150.588 z  M -196.97 165.347 L -196.88 165.682 L -196.879 165.684 L -196.733 165.998 L -196.732 166 L -196.533 166.284 L -196.532 166.286 L -196.287 166.53 L -196.286 166.532 L -196.002 166.731 L -196 166.732 L -195.686 166.878 L -195.684 166.879 L -195.35 166.969 L -195.347 166.97 L -195.002 167 L -195 167 L -194.655 166.97 L -194.653 166.97 L -194.318 166.88 L -194.316 166.879 L -194.002 166.733 L -194 166.732 L -193.716 166.533 L -193.714 166.532 L -193.47 166.287 L -193.468 166.286 L -193.269 166.002 L -193.268 166 L -193.122 165.686 L -193.121 165.684 L -193.031 165.35 L -193.03 165.347 L -193 165.002 L -193 165 L -193.03 164.655 L -193.03 164.653 L -193.12 164.318 L -193.121 164.316 L -193.267 164.002 L -193.268 164 L -193.467 163.716 L -193.468 163.714 L -193.713 163.47 L -193.714 163.468 L -193.998 163.269 L -194 163.268 L -194.314 163.122 L -194.316 163.121 L -194.65 163.031 L -194.653 163.03 L -194.998 163 L -195 163 L -195.345 163.03 L -195.347 163.03 L -195.682 163.12 L -195.684 163.121 L -195.998 163.267 L -196 163.268 L -196.284 163.467 L -196.286 163.468 L -196.53 163.713 L -196.532 163.714 L -196.731 163.998 L -196.732 164 L -196.878 164.314 L -196.879 164.316 L -196.969 164.65 L -196.97 164.653 L -197 164.998 L -197 165 L -196.97 165.345 z  M -196.97 226.11 L -196.88 226.445 L -196.879 226.447 L -196.733 226.761 L -196.732 226.763 L -196.533 227.047 L -196.532 227.049 L -196.287 227.294 L -196.286 227.295 L -196.002 227.494 L -196 227.495 L -195.686 227.642 L -195.684 227.643 L -195.35 227.732 L -195.347 227.733 L -195.002 227.763 L -195 227.763 L -194.655 227.733 L -194.653 227.733 L -194.318 227.643 L -194.316 227.643 L -194.002 227.496 L -194 227.495 L -193.716 227.297 L -193.714 227.295 L -193.47 227.05 L -193.468 227.049 L -193.269 226.765 L -193.268 226.763 L -193.122 226.449 L -193.121 226.447 L -193.031 226.113 L -193.03 226.11 L -193 225.765 L -193 225.763 L -193.03 225.418 L -193.03 225.416 L -193.12 225.081 L -193.121 225.079 L -193.267 224.765 L -193.268 224.763 L -193.467 224.479 L -193.468 224.478 L -193.713 224.233 L -193.714 224.231 L -193.998 224.032 L -194 224.031 L -194.314 223.885 L -194.316 223.884 L -194.65 223.794 L -194.653 223.794 L -194.998 223.763 L -195 223.763 L -195.345 223.793 L -195.347 223.794 L -195.682 223.883 L -195.684 223.884 L -195.998 224.03 L -196 224.031 L -196.284 224.23 L -196.286 224.231 L -196.53 224.476 L -196.532 224.478 L -196.731 224.761 L -196.732 224.763 L -196.878 225.077 L -196.879 225.079 L -196.969 225.414 L -196.97 225.416 L -197 225.761 L -197 225.763 L -196.97 226.108 z  M -187.183 261.281 L -187.115 261.532 L -187.115 261.533 L -187.005 261.769 L -187.004 261.77 L -186.856 261.983 L -186.855 261.985 L -186.671 262.168 L -186.67 262.169 L -186.457 262.318 L -186.455 262.319 L -186.22 262.429 L -186.218 262.43 L -185.968 262.497 L -185.966 262.498 L -185.707 262.52 L -185.705 262.52 L -185.447 262.498 L -185.445 262.498 L -185.194 262.43 L -185.192 262.43 L -184.957 262.32 L -184.955 262.319 L -184.743 262.17 L -184.741 262.169 L -184.558 261.986 L -184.556 261.985 L -184.407 261.772 L -184.406 261.77 L -184.297 261.535 L -184.296 261.533 L -184.229 261.283 L -184.228 261.281 L -184.206 261.022 L -184.205 261.02 L -184.228 260.762 L -184.228 260.76 L -184.295 260.509 L -184.296 260.507 L -184.406 260.272 L -184.406 260.27 L -184.555 260.058 L -184.556 260.056 L -184.74 259.873 L -184.741 259.871 L -184.954 259.722 L -184.955 259.721 L -185.191 259.612 L -185.192 259.611 L -185.443 259.544 L -185.445 259.543 L -185.704 259.521 L -185.705 259.52 L -185.964 259.543 L -185.966 259.543 L -186.217 259.61 L -186.218 259.611 L -186.454 259.721 L -186.455 259.721 L -186.668 259.87 L -186.67 259.871 L -186.853 260.055 L -186.855 260.056 L -187.003 260.269 L -187.004 260.27 L -187.114 260.506 L -187.115 260.507 L -187.182 260.758 L -187.183 260.76 L -187.205 261.019 L -187.205 261.02 L -187.183 261.279 z  " fill= "none" stroke="rgb(0,0,255)" stroke-width="0.05mm" />
</svg>
